<?xml version="1.0" standalone="no"?>
 <!DOCTYPE svg PUBLIC "-//W3C//DTD SVG 1.1//EN" 
 "http://www.w3.org/Graphics/SVG/1.1/DTD/svg11.dtd"> 
<svg xmlns="http://www.w3.org/2000/svg" version="1.1" 
    width="29.7002cm" height="21.0007cm" viewBox="0 0 116929 82679 ">
<title>SVG Picture created as 79xx-Regler-BuildingBlock_ModB_RevA.svg date 2013/04/21 23:03:40 </title>
  <desc>Picture generated by Eeschema-SVG </desc>
<g style="fill:#000000; fill-opacity:1;stroke:#000000; stroke-opacity:1;
stroke-linecap:round; stroke-linejoin:round; "
 transform="translate(0 0) scale(1 1)">
</g>
<g style="fill:#9F0000; fill-opacity:0.0; 
stroke:#9F0000; stroke-width:100; stroke-opacity:1; 
stroke-linecap:round; stroke-linejoin:round;">
<path d="M4000 4000
L112930 4000
L112930 78680
L4000 78680
L4000 4000
" />
<path d="M4700 4700
L112230 4700
L112230 77980
L4700 77980
L4700 4700
" />
<path d="M25780 4000
L25780 4700
" />
<path d="M15030 4550
L14750 4550
" />
<path d="M14890 4550
L14890 4050
L14840 4120
L14790 4170
L14750 4200
" />
<path d="M25780 78680
L25780 77980
" />
<path d="M15030 78530
L14750 78530
" />
<path d="M14890 78530
L14890 78030
L14840 78100
L14790 78150
L14750 78180
" />
<path d="M47560 4000
L47560 4700
" />
<path d="M36530 4100
L36550 4080
L36600 4050
L36720 4050
L36760 4080
L36790 4100
L36810 4150
L36810 4200
L36790 4270
L36500 4550
L36810 4550
" />
<path d="M47560 78680
L47560 77980
" />
<path d="M36530 78080
L36550 78060
L36600 78030
L36720 78030
L36760 78060
L36790 78080
L36810 78130
L36810 78180
L36790 78250
L36500 78530
L36810 78530
" />
<path d="M69340 4000
L69340 4700
" />
<path d="M58280 4050
L58590 4050
L58420 4240
L58500 4240
L58540 4270
L58570 4290
L58590 4340
L58590 4460
L58570 4500
L58540 4530
L58500 4550
L58350 4550
L58310 4530
L58280 4500
" />
<path d="M69340 78680
L69340 77980
" />
<path d="M58280 78030
L58590 78030
L58420 78220
L58500 78220
L58540 78250
L58570 78270
L58590 78320
L58590 78440
L58570 78480
L58540 78510
L58500 78530
L58350 78530
L58310 78510
L58280 78480
" />
<path d="M91120 4000
L91120 4700
" />
<path d="M80320 4220
L80320 4550
" />
<path d="M80200 4030
L80090 4390
L80390 4390
" />
<path d="M91120 78680
L91120 77980
" />
<path d="M80320 78200
L80320 78530
" />
<path d="M80200 78010
L80090 78370
L80390 78370
" />
<path d="M102130 4050
L101890 4050
L101870 4290
L101890 4270
L101940 4240
L102060 4240
L102100 4270
L102130 4290
L102150 4340
L102150 4460
L102130 4500
L102100 4530
L102060 4550
L101940 4550
L101890 4530
L101870 4500
" />
<path d="M102130 78030
L101890 78030
L101870 78270
L101890 78250
L101940 78220
L102060 78220
L102100 78250
L102130 78270
L102150 78320
L102150 78440
L102130 78480
L102100 78510
L102060 78530
L101940 78530
L101890 78510
L101870 78480
" />
<path d="M4000 28890
L4700 28890
" />
<path d="M4240 16510
L4470 16510
" />
<path d="M4190 16650
L4350 16150
L4520 16650
" />
<path d="M112930 28890
L112230 28890
" />
<path d="M112470 16510
L112700 16510
" />
<path d="M112420 16650
L112580 16150
L112750 16650
" />
<path d="M4000 53780
L4700 53780
" />
<path d="M4390 41280
L4460 41300
L4480 41330
L4500 41380
L4500 41450
L4480 41490
L4460 41520
L4410 41540
L4220 41540
L4220 41040
L4390 41040
L4430 41070
L4460 41090
L4480 41140
L4480 41190
L4460 41230
L4430 41260
L4390 41280
L4220 41280
" />
<path d="M112930 53780
L112230 53780
" />
<path d="M112620 41280
L112690 41300
L112710 41330
L112730 41380
L112730 41450
L112710 41490
L112690 41520
L112640 41540
L112450 41540
L112450 41040
L112620 41040
L112660 41070
L112690 41090
L112710 41140
L112710 41190
L112690 41230
L112660 41260
L112620 41280
L112450 41280
" />
<path d="M4500 66380
L4480 66410
L4410 66430
L4360 66430
L4290 66410
L4240 66360
L4220 66310
L4200 66220
L4200 66150
L4220 66050
L4240 66000
L4290 65960
L4360 65930
L4410 65930
L4480 65960
L4500 65980
" />
<path d="M112730 66380
L112710 66410
L112640 66430
L112590 66430
L112520 66410
L112470 66360
L112450 66310
L112430 66220
L112430 66150
L112450 66050
L112470 66000
L112520 65960
L112590 65930
L112640 65930
L112710 65960
L112730 65980
" />
<path d="M79380 76420
L79450 75820
L79600 75820
L79680 75850
L79730 75910
L79750 75970
L79770 76080
L79760 76170
L79720 76280
L79680 76340
L79610 76390
L79530 76420
L79380 76420
" />
<path d="M80240 76420
L80280 76110
L80250 76050
L80200 76020
L80090 76020
L80020 76050
" />
<path d="M80240 76390
L80180 76420
L80040 76420
L79980 76390
L79960 76340
L79970 76280
L80000 76220
L80070 76190
L80210 76190
L80270 76170
" />
<path d="M80490 76020
L80720 76020
" />
<path d="M80590 75820
L80530 76340
L80550 76390
L80610 76420
L80670 76420
" />
<path d="M81090 76390
L81030 76420
L80920 76420
L80860 76390
L80840 76340
L80870 76110
L80900 76050
L80970 76020
L81080 76020
L81130 76050
L81160 76110
L81150 76170
L80850 76220
" />
<path d="M81370 76370
L81400 76390
L81370 76420
L81340 76390
L81370 76370
L81370 76420
" />
<path d="M81410 76050
L81440 76080
L81410 76110
L81380 76080
L81410 76050
L81410 76110
" />
<path d="M82160 75880
L82190 75850
L82250 75820
L82390 75820
L82450 75850
L82480 75880
L82500 75940
L82490 75990
L82450 76080
L82070 76420
L82440 76420
" />
<path d="M83010 76420
L82660 76420
" />
<path d="M82840 76420
L82910 75820
L82840 75910
L82770 75970
L82710 75990
" />
<path d="M83980 76420
L84020 76110
L83990 76050
L83940 76020
L83830 76020
L83760 76050
" />
<path d="M83980 76390
L83920 76420
L83780 76420
L83720 76390
L83700 76340
L83710 76280
L83740 76220
L83810 76190
L83950 76190
L84010 76170
" />
<path d="M84310 76020
L84230 76620
" />
<path d="M84300 76050
L84370 76020
L84480 76020
L84530 76050
L84560 76080
L84580 76140
L84560 76310
L84520 76370
L84490 76390
L84430 76420
L84320 76420
L84260 76390
" />
<path d="M84800 76420
L84850 76020
" />
<path d="M84830 76140
L84870 76080
L84900 76050
L84970 76020
L85020 76020
" />
<path d="M85670 75880
L85700 75850
L85760 75820
L85900 75820
L85960 75850
L85990 75880
L86010 75940
L86000 75990
L85960 76080
L85580 76420
L85950 76420
" />
<path d="M86390 75820
L86440 75820
L86500 75850
L86530 75880
L86550 75940
L86560 76050
L86550 76190
L86500 76310
L86460 76370
L86430 76390
L86370 76420
L86320 76420
L86260 76390
L86230 76370
L86210 76310
L86200 76190
L86210 76050
L86260 75940
L86300 75880
L86330 75850
L86390 75820
" />
<path d="M87090 76420
L86740 76420
" />
<path d="M86920 76420
L86990 75820
L86920 75910
L86850 75970
L86790 75990
" />
<path d="M87360 75820
L87730 75820
L87500 76050
L87580 76050
L87640 76080
L87670 76110
L87690 76170
L87670 76310
L87630 76370
L87600 76390
L87540 76420
L87370 76420
L87310 76390
L87290 76370
" />
<path d="M70970 77620
L70970 77020
" />
<path d="M71320 77620
L71060 77280
" />
<path d="M71320 77020
L70970 77370
" />
<path d="M71570 77620
L71570 77220
" />
<path d="M71570 77020
L71540 77050
L71570 77080
L71600 77050
L71570 77020
L71570 77080
" />
<path d="M72210 77570
L72180 77590
L72090 77620
L72030 77620
L71950 77590
L71890 77540
L71860 77480
L71830 77370
L71830 77280
L71860 77170
L71890 77110
L71950 77050
L72030 77020
L72090 77020
L72180 77050
L72210 77080
" />
<path d="M72720 77620
L72720 77310
L72690 77250
L72630 77220
L72520 77220
L72460 77250
" />
<path d="M72720 77590
L72660 77620
L72520 77620
L72460 77590
L72430 77540
L72430 77480
L72460 77420
L72520 77390
L72660 77390
L72720 77370
" />
<path d="M73260 77620
L73260 77020
" />
<path d="M73260 77590
L73200 77620
L73090 77620
L73030 77590
L73000 77570
L72970 77510
L72970 77340
L73000 77280
L73030 77250
L73090 77220
L73200 77220
L73260 77250
" />
<path d="M74000 77310
L74200 77310
" />
<path d="M74290 77620
L74000 77620
L74000 77020
L74290 77020
" />
<path d="M74540 77570
L74570 77590
L74540 77620
L74510 77590
L74540 77570
L74540 77620
" />
<path d="M74830 77620
L74830 77020
L74980 77020
L75060 77050
L75120 77110
L75150 77170
L75180 77280
L75180 77370
L75150 77480
L75120 77540
L75060 77590
L74980 77620
L74830 77620
" />
<path d="M75430 77570
L75460 77590
L75430 77620
L75400 77590
L75430 77570
L75430 77620
" />
<path d="M75690 77450
L75980 77450
" />
<path d="M75640 77620
L75840 77020
L76040 77620
" />
<path d="M76230 77570
L76260 77590
L76230 77620
L76200 77590
L76230 77570
L76230 77620
" />
<path d="M104530 76420
L104360 76140
" />
<path d="M104180 76420
L104250 75820
L104480 75820
L104540 75850
L104570 75880
L104590 75940
L104580 76020
L104540 76080
L104510 76110
L104440 76140
L104210 76140
" />
<path d="M105010 76390
L104950 76420
L104840 76420
L104780 76390
L104760 76340
L104790 76110
L104820 76050
L104890 76020
L105000 76020
L105050 76050
L105080 76110
L105070 76170
L104770 76220
" />
<path d="M105290 76020
L105380 76420
L105570 76020
" />
<path d="M105750 76370
L105780 76390
L105750 76420
L105720 76390
L105750 76370
L105750 76420
" />
<path d="M105790 76050
L105820 76080
L105790 76110
L105760 76080
L105790 76050
L105790 76110
" />
<path d="M70940 76390
L71030 76420
L71170 76420
L71230 76390
L71260 76370
L71290 76310
L71290 76250
L71260 76190
L71230 76170
L71170 76140
L71060 76110
L71000 76080
L70970 76050
L70940 75990
L70940 75940
L70970 75880
L71000 75850
L71060 75820
L71200 75820
L71290 75850
" />
<path d="M71540 76420
L71540 76020
" />
<path d="M71540 75820
L71510 75850
L71540 75880
L71570 75850
L71540 75820
L71540 75880
" />
<path d="M71780 76020
L72090 76020
L71780 76420
L72090 76420
" />
<path d="M72550 76390
L72490 76420
L72380 76420
L72320 76390
L72290 76340
L72290 76110
L72320 76050
L72380 76020
L72490 76020
L72550 76050
L72580 76110
L72580 76170
L72290 76220
" />
<path d="M72830 76370
L72860 76390
L72830 76420
L72800 76390
L72830 76370
L72830 76420
" />
<path d="M72830 76050
L72860 76080
L72830 76110
L72800 76080
L72830 76050
L72830 76110
" />
<path d="M73550 76250
L73840 76250
" />
<path d="M73500 76420
L73700 75820
L73900 76420
" />
<path d="M74350 76020
L74350 76420
" />
<path d="M74210 75790
L74060 76220
L74440 76220
" />
<path d="M104170 77620
L104170 77020
" />
<path d="M104720 77620
L104720 77020
" />
<path d="M104720 77590
L104660 77620
L104550 77620
L104490 77590
L104460 77570
L104430 77510
L104430 77340
L104460 77280
L104490 77250
L104550 77220
L104660 77220
L104720 77250
" />
<path d="M105000 77570
L105030 77590
L105000 77620
L104970 77590
L105000 77570
L105000 77620
" />
<path d="M105000 77250
L105030 77280
L105000 77310
L104970 77280
L105000 77250
L105000 77310
" />
<path d="M106070 77620
L105720 77620
" />
<path d="M105900 77620
L105900 77020
L105840 77110
L105780 77170
L105720 77190
" />
<path d="M106750 76990
L106240 77770
" />
<path d="M107270 77620
L106920 77620
" />
<path d="M107100 77620
L107100 77020
L107040 77110
L106980 77170
L106920 77190
" />
<path d="M70970 74620
L71310 74620
" />
<path d="M71070 75220
L71140 74620
" />
<path d="M71440 75220
L71490 74820
" />
<path d="M71510 74620
L71480 74650
L71510 74680
L71540 74650
L71510 74620
L71510 74680
" />
<path d="M71700 74820
L71930 74820
" />
<path d="M71800 74620
L71740 75140
L71760 75190
L71820 75220
L71880 75220
" />
<path d="M72160 75220
L72100 75190
L72080 75140
L72140 74620
" />
<path d="M72610 75190
L72550 75220
L72440 75220
L72380 75190
L72360 75140
L72390 74910
L72420 74850
L72490 74820
L72600 74820
L72650 74850
L72680 74910
L72670 74970
L72370 75020
" />
<path d="M72890 75170
L72920 75190
L72890 75220
L72860 75190
L72890 75170
L72890 75220
" />
<path d="M72930 74850
L72960 74880
L72930 74910
L72900 74880
L72930 74850
L72930 74910
" />
<path d="M71170 72510
L70970 72510
" />
<path d="M70970 72820
L70970 72220
L71260 72220
" />
<path d="M71480 72820
L71480 72420
" />
<path d="M71480 72220
L71450 72250
L71480 72280
L71510 72250
L71480 72220
L71480 72280
" />
<path d="M71860 72820
L71800 72790
L71770 72740
L71770 72220
" />
<path d="M72310 72790
L72250 72820
L72140 72820
L72080 72790
L72050 72740
L72050 72510
L72080 72450
L72140 72420
L72250 72420
L72310 72450
L72340 72510
L72340 72570
L72050 72620
" />
<path d="M72590 72770
L72620 72790
L72590 72820
L72560 72790
L72590 72770
L72590 72820
" />
<path d="M72590 72450
L72620 72480
L72590 72510
L72560 72480
L72590 72450
L72590 72510
" />
<path d="M73290 72220
L73690 72220
L73430 72820
" />
<path d="M73940 72820
L74060 72820
L74110 72790
L74140 72770
L74200 72680
L74230 72570
L74230 72340
L74200 72280
L74170 72250
L74110 72220
L74000 72220
L73940 72250
L73910 72280
L73880 72340
L73880 72480
L73910 72540
L73940 72570
L74000 72590
L74110 72590
L74170 72570
L74200 72540
L74230 72480
" />
<path d="M74430 72820
L74740 72420
" />
<path d="M74430 72420
L74740 72820
" />
<path d="M74920 72820
L75230 72420
" />
<path d="M74920 72420
L75230 72820
" />
<path d="M75460 72590
L75920 72590
" />
<path d="M76550 72820
L76350 72540
" />
<path d="M76200 72820
L76200 72220
L76430 72220
L76490 72250
L76520 72280
L76550 72340
L76550 72420
L76520 72480
L76490 72510
L76430 72540
L76200 72540
" />
<path d="M77030 72790
L76970 72820
L76860 72820
L76800 72790
L76770 72740
L76770 72510
L76800 72450
L76860 72420
L76970 72420
L77030 72450
L77060 72510
L77060 72570
L76770 72620
" />
<path d="M77570 72420
L77570 72910
L77540 72970
L77510 72990
L77460 73020
L77370 73020
L77310 72990
" />
<path d="M77570 72790
L77510 72820
L77400 72820
L77340 72790
L77310 72770
L77280 72710
L77280 72540
L77310 72480
L77340 72450
L77400 72420
L77510 72420
L77570 72450
" />
<path d="M77940 72820
L77880 72790
L77850 72740
L77850 72220
" />
<path d="M78390 72790
L78330 72820
L78220 72820
L78160 72790
L78130 72740
L78130 72510
L78160 72450
L78220 72420
L78330 72420
L78390 72450
L78420 72510
L78420 72570
L78130 72620
" />
<path d="M78670 72820
L78670 72420
" />
<path d="M78670 72540
L78700 72480
L78730 72450
L78790 72420
L78840 72420
" />
<path d="M79040 72590
L79500 72590
" />
<path d="M79980 72510
L80070 72540
L80100 72570
L80130 72620
L80130 72710
L80100 72770
L80070 72790
L80010 72820
L79780 72820
L79780 72220
L79980 72220
L80040 72250
L80070 72280
L80100 72340
L80100 72390
L80070 72450
L80040 72480
L79980 72510
L79780 72510
" />
<path d="M80640 72420
L80640 72820
" />
<path d="M80380 72420
L80380 72740
L80410 72790
L80470 72820
L80550 72820
L80610 72790
L80640 72770
" />
<path d="M80920 72820
L80920 72420
" />
<path d="M80920 72220
L80890 72250
L80920 72280
L80950 72250
L80920 72220
L80920 72280
" />
<path d="M81300 72820
L81240 72790
L81210 72740
L81210 72220
" />
<path d="M81780 72820
L81780 72220
" />
<path d="M81780 72790
L81720 72820
L81610 72820
L81550 72790
L81520 72770
L81490 72710
L81490 72540
L81520 72480
L81550 72450
L81610 72420
L81720 72420
L81780 72450
" />
<path d="M82060 72820
L82060 72420
" />
<path d="M82060 72220
L82030 72250
L82060 72280
L82090 72250
L82060 72220
L82060 72280
" />
<path d="M82350 72420
L82350 72820
" />
<path d="M82350 72480
L82380 72450
L82440 72420
L82520 72420
L82580 72450
L82610 72510
L82610 72820
" />
<path d="M83150 72420
L83150 72910
L83120 72970
L83090 72990
L83040 73020
L82950 73020
L82890 72990
" />
<path d="M83150 72790
L83090 72820
L82980 72820
L82920 72790
L82890 72770
L82860 72710
L82860 72540
L82890 72480
L82920 72450
L82980 72420
L83090 72420
L83150 72450
" />
<path d="M83630 72510
L83720 72540
L83750 72570
L83780 72620
L83780 72710
L83750 72770
L83720 72790
L83660 72820
L83430 72820
L83430 72220
L83630 72220
L83690 72250
L83720 72280
L83750 72340
L83750 72390
L83720 72450
L83690 72480
L83630 72510
L83430 72510
" />
<path d="M84120 72820
L84060 72790
L84030 72740
L84030 72220
" />
<path d="M84430 72820
L84370 72790
L84340 72770
L84310 72710
L84310 72540
L84340 72480
L84370 72450
L84430 72420
L84510 72420
L84570 72450
L84600 72480
L84630 72540
L84630 72710
L84600 72770
L84570 72790
L84510 72820
L84430 72820
" />
<path d="M85140 72790
L85080 72820
L84970 72820
L84910 72790
L84880 72770
L84850 72710
L84850 72540
L84880 72480
L84910 72450
L84970 72420
L85080 72420
L85140 72450
" />
<path d="M85390 72820
L85390 72220
" />
<path d="M85450 72590
L85620 72820
" />
<path d="M85620 72420
L85390 72650
" />
<path d="M85740 72880
L86200 72880
" />
<path d="M86340 72820
L86340 72220
L86540 72650
L86740 72220
L86740 72820
" />
<path d="M87120 72820
L87060 72790
L87030 72770
L87000 72710
L87000 72540
L87030 72480
L87060 72450
L87120 72420
L87200 72420
L87260 72450
L87290 72480
L87320 72540
L87320 72710
L87290 72770
L87260 72790
L87200 72820
L87120 72820
" />
<path d="M87830 72820
L87830 72220
" />
<path d="M87830 72790
L87770 72820
L87660 72820
L87600 72790
L87570 72770
L87540 72710
L87540 72540
L87570 72480
L87600 72450
L87660 72420
L87770 72420
L87830 72450
" />
<path d="M88310 72510
L88400 72540
L88430 72570
L88460 72620
L88460 72710
L88430 72770
L88400 72790
L88340 72820
L88110 72820
L88110 72220
L88310 72220
L88370 72250
L88400 72280
L88430 72340
L88430 72390
L88400 72450
L88370 72480
L88310 72510
L88110 72510
" />
<path d="M88570 72880
L89030 72880
" />
<path d="M89520 72820
L89320 72540
" />
<path d="M89170 72820
L89170 72220
L89400 72220
L89460 72250
L89490 72280
L89520 72340
L89520 72420
L89490 72480
L89460 72510
L89400 72540
L89170 72540
" />
<path d="M90000 72790
L89940 72820
L89830 72820
L89770 72790
L89740 72740
L89740 72510
L89770 72450
L89830 72420
L89940 72420
L90000 72450
L90030 72510
L90030 72570
L89740 72620
" />
<path d="M90230 72420
L90370 72820
L90510 72420
" />
<path d="M90710 72650
L91000 72650
" />
<path d="M90660 72820
L90860 72220
L91060 72820
" />
<path d="M91250 72770
L91280 72790
L91250 72820
L91220 72790
L91250 72770
L91250 72820
" />
<path d="M91510 72790
L91570 72820
L91690 72820
L91740 72790
L91770 72740
L91770 72710
L91740 72650
L91690 72620
L91600 72620
L91540 72590
L91510 72540
L91510 72510
L91540 72450
L91600 72420
L91690 72420
L91740 72450
" />
<path d="M92290 72790
L92230 72820
L92120 72820
L92060 72790
L92030 72770
L92000 72710
L92000 72540
L92030 72480
L92060 72450
L92120 72420
L92230 72420
L92290 72450
" />
<path d="M92540 72820
L92540 72220
" />
<path d="M92800 72820
L92800 72510
L92770 72450
L92710 72420
L92630 72420
L92570 72450
L92540 72480
" />
<path d="M70940 73990
L71030 74020
L71170 74020
L71230 73990
L71260 73970
L71290 73910
L71290 73850
L71260 73790
L71230 73770
L71170 73740
L71060 73710
L71000 73680
L70970 73650
L70940 73590
L70940 73540
L70970 73480
L71000 73450
L71060 73420
L71200 73420
L71290 73450
" />
<path d="M71540 74020
L71540 73420
" />
<path d="M71800 74020
L71800 73710
L71770 73650
L71710 73620
L71630 73620
L71570 73650
L71540 73680
" />
<path d="M72310 73990
L72250 74020
L72140 74020
L72080 73990
L72050 73940
L72050 73710
L72080 73650
L72140 73620
L72250 73620
L72310 73650
L72340 73710
L72340 73770
L72050 73820
" />
<path d="M72820 73990
L72760 74020
L72650 74020
L72590 73990
L72560 73940
L72560 73710
L72590 73650
L72650 73620
L72760 73620
L72820 73650
L72850 73710
L72850 73770
L72560 73820
" />
<path d="M73020 73620
L73250 73620
" />
<path d="M73100 73420
L73100 73940
L73130 73990
L73190 74020
L73250 74020
" />
<path d="M73440 73970
L73470 73990
L73440 74020
L73410 73990
L73440 73970
L73440 74020
" />
<path d="M73440 73650
L73470 73680
L73440 73710
L73410 73680
L73440 73650
L73440 73710
" />
<path d="M74620 73390
L74110 74170
" />
<path d="M70230 71980
L70230 77980
" />
<path d="M70230 71980
L112230 71980
" />
<path d="M70230 71980
L112230 71980
" />
<path d="M70230 74380
L112230 74380
" />
<path d="M103430 75580
L103430 77980
" />
<path d="M70230 76780
L112230 76780
" />
<path d="M70230 75580
L112230 75580
" />
<path d="M76830 75580
L76830 76780
" />
</g>
<g style="fill:#9F0000; fill-opacity:0.0; 
stroke:#9F0000; stroke-width:0; stroke-opacity:1; 
stroke-linecap:round; stroke-linejoin:round;">
</g>
<g style="fill:#009F00; fill-opacity:1.0; 
stroke:#009F00; stroke-width:100; stroke-opacity:1; 
stroke-linecap:round; stroke-linejoin:round;">
<circle cx="49500" cy="26500" r="160" /> 
</g>
<g style="fill:#009F00; fill-opacity:1.0; 
stroke:#009F00; stroke-width:60; stroke-opacity:1; 
stroke-linecap:round; stroke-linejoin:round;">
<path d="M49500 26500
L49500 20500
" />
<path d="M49500 20500
L54500 20500
" />
<path d="M62500 26500
L76000 26500
" />
</g>
<g style="fill:#009F00; fill-opacity:1.0; 
stroke:#009F00; stroke-width:0; stroke-opacity:1; 
stroke-linecap:round; stroke-linejoin:round;">
</g>
<g style="fill:#009F00; fill-opacity:1.0; 
stroke:#009F00; stroke-width:100; stroke-opacity:1; 
stroke-linecap:round; stroke-linejoin:round;">
<circle cx="70500" cy="26500" r="160" /> 
</g>
<g style="fill:#009F00; fill-opacity:1.0; 
stroke:#009F00; stroke-width:0; stroke-opacity:1; 
stroke-linecap:round; stroke-linejoin:round;">
</g>
<g style="fill:#009F00; fill-opacity:1.0; 
stroke:#009F00; stroke-width:100; stroke-opacity:1; 
stroke-linecap:round; stroke-linejoin:round;">
<circle cx="43000" cy="26500" r="160" /> 
</g>
<g style="fill:#009F00; fill-opacity:1.0; 
stroke:#009F00; stroke-width:60; stroke-opacity:1; 
stroke-linecap:round; stroke-linejoin:round;">
<path d="M39000 26500
L50500 26500
" />
</g>
<g style="fill:#009F00; fill-opacity:1.0; 
stroke:#009F00; stroke-width:0; stroke-opacity:1; 
stroke-linecap:round; stroke-linejoin:round;">
</g>
<g style="fill:#009F00; fill-opacity:1.0; 
stroke:#009F00; stroke-width:100; stroke-opacity:1; 
stroke-linecap:round; stroke-linejoin:round;">
<circle cx="47000" cy="38500" r="160" /> 
</g>
<g style="fill:#009F00; fill-opacity:1.0; 
stroke:#009F00; stroke-width:60; stroke-opacity:1; 
stroke-linecap:round; stroke-linejoin:round;">
<path d="M47000 34500
L47000 38500
" />
<path d="M65500 38500
L65500 34500
" />
</g>
<g style="fill:#009F00; fill-opacity:1.0; 
stroke:#009F00; stroke-width:0; stroke-opacity:1; 
stroke-linecap:round; stroke-linejoin:round;">
</g>
<g style="fill:#009F00; fill-opacity:1.0; 
stroke:#009F00; stroke-width:100; stroke-opacity:1; 
stroke-linecap:round; stroke-linejoin:round;">
<circle cx="65500" cy="26500" r="160" /> 
</g>
<g style="fill:#009F00; fill-opacity:1.0; 
stroke:#009F00; stroke-width:60; stroke-opacity:1; 
stroke-linecap:round; stroke-linejoin:round;">
<path d="M65500 30500
L65500 26500
" />
<path d="M70500 26500
L70500 30500
" />
<path d="M43000 26500
L43000 30500
" />
<path d="M47000 30500
L47000 26500
" />
</g>
<g style="fill:#009F00; fill-opacity:1.0; 
stroke:#009F00; stroke-width:0; stroke-opacity:1; 
stroke-linecap:round; stroke-linejoin:round;">
</g>
<g style="fill:#009F00; fill-opacity:1.0; 
stroke:#009F00; stroke-width:100; stroke-opacity:1; 
stroke-linecap:round; stroke-linejoin:round;">
<circle cx="47000" cy="26500" r="160" /> 
</g>
<g style="fill:#009F00; fill-opacity:1.0; 
stroke:#009F00; stroke-width:60; stroke-opacity:1; 
stroke-linecap:round; stroke-linejoin:round;">
<path d="M70500 38500
L70500 34500
" />
<path d="M43000 38500
L43000 34500
" />
</g>
<g style="fill:#009F00; fill-opacity:1.0; 
stroke:#009F00; stroke-width:0; stroke-opacity:1; 
stroke-linecap:round; stroke-linejoin:round;">
</g>
<g style="fill:#009F00; fill-opacity:1.0; 
stroke:#009F00; stroke-width:100; stroke-opacity:1; 
stroke-linecap:round; stroke-linejoin:round;">
<circle cx="65500" cy="38500" r="160" /> 
</g>
<g style="fill:#009F00; fill-opacity:1.0; 
stroke:#009F00; stroke-width:60; stroke-opacity:1; 
stroke-linecap:round; stroke-linejoin:round;">
<path d="M56500 31000
L56500 38500
" />
</g>
<g style="fill:#009F00; fill-opacity:1.0; 
stroke:#009F00; stroke-width:0; stroke-opacity:1; 
stroke-linecap:round; stroke-linejoin:round;">
</g>
<g style="fill:#009F00; fill-opacity:1.0; 
stroke:#009F00; stroke-width:100; stroke-opacity:1; 
stroke-linecap:round; stroke-linejoin:round;">
<circle cx="56500" cy="38500" r="160" /> 
</g>
<g style="fill:#009F00; fill-opacity:1.0; 
stroke:#009F00; stroke-width:0; stroke-opacity:1; 
stroke-linecap:round; stroke-linejoin:round;">
</g>
<g style="fill:#009F00; fill-opacity:1.0; 
stroke:#009F00; stroke-width:100; stroke-opacity:1; 
stroke-linecap:round; stroke-linejoin:round;">
<circle cx="43000" cy="38500" r="160" /> 
</g>
<g style="fill:#009F00; fill-opacity:1.0; 
stroke:#009F00; stroke-width:60; stroke-opacity:1; 
stroke-linecap:round; stroke-linejoin:round;">
<path d="M76000 38500
L39000 38500
" />
</g>
<g style="fill:#009F00; fill-opacity:1.0; 
stroke:#009F00; stroke-width:0; stroke-opacity:1; 
stroke-linecap:round; stroke-linejoin:round;">
</g>
<g style="fill:#009F00; fill-opacity:1.0; 
stroke:#009F00; stroke-width:100; stroke-opacity:1; 
stroke-linecap:round; stroke-linejoin:round;">
<circle cx="70500" cy="38500" r="160" /> 
</g>
<g style="fill:#009F00; fill-opacity:1.0; 
stroke:#009F00; stroke-width:60; stroke-opacity:1; 
stroke-linecap:round; stroke-linejoin:round;">
<path d="M58500 20500
L64000 20500
" />
<path d="M64000 20500
L64000 26500
" />
</g>
<g style="fill:#009F00; fill-opacity:1.0; 
stroke:#009F00; stroke-width:0; stroke-opacity:1; 
stroke-linecap:round; stroke-linejoin:round;">
</g>
<g style="fill:#009F00; fill-opacity:1.0; 
stroke:#009F00; stroke-width:100; stroke-opacity:1; 
stroke-linecap:round; stroke-linejoin:round;">
<circle cx="64000" cy="26500" r="160" /> 
</g>
<g style="fill:#009F00; fill-opacity:1.0; 
stroke:#009F00; stroke-width:0; stroke-opacity:1; 
stroke-linecap:round; stroke-linejoin:round;">
</g>
<g style="fill:#9F0000; fill-opacity:0.0; 
stroke:#9F0000; stroke-width:60; stroke-opacity:1; 
stroke-linecap:round; stroke-linejoin:round;">
<polyline fill="none;"
points="56000,20500
57000,20500
57000,20500
" /> 
<polyline fill="none;"
points="57000,19500
57000,21500
57000,21500
" /> 
<polyline fill="none;"
points="57000,20500
56000,19500
56000,21500
57000,20500
57000,20500
" /> 
<path d="M56000 20500
L54500 20500
" />
<path d="M57000 20500
L58500 20500
" />
</g>
<g style="fill:#009F9F; fill-opacity:0.0; 
stroke:#009F9F; stroke-width:50; stroke-opacity:1; 
stroke-linecap:round; stroke-linejoin:round;">
<path d="M56280 19100
L56280 18800
L56350 18800
L56400 18820
L56420 18840
L56440 18870
L56450 18930
L56450 18970
L56440 19030
L56420 19060
L56400 19090
L56350 19100
L56280 19100
" />
<path d="M56740 19100
L56570 19100
" />
<path d="M56650 19100
L56650 18800
L56620 18840
L56600 18870
L56570 18890
" />
<path d="M52000 22100
L52000 21800
L52070 21800
L52120 21820
L52140 21840
L52160 21870
L52170 21930
L52170 21970
L52160 22030
L52140 22060
L52120 22090
L52070 22100
L52000 22100
" />
<path d="M52300 22100
L52300 21800
" />
<path d="M52500 21800
L52560 21800
L52580 21820
L52610 21840
L52630 21900
L52630 22000
L52610 22060
L52580 22090
L52560 22100
L52500 22100
L52470 22090
L52440 22060
L52430 22000
L52430 21900
L52440 21840
L52470 21820
L52500 21800
" />
<path d="M52750 22100
L52750 21800
L52820 21800
L52870 21820
L52890 21840
L52910 21870
L52920 21930
L52920 21970
L52910 22030
L52890 22060
L52870 22090
L52820 22100
L52750 22100
" />
<path d="M53050 21940
L53150 21940
" />
<path d="M53190 22100
L53050 22100
L53050 21800
L53190 21800
" />
<path d="M53320 21990
L53550 21990
" />
<path d="M53680 22090
L53720 22100
L53790 22100
L53820 22090
L53830 22070
L53850 22040
L53850 22020
L53830 21990
L53820 21970
L53790 21960
L53730 21940
L53710 21930
L53690 21920
L53680 21890
L53680 21860
L53690 21830
L53710 21820
L53730 21800
L53810 21800
L53850 21820
" />
<path d="M53940 21800
L54110 21800
" />
<path d="M54020 22100
L54020 21800
" />
<path d="M54200 22020
L54340 22020
" />
<path d="M54170 22100
L54270 21800
L54370 22100
" />
<path d="M54470 22100
L54470 21800
L54640 22100
L54640 21800
" />
<path d="M54780 22100
L54780 21800
L54850 21800
L54900 21820
L54920 21840
L54940 21870
L54950 21930
L54950 21970
L54940 22030
L54920 22060
L54900 22090
L54850 22100
L54780 22100
" />
<path d="M55070 22020
L55210 22020
" />
<path d="M55040 22100
L55140 21800
L55240 22100
" />
<path d="M55510 22100
L55410 21960
" />
<path d="M55340 22100
L55340 21800
L55460 21800
L55480 21820
L55500 21830
L55510 21860
L55510 21900
L55500 21930
L55480 21940
L55460 21960
L55340 21960
" />
<path d="M55640 22100
L55640 21800
L55710 21800
L55760 21820
L55780 21840
L55800 21870
L55810 21930
L55810 21970
L55800 22030
L55780 22060
L55760 22090
L55710 22100
L55640 22100
" />
<path d="M55870 22130
L56100 22130
" />
<path d="M56340 22100
L56240 21960
" />
<path d="M56170 22100
L56170 21800
L56290 21800
L56310 21820
L56330 21830
L56340 21860
L56340 21900
L56330 21930
L56310 21940
L56290 21960
L56170 21960
" />
<path d="M56470 21940
L56570 21940
" />
<path d="M56610 22100
L56470 22100
L56470 21800
L56610 21800
" />
<path d="M56700 21800
L56800 22100
L56900 21800
" />
<path d="M57000 21940
L57100 21940
" />
<path d="M57140 22100
L57000 22100
L57000 21800
L57140 21800
" />
<path d="M57200 22130
L57430 22130
" />
<path d="M57500 22100
L57500 21800
L57570 21800
L57620 21820
L57640 21840
L57660 21870
L57670 21930
L57670 21970
L57660 22030
L57640 22060
L57620 22090
L57570 22100
L57500 22100
" />
<path d="M57790 22020
L57930 22020
" />
<path d="M57760 22100
L57860 21800
L57960 22100
" />
<path d="M58020 21800
L58190 21800
" />
<path d="M58100 22100
L58100 21800
" />
<path d="M58290 21940
L58390 21940
" />
<path d="M58430 22100
L58290 22100
L58290 21800
L58430 21800
" />
<path d="M58720 22100
L58550 22100
" />
<path d="M58630 22100
L58630 21800
L58600 21840
L58580 21870
L58550 21890
" />
<path d="M58990 21800
L58850 21800
L58840 21940
L58850 21930
L58880 21920
L58950 21920
L58980 21930
L58990 21940
L59010 21970
L59010 22040
L58990 22070
L58980 22090
L58950 22100
L58880 22100
L58850 22090
L58840 22070
" />
<path d="M59230 21800
L59230 22020
L59210 22060
L59180 22090
L59140 22100
L59110 22100
" />
<path d="M59370 21800
L59370 22040
L59390 22070
L59400 22090
L59430 22100
L59490 22100
L59510 22090
L59530 22070
L59540 22040
L59540 21800
" />
<path d="M59680 22100
L59680 21800
L59850 22100
L59850 21800
" />
<path d="M59980 21830
L59990 21820
L60020 21800
L60090 21800
L60120 21820
L60130 21830
L60150 21860
L60150 21890
L60130 21930
L59960 22100
L60150 22100
" />
<path d="M60340 21800
L60370 21800
L60400 21820
L60410 21830
L60420 21860
L60440 21920
L60440 21990
L60420 22040
L60410 22070
L60400 22090
L60370 22100
L60340 22100
L60310 22090
L60300 22070
L60280 22040
L60270 21990
L60270 21920
L60280 21860
L60300 21830
L60310 21820
L60340 21800
" />
<path d="M60730 22100
L60560 22100
" />
<path d="M60640 22100
L60640 21800
L60610 21840
L60590 21870
L60560 21890
" />
<path d="M60920 21800
L60950 21800
L60980 21820
L60990 21830
L61000 21860
L61020 21920
L61020 21990
L61000 22040
L60990 22070
L60980 22090
L60950 22100
L60920 22100
L60890 22090
L60880 22070
L60860 22040
L60850 21990
L60850 21920
L60860 21860
L60880 21830
L60890 21820
L60920 21800
" />
</g>
<g style="fill:#009F9F; fill-opacity:0.0; 
stroke:#009F9F; stroke-width:0; stroke-opacity:1; 
stroke-linecap:round; stroke-linejoin:round;">
</g>
<g style="fill:#9F0000; fill-opacity:0.0; 
stroke:#9F0000; stroke-width:60; stroke-opacity:1; 
stroke-linecap:round; stroke-linejoin:round;">
<path d="M51530 67670
L51470 67640
L51380 67640
L51300 67670
L51240 67730
L51210 67790
L51180 67900
L51180 67990
L51210 68100
L51240 68160
L51300 68210
L51380 68240
L51440 68240
L51530 68210
L51560 68190
L51560 67990
L51440 67990
" />
<path d="M51810 68240
L51810 67640
L52160 68240
L52160 67640
" />
<path d="M52440 67640
L52440 68130
L52470 68190
L52500 68210
L52560 68240
L52670 68240
L52730 68210
L52760 68190
L52790 68130
L52790 67640
" />
<path d="M56120 67670
L56060 67640
L55970 67640
L55890 67670
L55830 67730
L55800 67790
L55770 67900
L55770 67990
L55800 68100
L55830 68160
L55890 68210
L55970 68240
L56030 68240
L56120 68210
L56150 68190
L56150 67990
L56030 67990
" />
<path d="M56400 68240
L56400 67640
L56630 67640
L56690 67670
L56720 67700
L56750 67760
L56750 67840
L56720 67900
L56690 67930
L56630 67960
L56400 67960
" />
<path d="M57290 68240
L57000 68240
L57000 67640
" />
</g>
<g style="fill:#9F0000; fill-opacity:1.0; 
stroke:#9F0000; stroke-width:10; stroke-opacity:1; 
stroke-linecap:round; stroke-linejoin:round;">
<polyline style="fill-rule:evenodd;"
points="53990,68200
54010,68180
53990,68160
53970,68180
53990,68200
" /> 
<polyline style="fill-rule:evenodd;"
points="54190,68100
54210,68080
54190,68060
54170,68080
54190,68100
" /> 
<polyline style="fill-rule:evenodd;"
points="54420,67360
54440,67350
54420,67330
54410,67350
54420,67360
" /> 
<polyline style="fill-rule:evenodd;"
points="55000,68250
55030,68250
55060,68210
55030,68210
55000,68250
" /> 
<polyline style="fill-rule:evenodd;"
points="55480,67330
55500,67310
55480,67300
55460,67310
55480,67330
" /> 
<polyline style="fill-rule:evenodd;"
points="55710,66910
55730,66890
55710,66870
55700,66890
55710,66910
" /> 
<polyline style="fill-rule:evenodd;"
points="52860,65990
52860,65950
52860,65950
52840,65970
52840,65970
52860,65990
" /> 
<polyline style="fill-rule:evenodd;"
points="53560,67450
53560,67410
53560,67410
53540,67430
53540,67430
53560,67450
" /> 
<polyline style="fill-rule:evenodd;"
points="53590,67680
53590,67640
53590,67640
53570,67660
53570,67660
53590,67680
" /> 
<polyline style="fill-rule:evenodd;"
points="54090,66740
54090,66680
54090,66680
54070,66720
54080,66740
54090,66740
" /> 
<polyline style="fill-rule:evenodd;"
points="54220,65600
54250,65550
54250,65540
54240,65520
54210,65570
54220,65600
" /> 
<polyline style="fill-rule:evenodd;"
points="54260,67980
54260,67940
54260,67940
54240,67960
54240,67960
54260,67980
" /> 
<polyline style="fill-rule:evenodd;"
points="54980,67730
55000,67720
55000,67710
54940,67710
54930,67710
54980,67730
" /> 
<polyline style="fill-rule:evenodd;"
points="55080,68150
55080,68110
55080,68110
55060,68130
55060,68130
55080,68150
" /> 
<polyline style="fill-rule:evenodd;"
points="55490,67200
55470,67120
55450,67110
55450,67160
55460,67190
55490,67200
" /> 
<polyline style="fill-rule:evenodd;"
points="55650,65440
55670,65430
55670,65420
55600,65420
55600,65420
55650,65440
" /> 
<polyline style="fill-rule:evenodd;"
points="56220,65840
56220,65780
56210,65780
56200,65820
56200,65840
56220,65840
" /> 
<polyline style="fill-rule:evenodd;"
points="56250,66040
56250,65980
56240,65980
56230,66020
56230,66040
56250,66040
" /> 
<polyline style="fill-rule:evenodd;"
points="55410,65660
55510,65660
55500,65650
55480,65640
55340,65650
55320,65660
55410,65660
" /> 
<polyline style="fill-rule:evenodd;"
points="55800,67010
55830,66980
55780,66950
55780,66950
55750,66990
55750,66990
55800,67010
" /> 
<polyline style="fill-rule:evenodd;"
points="55890,66700
55940,66670
55950,66670
55910,66660
55910,66660
55860,66690
55890,66700
" /> 
<polyline style="fill-rule:evenodd;"
points="52890,65900
52940,65810
52960,65740
52920,65790
52910,65810
52870,65880
52870,65880
52890,65900
" /> 
<polyline style="fill-rule:evenodd;"
points="52930,66580
52960,66590
52920,66490
52880,66420
52850,66390
52850,66410
52890,66500
52930,66580
" /> 
<polyline style="fill-rule:evenodd;"
points="53300,67360
53350,67330
53360,67320
53310,67320
53290,67320
53240,67350
53240,67350
53300,67360
" /> 
<polyline style="fill-rule:evenodd;"
points="55220,65640
55200,65590
55190,65590
55180,65530
55170,65510
55130,65530
55170,65600
55220,65640
" /> 
<polyline style="fill-rule:evenodd;"
points="53870,66010
53890,66000
53910,65980
54040,65890
54070,65870
54080,65840
54030,65860
53930,65950
53870,66010
" /> 
<polyline style="fill-rule:evenodd;"
points="53920,68260
53930,68240
53900,68160
53850,68090
53840,68080
53810,68070
53850,68150
53880,68210
53920,68260
" /> 
<polyline style="fill-rule:evenodd;"
points="55110,67230
55110,67200
55100,67180
55020,67130
55010,67120
54970,67110
55020,67160
55030,67170
55110,67230
" /> 
<polyline style="fill-rule:evenodd;"
points="56000,66640
56010,66640
56060,66590
56070,66580
56090,66540
56080,66540
56030,66590
56020,66600
56000,66640
" /> 
<polyline style="fill-rule:evenodd;"
points="53810,67200
53860,67140
53870,67110
53920,67020
53920,67010
53850,67070
53790,67120
53740,67150
53730,67150
53770,67190
53810,67200
" /> 
<polyline style="fill-rule:evenodd;"
points="55680,66840
55670,66790
55670,66770
55750,66730
55760,66730
55800,66720
55720,66710
55690,66710
55610,66720
55630,66770
55640,66790
55680,66840
" /> 
<polyline style="fill-rule:evenodd;"
points="56180,65730
56190,65710
56150,65610
56110,65560
55970,65450
55810,65410
55800,65420
55870,65450
56040,65540
56150,65680
56150,65690
56180,65730
" /> 
<polyline style="fill-rule:evenodd;"
points="53390,67040
53420,67020
53440,67000
53480,66890
53490,66840
53480,66830
53470,66850
53360,66860
53260,66840
53350,66880
53430,66940
53410,67020
53390,67040
" /> 
<polyline style="fill-rule:evenodd;"
points="54520,65920
54560,65910
54520,65860
54400,65820
54250,65810
54190,65820
54170,65830
54280,65830
54290,65830
54410,65850
54440,65900
54440,65910
54460,65910
54470,65890
54510,65910
54520,65920
" /> 
</g>
<g style="fill:#9F0000; fill-opacity:0.0; 
stroke:#9F0000; stroke-width:60; stroke-opacity:1; 
stroke-linecap:round; stroke-linejoin:round;">
<polyline fill="none;"
points="54300,66740
54300,66740
" /> 
<polyline fill="none;"
points="54300,66720
54300,66720
" /> 
<polyline fill="none;"
points="54560,68400
54560,68400
" /> 
<polyline fill="none;"
points="54580,68340
54580,68340
" /> 
<polyline fill="none;"
points="54640,67880
54640,67880
" /> 
<polyline fill="none;"
points="55160,66800
55160,66800
" /> 
<polyline fill="none;"
points="54480,67880
54380,68180
54380,68180
" /> 
<polyline fill="none;"
points="54520,68020
54540,68280
54540,68280
" /> 
<polyline fill="none;"
points="54580,67900
54580,68340
54580,68340
" /> 
<polyline fill="none;"
points="54600,67460
54600,67480
54600,67480
" /> 
<polyline fill="none;"
points="54700,66660
54640,66580
54640,66580
" /> 
<polyline fill="none;"
points="54780,67320
54800,67340
54800,67340
" /> 
<polyline fill="none;"
points="54820,67340
54780,67380
54780,67380
" /> 
<polyline fill="none;"
points="54860,67900
54480,67840
54480,67840
" /> 
<polyline fill="none;"
points="54860,67720
55300,67760
55300,67760
" /> 
<polyline fill="none;"
points="55080,68000
54640,67880
54640,67880
" /> 
<polyline fill="none;"
points="55120,67920
54860,67900
54860,67900
" /> 
<polyline fill="none;"
points="55120,67680
55340,67600
55340,67600
" /> 
<polyline fill="none;"
points="55300,67760
55340,67660
55340,67660
" /> 
<polyline fill="none;"
points="54660,66580
54640,66660
54640,66700
54640,66700
" /> 
<polyline fill="none;"
points="54800,68000
54860,68200
54820,68320
54820,68300
" /> 
<polyline fill="none;"
points="54960,68000
54980,68240
54980,68260
54980,68260
" /> 
<polyline fill="none;"
points="55120,66820
55040,66740
54960,66520
54960,66520
" /> 
<polyline fill="none;"
points="54640,67920
54740,68140
54660,68220
54720,68380
54720,68380
" /> 
<polyline fill="none;"
points="54800,66640
55060,67240
55060,67240
55080,67180
55080,67180
" /> 
<polyline fill="none;"
points="55040,66600
55260,66600
55340,66720
55220,66820
55220,66820
" /> 
<polyline fill="none;"
points="55080,67220
54880,67080
54680,67040
54620,67140
54580,67440
54580,67440
" /> 
<polyline fill="none;"
points="55100,67700
54860,67720
54560,67560
54400,67340
54080,66960
54080,66960
" /> 
<polyline fill="none;"
points="54440,66580
54720,66560
54740,66680
54460,66800
54220,66760
54320,66620
54320,66620
" /> 
<polyline fill="none;"
points="54960,67300
54780,67200
54720,67300
54720,67440
54860,67420
54940,67320
54940,67320
" /> 
<polyline fill="none;"
points="53540,67280
53580,67720
53920,68220
54280,68040
54280,67960
53920,67520
53840,67120
53540,67280
53540,67280
" /> 
<polyline fill="none;"
points="54480,66760
54580,66720
54580,66640
54540,66600
54420,66600
54340,66660
54360,66740
54440,66760
54440,66760
" /> 
<polyline fill="none;"
points="55080,66760
55220,66760
55240,66680
55200,66640
55080,66640
55040,66720
55080,66760
55080,66760
55100,66760
55100,66760
" /> 
<polyline fill="none;"
points="55420,67320
55260,67300
55200,67400
55200,67480
55260,67500
55320,67400
55360,67320
55300,67340
55240,67440
55240,67440
" /> 
<polyline fill="none;"
points="53460,66940
53260,67340
53560,67260
53840,67120
54040,66880
54120,66640
54180,66440
54400,66260
53800,66380
53600,66600
53500,66740
53440,66940
53440,66940
" /> 
<polyline fill="none;"
points="55660,66780
55760,66940
55840,67020
55540,67020
55220,66880
55100,66820
55180,67020
55260,67140
55440,67120
55500,67300
55340,67500
55380,67620
55260,67900
55080,67980
55080,68220
54820,68340
54580,68460
54280,68100
54300,67980
54120,67780
53920,67520
53860,67280
53840,67140
54020,66920
54160,66560
54400,66240
54520,66200
54620,66280
54860,66340
55040,66260
55300,66320
55540,66540
55680,66780
55680,66780
" /> 
<polyline fill="none;"
points="54140,65580
54020,65520
53940,65600
53880,65460
53780,65580
53680,65480
53620,65620
53480,65440
53460,65680
53280,65500
53300,65800
53040,65720
53240,65980
52900,65880
53220,66140
52840,66080
53280,66280
52840,66320
53340,66380
52920,66540
53400,66480
53080,66700
53480,66520
53400,66860
53260,66820
53420,66500
53020,66620
53280,66320
52920,66460
53240,66180
52820,66240
53240,66060
52840,65980
53260,65880
52920,65780
53380,65740
53120,65620
53560,65680
53360,65460
53700,65600
53620,65460
53800,65500
54060,65560
54060,65620
54060,65620
" /> 
<polyline fill="none;"
points="54240,65520
54160,65620
54000,65640
53820,65580
53720,65640
53540,65660
53300,65800
53240,66020
53280,66260
53380,66440
53480,66480
53780,66080
54060,65880
54440,65840
54600,65960
54900,65840
55220,65980
55500,66320
55540,66380
55700,66340
55860,66220
55860,66060
55780,65740
55640,65660
55420,65640
55280,65680
55180,65640
55140,65540
55320,65560
55420,65520
55540,65440
55760,65420
56120,65540
56240,65900
56240,66260
56120,66560
55680,66760
55480,66480
55320,66340
55040,66260
54820,66340
54620,66300
54540,66200
54220,66280
53840,66360
53620,66560
53480,66800
53440,66940
53200,66820
53000,66660
52840,66400
52800,66120
52900,65800
53160,65520
53380,65420
53620,65460
53760,65460
53860,65440
53980,65460
54120,65540
54200,65560
54220,65560
54220,65560
" /> 
<polyline fill="none;"
points="53520,66460
53540,66620
53600,66340
53660,66480
53700,66220
53740,66400
53760,66140
53860,66340
53840,66080
53960,66320
53980,65960
54040,66280
54120,65920
54140,66280
54260,65860
54260,66280
54380,65860
54400,66220
54480,65900
54540,66160
54640,65980
54640,66260
54740,65940
54760,66300
54880,65880
54900,66300
54980,65880
55000,66260
55100,65940
55140,66260
55240,66040
55240,66280
55340,66140
55340,66340
55440,66260
55440,66400
55540,66380
55540,66500
55680,66360
55680,66720
55580,66520
55780,66700
55720,66360
55880,66660
55800,66300
55960,66600
55880,66240
56100,66560
55880,66180
56140,66440
55900,66180
56200,66360
55900,66140
56240,66240
55880,66100
56220,66140
55880,66020
56220,66020
55860,65960
56220,65900
55840,65880
56200,65780
55800,65800
56160,65640
55800,65720
56040,65540
55720,65680
55900,65480
55620,65620
55760,65440
55540,65620
55560,65460
55440,65620
55440,65540
55320,65640
55200,65580
55200,65580
" /> 
</g>
<g style="fill:#9F0000; fill-opacity:0.0; 
stroke:#9F0000; stroke-width:0; stroke-opacity:1; 
stroke-linecap:round; stroke-linejoin:round;">
</g>
<g style="fill:#9F0000; fill-opacity:0.0; 
stroke:#9F0000; stroke-width:60; stroke-opacity:1; 
stroke-linecap:round; stroke-linejoin:round;">
<rect x="53500" y="25000" width="6000" height="3000" rx="0" />
<path d="M56500 28000
L56500 31000
" />
</g>
<g style="fill:#009F9F; fill-opacity:0.0; 
stroke:#009F9F; stroke-width:60; stroke-opacity:1; 
stroke-linecap:round; stroke-linejoin:round;">
<path d="M55880 29880
L55850 29930
L55850 30000
L55880 30070
L55920 30120
L55970 30140
L56070 30160
L56140 30160
L56230 30140
L56280 30120
L56330 30070
L56350 30000
L56350 29950
L56330 29880
L56300 29860
L56140 29860
L56140 29950
" />
<path d="M56350 29640
L55850 29640
L56350 29360
L55850 29360
" />
<path d="M56350 29120
L55850 29120
L55850 29000
L55880 28930
L55920 28880
L55970 28860
L56070 28840
L56140 28840
L56230 28860
L56280 28880
L56330 28930
L56350 29000
L56350 29120
" />
</g>
<g style="fill:#9F0000; fill-opacity:0.0; 
stroke:#9F0000; stroke-width:60; stroke-opacity:1; 
stroke-linecap:round; stroke-linejoin:round;">
<path d="M57050 29360
L57050 29640
" />
<path d="M57050 29500
L56550 29500
L56620 29550
L56670 29600
L56700 29640
" />
<path d="M53500 26500
L50500 26500
" />
</g>
<g style="fill:#009F9F; fill-opacity:0.0; 
stroke:#009F9F; stroke-width:60; stroke-opacity:1; 
stroke-linecap:round; stroke-linejoin:round;">
<path d="M51520 25850
L51520 26260
L51540 26300
L51570 26330
L51610 26350
L51710 26350
L51760 26330
L51780 26300
L51800 26260
L51800 25850
" />
<path d="M52040 26350
L52040 26020
" />
<path d="M52040 25850
L52020 25880
L52040 25900
L52060 25880
L52040 25850
L52040 25900
" />
<path d="M52280 26020
L52280 26350
" />
<path d="M52280 26070
L52300 26040
L52350 26020
L52420 26020
L52470 26040
L52490 26090
L52490 26350
" />
</g>
<g style="fill:#9F0000; fill-opacity:0.0; 
stroke:#9F0000; stroke-width:60; stroke-opacity:1; 
stroke-linecap:round; stroke-linejoin:round;">
<path d="M51860 26600
L51880 26580
L51930 26550
L52050 26550
L52090 26580
L52120 26600
L52140 26650
L52140 26700
L52120 26770
L51830 27050
L52140 27050
" />
<path d="M59500 26500
L62500 26500
" />
</g>
<g style="fill:#009F9F; fill-opacity:0.0; 
stroke:#009F9F; stroke-width:60; stroke-opacity:1; 
stroke-linecap:round; stroke-linejoin:round;">
<path d="M60270 25850
L60270 26260
L60290 26300
L60320 26330
L60360 26350
L60460 26350
L60510 26330
L60530 26300
L60550 26260
L60550 25850
" />
<path d="M60860 26350
L60810 26330
L60790 26300
L60770 26260
L60770 26110
L60790 26070
L60810 26040
L60860 26020
L60930 26020
L60980 26040
L61000 26070
L61030 26110
L61030 26260
L61000 26300
L60980 26330
L60930 26350
L60860 26350
" />
<path d="M61450 26020
L61450 26350
" />
<path d="M61240 26020
L61240 26280
L61260 26330
L61310 26350
L61380 26350
L61430 26330
L61450 26300
" />
<path d="M61620 26020
L61810 26020
" />
<path d="M61690 25850
L61690 26280
L61710 26330
L61760 26350
L61810 26350
" />
</g>
<g style="fill:#9F0000; fill-opacity:0.0; 
stroke:#9F0000; stroke-width:60; stroke-opacity:1; 
stroke-linecap:round; stroke-linejoin:round;">
<path d="M60830 26550
L61140 26550
L60970 26740
L61050 26740
L61090 26770
L61120 26790
L61140 26840
L61140 26960
L61120 27000
L61090 27030
L61050 27050
L60900 27050
L60860 27030
L60830 27000
" />
</g>
<g style="fill:#009F9F; fill-opacity:0.0; 
stroke:#009F9F; stroke-width:50; stroke-opacity:1; 
stroke-linecap:round; stroke-linejoin:round;">
<path d="M59210 29600
L59210 29300
" />
<path d="M59520 29570
L59510 29590
L59470 29600
L59440 29600
L59390 29590
L59370 29560
L59350 29530
L59340 29470
L59340 29430
L59350 29370
L59370 29340
L59390 29320
L59440 29300
L59470 29300
L59510 29320
L59520 29330
" />
<path d="M59810 29600
L59640 29600
" />
<path d="M59720 29600
L59720 29300
L59690 29340
L59670 29370
L59640 29390
" />
<path d="M55810 24100
L55670 24100
L55670 23800
" />
<path d="M55910 24100
L55910 23800
L56010 24020
L56110 23800
L56110 24100
" />
<path d="M56220 23800
L56420 23800
L56290 24100
" />
<path d="M56560 24100
L56610 24100
L56640 24090
L56660 24070
L56680 24030
L56700 23970
L56700 23860
L56680 23830
L56670 23820
L56640 23800
L56580 23800
L56560 23820
L56540 23830
L56530 23860
L56530 23930
L56540 23960
L56560 23970
L56580 23990
L56640 23990
L56670 23970
L56680 23960
L56700 23930
" />
<path d="M56800 23800
L57000 24100
" />
<path d="M57000 23800
L56800 24100
" />
<path d="M57090 23800
L57290 24100
" />
<path d="M57290 23800
L57090 24100
" />
<path d="M57370 23800
L57540 23800
" />
<path d="M57450 24100
L57450 23800
" />
<path d="M57700 23960
L57700 24100
" />
<path d="M57600 23800
L57700 23960
L57800 23800
" />
<path d="M57900 24100
L57900 23800
L58020 23800
L58040 23820
L58060 23830
L58070 23860
L58070 23900
L58060 23930
L58040 23940
L58020 23960
L57900 23960
" />
<path d="M58200 23940
L58300 23940
" />
<path d="M58340 24100
L58200 24100
L58200 23800
L58340 23800
" />
</g>
<g style="fill:#009F9F; fill-opacity:0.0; 
stroke:#009F9F; stroke-width:60; stroke-opacity:1; 
stroke-linecap:round; stroke-linejoin:round;">
</g>
<g style="fill:#0000FF; fill-opacity:0.0; 
stroke:#0000FF; stroke-width:60; stroke-opacity:1; 
stroke-linecap:round; stroke-linejoin:round;">
<path d="M76590 74740
L76990 74740
L76730 75340
" />
<path d="M77240 75340
L77360 75340
L77410 75310
L77440 75290
L77500 75200
L77530 75090
L77530 74860
L77500 74800
L77470 74770
L77410 74740
L77300 74740
L77240 74770
L77210 74800
L77180 74860
L77180 75000
L77210 75060
L77240 75090
L77300 75110
L77410 75110
L77470 75090
L77500 75060
L77530 75000
" />
<path d="M77730 75340
L78040 74940
" />
<path d="M77730 74940
L78040 75340
" />
<path d="M78220 75340
L78530 74940
" />
<path d="M78220 74940
L78530 75340
" />
<path d="M79600 74740
L79940 74740
" />
<path d="M79770 75340
L79770 74740
" />
<path d="M80090 74940
L80230 75340
" />
<path d="M80370 74940
L80230 75340
L80170 75490
L80140 75510
L80090 75540
" />
<path d="M80600 74940
L80600 75540
" />
<path d="M80600 74970
L80660 74940
L80770 74940
L80830 74970
L80860 75000
L80890 75060
L80890 75230
L80860 75290
L80830 75310
L80770 75340
L80660 75340
L80600 75310
" />
<path d="M81370 75310
L81310 75340
L81200 75340
L81140 75310
L81110 75260
L81110 75030
L81140 74970
L81200 74940
L81310 74940
L81370 74970
L81400 75030
L81400 75090
L81110 75140
" />
<path d="M82460 75340
L82260 75060
" />
<path d="M82110 75340
L82110 74740
L82340 74740
L82400 74770
L82430 74800
L82460 74860
L82460 74940
L82430 75000
L82400 75030
L82340 75060
L82110 75060
" />
<path d="M82940 75310
L82880 75340
L82770 75340
L82710 75310
L82680 75260
L82680 75030
L82710 74970
L82770 74940
L82880 74940
L82940 74970
L82970 75030
L82970 75090
L82680 75140
" />
<path d="M83480 74940
L83480 75430
L83450 75490
L83420 75510
L83370 75540
L83280 75540
L83220 75510
" />
<path d="M83480 75310
L83420 75340
L83310 75340
L83250 75310
L83220 75290
L83190 75230
L83190 75060
L83220 75000
L83250 74970
L83310 74940
L83420 74940
L83480 74970
" />
<path d="M84020 74940
L84020 75340
" />
<path d="M83760 74940
L83760 75260
L83790 75310
L83850 75340
L83930 75340
L83990 75310
L84020 75290
" />
<path d="M84390 75340
L84330 75310
L84300 75260
L84300 74740
" />
<path d="M84870 75340
L84870 75030
L84840 74970
L84780 74940
L84670 74940
L84610 74970
" />
<path d="M84870 75310
L84810 75340
L84670 75340
L84610 75310
L84580 75260
L84580 75200
L84610 75140
L84670 75110
L84810 75110
L84870 75090
" />
<path d="M85070 74940
L85300 74940
" />
<path d="M85150 74740
L85150 75260
L85180 75310
L85240 75340
L85300 75340
" />
<path d="M85580 75340
L85520 75310
L85490 75290
L85460 75230
L85460 75060
L85490 75000
L85520 74970
L85580 74940
L85660 74940
L85720 74970
L85750 75000
L85780 75060
L85780 75230
L85750 75290
L85720 75310
L85660 75340
L85580 75340
" />
<path d="M86030 75340
L86030 74940
" />
<path d="M86030 75060
L86060 75000
L86090 74970
L86150 74940
L86200 74940
" />
<path d="M86400 75290
L86430 75310
L86400 75340
L86370 75310
L86400 75290
L86400 75340
" />
<path d="M87150 75340
L87150 74740
L87350 75170
L87550 74740
L87550 75340
" />
<path d="M87930 75340
L87870 75310
L87840 75290
L87810 75230
L87810 75060
L87840 75000
L87870 74970
L87930 74940
L88010 74940
L88070 74970
L88100 75000
L88130 75060
L88130 75230
L88100 75290
L88070 75310
L88010 75340
L87930 75340
" />
<path d="M88640 75340
L88640 74740
" />
<path d="M88640 75310
L88580 75340
L88470 75340
L88410 75310
L88380 75290
L88350 75230
L88350 75060
L88380 75000
L88410 74970
L88470 74940
L88580 74940
L88640 74970
" />
<path d="M88920 75290
L88950 75310
L88920 75340
L88890 75310
L88920 75290
L88920 75340
" />
<path d="M89410 75030
L89500 75060
L89530 75090
L89560 75140
L89560 75230
L89530 75290
L89500 75310
L89440 75340
L89210 75340
L89210 74740
L89410 74740
L89470 74770
L89500 74800
L89530 74860
L89530 74910
L89500 74970
L89470 75000
L89410 75030
L89210 75030
" />
<path d="M89840 75310
L89840 75340
L89810 75400
L89780 75430
" />
<path d="M90910 75340
L90710 75060
" />
<path d="M90560 75340
L90560 74740
L90790 74740
L90850 74770
L90880 74800
L90910 74860
L90910 74940
L90880 75000
L90850 75030
L90790 75060
L90560 75060
" />
<path d="M91390 75310
L91330 75340
L91220 75340
L91160 75310
L91130 75260
L91130 75030
L91160 74970
L91220 74940
L91330 74940
L91390 74970
L91420 75030
L91420 75090
L91130 75140
" />
<path d="M91620 74940
L91760 75340
L91900 74940
" />
<path d="M92130 75290
L92160 75310
L92130 75340
L92100 75310
L92130 75290
L92130 75340
" />
<path d="M92390 75170
L92680 75170
" />
<path d="M92340 75340
L92540 74740
L92740 75340
" />
<path d="M93710 75340
L93360 75340
" />
<path d="M93540 75340
L93540 74740
L93480 74830
L93420 74890
L93360 74910
" />
<path d="M93990 75340
L94110 75340
L94160 75310
L94190 75290
L94250 75200
L94280 75090
L94280 74860
L94250 74800
L94220 74770
L94160 74740
L94050 74740
L93990 74770
L93960 74800
L93930 74860
L93930 75000
L93960 75060
L93990 75090
L94050 75110
L94160 75110
L94220 75090
L94250 75060
L94280 75000
" />
<path d="M94500 75170
L94790 75170
" />
<path d="M94450 75340
L94650 74740
L94850 75340
" />
<path d="M95040 74940
L95040 75540
" />
<path d="M95040 74970
L95100 74940
L95210 74940
L95270 74970
L95300 75000
L95330 75060
L95330 75230
L95300 75290
L95270 75310
L95210 75340
L95100 75340
L95040 75310
" />
<path d="M95580 75340
L95580 74940
" />
<path d="M95580 75060
L95610 75000
L95640 74970
L95700 74940
L95750 74940
" />
<path d="M95920 74800
L95950 74770
L96010 74740
L96150 74740
L96210 74770
L96240 74800
L96270 74860
L96270 74910
L96240 75000
L95900 75340
L96270 75340
" />
<path d="M96640 74740
L96690 74740
L96750 74770
L96780 74800
L96810 74860
L96840 74970
L96840 75110
L96810 75230
L96780 75290
L96750 75310
L96690 75340
L96640 75340
L96580 75310
L96550 75290
L96520 75230
L96490 75110
L96490 74970
L96520 74860
L96550 74800
L96580 74770
L96640 74740
" />
<path d="M97410 75340
L97060 75340
" />
<path d="M97240 75340
L97240 74740
L97180 74830
L97120 74890
L97060 74910
" />
<path d="M97980 75340
L97630 75340
" />
<path d="M97810 75340
L97810 74740
L97750 74830
L97690 74890
L97630 74910
" />
</g>
<g style="fill:#0000FF; fill-opacity:0.0; 
stroke:#0000FF; stroke-width:120; stroke-opacity:1; 
stroke-linecap:round; stroke-linejoin:round;">
<path d="M14140 72670
L14430 72670
" />
<path d="M14070 72840
L14340 72240
L14470 72840
" />
<path d="M14970 72440
L14920 72840
" />
<path d="M14710 72440
L14670 72760
L14690 72810
L14750 72840
L14830 72840
L14890 72810
L14920 72790
" />
<path d="M15170 72440
L15400 72440
" />
<path d="M15270 72240
L15210 72760
L15230 72810
L15290 72840
L15350 72840
" />
<path d="M15540 72840
L15610 72240
" />
<path d="M15800 72840
L15840 72530
L15810 72470
L15760 72440
L15680 72440
L15610 72470
L15580 72500
" />
<path d="M16170 72840
L16110 72810
L16080 72790
L16060 72730
L16080 72560
L16120 72500
L16150 72470
L16220 72440
L16300 72440
L16350 72470
L16380 72500
L16400 72560
L16380 72730
L16340 72790
L16310 72810
L16250 72840
L16170 72840
" />
<path d="M16620 72840
L16670 72440
" />
<path d="M16650 72560
L16690 72500
L16720 72470
L16790 72440
L16840 72440
" />
<path d="M16990 72790
L17020 72810
L16990 72840
L16960 72810
L16990 72790
L16990 72840
" />
<path d="M17030 72470
L17060 72500
L17030 72530
L17000 72500
L17030 72470
L17030 72530
" />
<path d="M17980 72530
L18060 72560
L18090 72590
L18110 72640
L18100 72730
L18060 72790
L18030 72810
L17970 72840
L17740 72840
L17810 72240
L18010 72240
L18070 72270
L18100 72300
L18120 72360
L18110 72410
L18070 72470
L18040 72500
L17980 72530
L17780 72530
" />
<path d="M18570 72810
L18510 72840
L18400 72840
L18340 72810
L18320 72760
L18350 72530
L18380 72470
L18450 72440
L18560 72440
L18610 72470
L18640 72530
L18630 72590
L18330 72640
" />
<path d="M18850 72840
L18900 72440
" />
<path d="M18880 72560
L18920 72500
L18950 72470
L19020 72440
L19070 72440
" />
<path d="M19270 72440
L19220 72840
" />
<path d="M19260 72500
L19290 72470
L19360 72440
L19440 72440
L19490 72470
L19520 72530
L19480 72840
" />
<path d="M20020 72840
L20090 72240
" />
<path d="M20020 72810
L19960 72840
L19850 72840
L19790 72810
L19760 72790
L19740 72730
L19760 72560
L19800 72500
L19830 72470
L19900 72440
L20010 72440
L20060 72470
" />
<path d="M20780 72240
L20850 72840
L21010 72410
L21080 72840
L21290 72240
" />
<path d="M21450 72840
L21500 72440
" />
<path d="M21520 72240
L21490 72270
L21520 72300
L21550 72270
L21520 72240
L21520 72300
" />
<path d="M21970 72810
L21910 72840
L21800 72840
L21740 72810
L21720 72760
L21750 72530
L21780 72470
L21850 72440
L21960 72440
L22010 72470
L22040 72530
L22030 72590
L21730 72640
" />
<path d="M22250 72840
L22320 72240
" />
<path d="M22290 72470
L22360 72440
L22470 72440
L22520 72470
L22550 72500
L22570 72560
L22550 72730
L22510 72790
L22480 72810
L22420 72840
L22310 72840
L22250 72810
" />
<path d="M23100 72440
L23050 72840
" />
<path d="M22840 72440
L22800 72760
L22820 72810
L22880 72840
L22960 72840
L23020 72810
L23050 72790
" />
<path d="M23300 72810
L23360 72840
L23480 72840
L23530 72810
L23570 72760
L23570 72730
L23550 72670
L23500 72640
L23410 72640
L23360 72610
L23330 72560
L23340 72530
L23370 72470
L23440 72440
L23530 72440
L23570 72470
" />
<path d="M23850 72810
L23850 72840
L23810 72900
L23780 72930
" />
<path d="M24640 72240
L24580 72730
L24600 72790
L24630 72810
L24690 72840
L24800 72840
L24860 72810
L24890 72790
L24930 72730
L24990 72240
" />
<path d="M25430 72810
L25370 72840
L25260 72840
L25200 72810
L25180 72760
L25210 72530
L25240 72470
L25310 72440
L25420 72440
L25470 72470
L25500 72530
L25490 72590
L25190 72640
" />
<path d="M25970 72840
L26040 72240
" />
<path d="M25970 72810
L25910 72840
L25800 72840
L25740 72810
L25710 72790
L25690 72730
L25710 72560
L25750 72500
L25780 72470
L25850 72440
L25960 72440
L26010 72470
" />
<path d="M26480 72810
L26420 72840
L26310 72840
L26250 72810
L26230 72760
L26260 72530
L26290 72470
L26360 72440
L26470 72440
L26520 72470
L26550 72530
L26540 72590
L26240 72640
" />
<path d="M26760 72840
L26810 72440
" />
<path d="M26800 72500
L26830 72470
L26900 72440
L26980 72440
L27030 72470
L27060 72530
L27020 72840
" />
<path d="M27060 72530
L27090 72470
L27160 72440
L27240 72440
L27290 72470
L27320 72530
L27280 72840
" />
<path d="M28530 72210
L27920 72990
" />
<path d="M29500 72270
L29440 72240
L29350 72240
L29270 72270
L29200 72330
L29160 72390
L29120 72500
L29110 72590
L29130 72700
L29150 72760
L29200 72810
L29280 72840
L29340 72840
L29430 72810
L29460 72790
L29490 72590
L29370 72590
" />
<path d="M29940 72810
L29880 72840
L29770 72840
L29710 72810
L29690 72760
L29720 72530
L29750 72470
L29820 72440
L29930 72440
L29980 72470
L30010 72530
L30000 72590
L29700 72640
" />
<path d="M30220 72840
L30270 72440
" />
<path d="M30250 72560
L30290 72500
L30320 72470
L30390 72440
L30440 72440
" />
<path d="M30590 72840
L30640 72440
" />
<path d="M30630 72500
L30660 72470
L30730 72440
L30810 72440
L30860 72470
L30890 72530
L30850 72840
" />
<path d="M30890 72530
L30920 72470
L30990 72440
L31070 72440
L31120 72470
L31150 72530
L31110 72840
" />
<path d="M31650 72840
L31690 72530
L31660 72470
L31610 72440
L31500 72440
L31430 72470
" />
<path d="M31650 72810
L31590 72840
L31450 72840
L31390 72810
L31370 72760
L31380 72700
L31410 72640
L31480 72610
L31620 72610
L31680 72590
" />
<path d="M31980 72440
L31930 72840
" />
<path d="M31970 72500
L32000 72470
L32070 72440
L32150 72440
L32200 72470
L32230 72530
L32190 72840
" />
<path d="M32470 72440
L32560 72840
" />
<path d="M32750 72440
L32560 72840
L32480 72990
L32450 73010
L32390 73040
" />
<path d="M32960 72810
L32960 72840
L32920 72900
L32890 72930
" />
<path d="M34000 72840
L33650 72840
" />
<path d="M33830 72840
L33900 72240
L33830 72330
L33760 72390
L33700 72410
" />
<path d="M34280 72840
L34400 72840
L34450 72810
L34480 72790
L34560 72700
L34600 72590
L34630 72360
L34610 72300
L34580 72270
L34520 72240
L34410 72240
L34350 72270
L34320 72300
L34280 72360
L34260 72500
L34280 72560
L34310 72590
L34370 72610
L34480 72610
L34540 72590
L34570 72560
L34610 72500
" />
<path d="M34790 72440
L35020 72440
" />
<path d="M34890 72240
L34830 72760
L34850 72810
L34910 72840
L34970 72840
" />
<path d="M35160 72840
L35230 72240
" />
<path d="M35420 72840
L35460 72530
L35430 72470
L35380 72440
L35300 72440
L35230 72470
L35200 72500
" />
<path d="M35700 72790
L35730 72810
L35700 72840
L35670 72810
L35700 72790
L35700 72840
" />
<path d="M36440 72670
L36730 72670
" />
<path d="M36370 72840
L36640 72240
L36770 72840
" />
<path d="M37010 72440
L36930 73040
" />
<path d="M37000 72470
L37070 72440
L37180 72440
L37230 72470
L37260 72500
L37280 72560
L37260 72730
L37220 72790
L37190 72810
L37130 72840
L37020 72840
L36960 72810
" />
<path d="M37500 72840
L37550 72440
" />
<path d="M37530 72560
L37570 72500
L37600 72470
L37670 72440
L37720 72440
" />
<path d="M38370 72300
L38400 72270
L38460 72240
L38600 72240
L38660 72270
L38690 72300
L38710 72360
L38700 72410
L38660 72500
L38280 72840
L38650 72840
" />
<path d="M39090 72240
L39140 72240
L39200 72270
L39230 72300
L39250 72360
L39260 72470
L39250 72610
L39200 72730
L39160 72790
L39130 72810
L39070 72840
L39020 72840
L38960 72810
L38930 72790
L38910 72730
L38900 72610
L38910 72470
L38960 72360
L39000 72300
L39030 72270
L39090 72240
" />
<path d="M39790 72840
L39440 72840
" />
<path d="M39620 72840
L39690 72240
L39620 72330
L39550 72390
L39490 72410
" />
<path d="M40360 72840
L40010 72840
" />
<path d="M40190 72840
L40260 72240
L40190 72330
L40120 72390
L40060 72410
" />
</g>
<g style="fill:#0000FF; fill-opacity:0.0; 
stroke:#0000FF; stroke-width:60; stroke-opacity:1; 
stroke-linecap:round; stroke-linejoin:round;">
</g>
<g style="fill:#7F7F00; fill-opacity:0.0; 
stroke:#7F7F00; stroke-width:60; stroke-opacity:1; 
stroke-linecap:round; stroke-linejoin:round;">
<path d="M77220 38170
L77160 38140
L77070 38140
L76990 38170
L76930 38230
L76900 38290
L76870 38400
L76870 38490
L76900 38600
L76930 38660
L76990 38710
L77070 38740
L77130 38740
L77220 38710
L77250 38690
L77250 38490
L77130 38490
" />
<path d="M77500 38740
L77500 38140
L77850 38740
L77850 38140
" />
<path d="M78130 38740
L78130 38140
L78280 38140
L78360 38170
L78420 38230
L78450 38290
L78480 38400
L78480 38490
L78450 38600
L78420 38660
L78360 38710
L78280 38740
L78130 38740
" />
</g>
<g style="fill:#7F7F00; fill-opacity:0.0; 
stroke:#7F7F00; stroke-width:100; stroke-opacity:1; 
stroke-linecap:round; stroke-linejoin:round;">
<polyline fill="none;"
points="76600,38500
76300,38200
76000,38200
76000,38800
76300,38800
76600,38500
" /> 
</g>
<g style="fill:#7F7F00; fill-opacity:0.0; 
stroke:#7F7F00; stroke-width:60; stroke-opacity:1; 
stroke-linecap:round; stroke-linejoin:round;">
<path d="M76870 26710
L76960 26740
L77100 26740
L77160 26710
L77190 26690
L77220 26630
L77220 26570
L77190 26510
L77160 26490
L77100 26460
L76990 26430
L76930 26400
L76900 26370
L76870 26310
L76870 26260
L76900 26200
L76930 26170
L76990 26140
L77130 26140
L77220 26170
" />
<path d="M77390 26340
L77620 26340
" />
<path d="M77470 26140
L77470 26660
L77500 26710
L77560 26740
L77620 26740
" />
<path d="M78070 26740
L78070 26430
L78040 26370
L77980 26340
L77870 26340
L77810 26370
" />
<path d="M78070 26710
L78010 26740
L77870 26740
L77810 26710
L77780 26660
L77780 26600
L77810 26540
L77870 26510
L78010 26510
L78070 26490
" />
<path d="M78350 26740
L78350 26140
" />
<path d="M78350 26370
L78410 26340
L78520 26340
L78580 26370
L78610 26400
L78640 26460
L78640 26630
L78610 26690
L78580 26710
L78520 26740
L78410 26740
L78350 26710
" />
</g>
<g style="fill:#7F7F00; fill-opacity:0.0; 
stroke:#7F7F00; stroke-width:100; stroke-opacity:1; 
stroke-linecap:round; stroke-linejoin:round;">
<polyline fill="none;"
points="76600,26500
76300,26200
76000,26200
76000,26800
76300,26800
76600,26500
" /> 
</g>
<g style="fill:#7F7F00; fill-opacity:0.0; 
stroke:#7F7F00; stroke-width:60; stroke-opacity:1; 
stroke-linecap:round; stroke-linejoin:round;">
<path d="M35610 26740
L35610 26140
L35760 26140
L35840 26170
L35900 26230
L35930 26290
L35960 26400
L35960 26490
L35930 26600
L35900 26660
L35840 26710
L35760 26740
L35610 26740
" />
<path d="M36560 26690
L36530 26710
L36440 26740
L36380 26740
L36300 26710
L36240 26660
L36210 26600
L36180 26490
L36180 26400
L36210 26290
L36240 26230
L36300 26170
L36380 26140
L36440 26140
L36530 26170
L36560 26200
" />
<path d="M36810 26740
L36810 26340
" />
<path d="M36810 26140
L36780 26170
L36810 26200
L36840 26170
L36810 26140
L36810 26200
" />
<path d="M37100 26340
L37100 26740
" />
<path d="M37100 26400
L37130 26370
L37190 26340
L37270 26340
L37330 26370
L37360 26430
L37360 26740
" />
<path d="M37640 26510
L38100 26510
" />
</g>
<g style="fill:#7F7F00; fill-opacity:0.0; 
stroke:#7F7F00; stroke-width:100; stroke-opacity:1; 
stroke-linecap:round; stroke-linejoin:round;">
<polyline fill="none;"
points="39000,26500
38700,26200
38400,26200
38400,26800
38700,26800
39000,26500
" /> 
</g>
<g style="fill:#7F7F00; fill-opacity:0.0; 
stroke:#7F7F00; stroke-width:60; stroke-opacity:1; 
stroke-linecap:round; stroke-linejoin:round;">
<path d="M35610 38740
L35610 38140
L35760 38140
L35840 38170
L35900 38230
L35930 38290
L35960 38400
L35960 38490
L35930 38600
L35900 38660
L35840 38710
L35760 38740
L35610 38740
" />
<path d="M36560 38690
L36530 38710
L36440 38740
L36380 38740
L36300 38710
L36240 38660
L36210 38600
L36180 38490
L36180 38400
L36210 38290
L36240 38230
L36300 38170
L36380 38140
L36440 38140
L36530 38170
L36560 38200
" />
<path d="M36810 38740
L36810 38340
" />
<path d="M36810 38140
L36780 38170
L36810 38200
L36840 38170
L36810 38140
L36810 38200
" />
<path d="M37100 38340
L37100 38740
" />
<path d="M37100 38400
L37130 38370
L37190 38340
L37270 38340
L37330 38370
L37360 38430
L37360 38740
" />
<path d="M37640 38510
L38100 38510
" />
<path d="M37870 38740
L37870 38290
" />
</g>
<g style="fill:#7F7F00; fill-opacity:0.0; 
stroke:#7F7F00; stroke-width:100; stroke-opacity:1; 
stroke-linecap:round; stroke-linejoin:round;">
<polyline fill="none;"
points="39000,38500
38700,38200
38400,38200
38400,38800
38700,38800
39000,38500
" /> 
</g>
<g style="fill:#7F7F00; fill-opacity:0.0; 
stroke:#7F7F00; stroke-width:0; stroke-opacity:1; 
stroke-linecap:round; stroke-linejoin:round;">
</g>
<g style="fill:#9F0000; fill-opacity:0.0; 
stroke:#9F0000; stroke-width:60; stroke-opacity:1; 
stroke-linecap:round; stroke-linejoin:round;">
<polyline fill="none;"
points="43850,33550
43850,33550
" /> 
<polyline fill="none;"
points="43700,33500
43700,33500
" /> 
<polyline fill="none;"
points="43700,33500
43700,33500
" /> 
<polyline fill="none;"
points="43700,33500
43700,33500
" /> 
<polyline fill="none;"
points="43800,33750
43800,33800
43800,33800
" /> 
<polyline fill="none;"
points="43800,33750
43750,33750
43750,33750
" /> 
<polyline fill="none;"
points="43800,33650
43750,33650
43750,33650
" /> 
<polyline fill="none;"
points="43800,33600
43750,33600
43750,33600
" /> 
<polyline fill="none;"
points="43550,33550
43550,33500
43550,33500
" /> 
<polyline fill="none;"
points="43600,33550
43600,33500
43600,33500
" /> 
<polyline fill="none;"
points="43650,33550
43650,33500
43650,33500
" /> 
<polyline fill="none;"
points="43700,33550
43700,33500
43700,33500
" /> 
<polyline fill="none;"
points="43750,33550
43500,33550
43500,33550
" /> 
<polyline fill="none;"
points="43800,33550
43800,33750
43800,33750
" /> 
<polyline fill="none;"
points="43800,33550
43750,33550
43750,33550
" /> 
<polyline fill="none;"
points="43800,33550
43800,33500
43800,33500
" /> 
<polyline fill="none;"
points="43850,33550
43850,33500
43850,33500
" /> 
<polyline fill="none;"
points="43850,33500
43850,33550
43850,33550
" /> 
<polyline fill="none;"
points="44000,33500
44000,33550
44000,33550
" /> 
<polyline fill="none;"
points="44000,33500
44050,33500
44050,33500
" /> 
<polyline fill="none;"
points="43750,33450
43750,33450
43750,33450
" /> 
<polyline fill="none;"
points="43750,33450
43750,33450
43750,33450
" /> 
<polyline fill="none;"
points="43800,33450
43750,33450
43750,33450
" /> 
<polyline fill="none;"
points="43800,33400
43750,33400
43750,33400
" /> 
<polyline fill="none;"
points="43800,33350
43750,33350
43750,33350
" /> 
<polyline fill="none;"
points="43800,33300
43750,33300
43750,33300
" /> 
<polyline fill="none;"
points="43750,33700
43750,33700
43800,33700
43800,33700
" /> 
<polyline fill="none;"
points="43850,33550
43850,33500
43850,33500
43850,33500
" /> 
<polyline fill="none;"
points="43900,33550
43900,33500
43900,33500
43900,33500
" /> 
<polyline fill="none;"
points="43950,33550
43950,33500
43950,33500
43950,33500
" /> 
<polyline fill="none;"
points="43800,33500
43500,33500
43500,33550
43500,33550
" /> 
<polyline fill="none;"
points="44050,33500
44050,33550
43800,33550
43800,33550
" /> 
<polyline fill="none;"
points="43800,33800
43750,33800
43750,33250
43800,33250
43800,33250
" /> 
<polyline fill="none;"
points="43800,33250
43800,33500
44000,33500
44000,33500
44000,33500
44000,33500
" /> 
<path d="M43000 33000
L43000 34500
" />
<path d="M43000 32000
L43000 30500
" />
</g>
<g style="fill:#9F0000; fill-opacity:1.0; 
stroke:#9F0000; stroke-width:60; stroke-opacity:1; 
stroke-linecap:round; stroke-linejoin:round;">
<polyline style="fill-rule:evenodd;"
points="43000,33000
43000,32750
43000,32750
" /> 
<polyline style="fill-rule:evenodd;"
points="44000,32750
42000,32750
42000,32750
" /> 
<polyline style="fill-rule:evenodd;"
points="42000,32250
42250,32250
42250,32250
" /> 
<polyline style="fill-rule:evenodd;"
points="42250,32250
42250,32250
42250,32250
" /> 
<polyline style="fill-rule:evenodd;"
points="44000,32250
42250,32250
42250,32250
" /> 
<polyline style="fill-rule:evenodd;"
points="43000,32000
43000,32250
43000,32250
" /> 
</g>
<g style="fill:#009F9F; fill-opacity:0.0; 
stroke:#009F9F; stroke-width:50; stroke-opacity:1; 
stroke-linecap:round; stroke-linejoin:round;">
<path d="M44610 32540
L44630 32550
L44640 32590
L44640 32620
L44630 32670
L44600 32690
L44570 32710
L44510 32720
L44470 32720
L44410 32710
L44380 32690
L44360 32670
L44340 32620
L44340 32590
L44360 32550
L44370 32540
" />
<path d="M44640 32250
L44640 32420
" />
<path d="M44640 32340
L44340 32340
L44380 32370
L44410 32390
L44430 32420
" />
<path d="M41610 37370
L41630 37380
L41640 37420
L41640 37450
L41630 37500
L41600 37520
L41570 37540
L41510 37550
L41470 37550
L41410 37540
L41380 37520
L41360 37500
L41340 37450
L41340 37420
L41360 37380
L41370 37370
" />
<path d="M41560 37250
L41560 37110
" />
<path d="M41640 37280
L41340 37180
L41640 37080
" />
<path d="M41640 36980
L41340 36980
L41340 36860
L41360 36840
L41370 36820
L41400 36810
L41440 36810
L41470 36820
L41480 36840
L41500 36860
L41500 36980
" />
<path d="M41560 36690
L41560 36550
" />
<path d="M41640 36720
L41340 36620
L41640 36520
" />
<path d="M41610 36250
L41630 36260
L41640 36300
L41640 36330
L41630 36380
L41600 36400
L41570 36420
L41510 36430
L41470 36430
L41410 36420
L41380 36400
L41360 36380
L41340 36330
L41340 36300
L41360 36260
L41370 36250
" />
<path d="M41640 36120
L41340 36120
" />
<path d="M41340 36020
L41340 35850
" />
<path d="M41640 35940
L41340 35940
" />
<path d="M41340 35690
L41340 35630
L41360 35610
L41380 35580
L41440 35560
L41540 35560
L41600 35580
L41630 35610
L41640 35630
L41640 35690
L41630 35720
L41600 35750
L41540 35760
L41440 35760
L41380 35750
L41360 35720
L41340 35690
" />
<path d="M41640 35270
L41500 35370
" />
<path d="M41640 35440
L41340 35440
L41340 35320
L41360 35300
L41370 35280
L41400 35270
L41440 35270
L41470 35280
L41480 35300
L41500 35320
L41500 35440
" />
<path d="M41670 35210
L41670 34980
" />
<path d="M41640 34910
L41340 34910
L41340 34790
L41360 34770
L41370 34750
L41400 34740
L41440 34740
L41470 34750
L41480 34770
L41500 34790
L41500 34910
" />
<path d="M41340 34550
L41340 34490
L41360 34470
L41380 34440
L41440 34420
L41540 34420
L41600 34440
L41630 34470
L41640 34490
L41640 34550
L41630 34580
L41600 34610
L41540 34620
L41440 34620
L41380 34610
L41360 34580
L41340 34550
" />
<path d="M41640 34160
L41640 34300
L41340 34300
" />
<path d="M41560 34070
L41560 33930
" />
<path d="M41640 34100
L41340 34000
L41640 33900
" />
<path d="M41640 33630
L41500 33730
" />
<path d="M41640 33800
L41340 33800
L41340 33680
L41360 33660
L41370 33640
L41400 33630
L41440 33630
L41470 33640
L41480 33660
L41500 33680
L41500 33800
" />
<path d="M41640 33500
L41340 33500
" />
<path d="M41630 33370
L41640 33330
L41640 33260
L41630 33230
L41610 33220
L41580 33200
L41560 33200
L41530 33220
L41510 33230
L41500 33260
L41480 33320
L41470 33340
L41460 33360
L41430 33370
L41400 33370
L41370 33360
L41360 33340
L41340 33320
L41340 33240
L41360 33200
" />
<path d="M41480 33070
L41480 32970
" />
<path d="M41640 32930
L41640 33070
L41340 33070
L41340 32930
" />
<path d="M41640 32800
L41340 32800
L41340 32730
L41360 32680
L41380 32660
L41410 32640
L41470 32630
L41510 32630
L41570 32640
L41600 32660
L41630 32680
L41640 32730
L41640 32800
" />
<path d="M41670 32570
L41670 32340
" />
<path d="M41640 32100
L41500 32200
" />
<path d="M41640 32270
L41340 32270
L41340 32150
L41360 32130
L41370 32110
L41400 32100
L41440 32100
L41470 32110
L41480 32130
L41500 32150
L41500 32270
" />
<path d="M41480 31970
L41480 31870
" />
<path d="M41640 31830
L41640 31970
L41340 31970
L41340 31830
" />
<path d="M41340 31740
L41640 31640
L41340 31540
" />
<path d="M41480 31440
L41480 31340
" />
<path d="M41640 31300
L41640 31440
L41340 31440
L41340 31300
" />
<path d="M41670 31240
L41670 31010
" />
<path d="M41640 30940
L41340 30940
L41340 30870
L41360 30820
L41380 30800
L41410 30780
L41470 30770
L41510 30770
L41570 30780
L41600 30800
L41630 30820
L41640 30870
L41640 30940
" />
<path d="M41560 30650
L41560 30510
" />
<path d="M41640 30680
L41340 30580
L41640 30480
" />
<path d="M41340 30420
L41340 30250
" />
<path d="M41640 30340
L41340 30340
" />
<path d="M41480 30150
L41480 30050
" />
<path d="M41640 30010
L41640 30150
L41340 30150
L41340 30010
" />
<path d="M41640 29720
L41640 29890
" />
<path d="M41640 29810
L41340 29810
L41380 29840
L41410 29860
L41430 29890
" />
<path d="M41340 29450
L41340 29590
L41480 29600
L41470 29590
L41460 29560
L41460 29490
L41470 29460
L41480 29450
L41510 29430
L41580 29430
L41610 29450
L41630 29460
L41640 29490
L41640 29560
L41630 29590
L41610 29600
" />
<path d="M41340 29210
L41560 29210
L41600 29230
L41630 29260
L41640 29300
L41640 29330
" />
<path d="M41340 29070
L41580 29070
L41610 29050
L41630 29040
L41640 29010
L41640 28950
L41630 28930
L41610 28910
L41580 28900
L41340 28900
" />
<path d="M41640 28760
L41340 28760
L41640 28590
L41340 28590
" />
<path d="M41370 28460
L41360 28450
L41340 28420
L41340 28350
L41360 28320
L41370 28310
L41400 28290
L41430 28290
L41470 28310
L41640 28480
L41640 28290
" />
<path d="M41340 28100
L41340 28070
L41360 28040
L41370 28030
L41400 28020
L41460 28000
L41530 28000
L41580 28020
L41610 28030
L41630 28040
L41640 28070
L41640 28100
L41630 28130
L41610 28140
L41580 28160
L41530 28170
L41460 28170
L41400 28160
L41370 28140
L41360 28130
L41340 28100
" />
<path d="M41640 27710
L41640 27880
" />
<path d="M41640 27800
L41340 27800
L41380 27830
L41410 27850
L41430 27880
" />
<path d="M41340 27520
L41340 27490
L41360 27460
L41370 27450
L41400 27440
L41460 27420
L41530 27420
L41580 27440
L41610 27450
L41630 27460
L41640 27490
L41640 27520
L41630 27550
L41610 27560
L41580 27580
L41530 27590
L41460 27590
L41400 27580
L41370 27560
L41360 27550
L41340 27520
" />
</g>
<g style="fill:#009F9F; fill-opacity:0.0; 
stroke:#009F9F; stroke-width:0; stroke-opacity:1; 
stroke-linecap:round; stroke-linejoin:round;">
</g>
<g style="fill:#9F0000; fill-opacity:0.0; 
stroke:#9F0000; stroke-width:60; stroke-opacity:1; 
stroke-linecap:round; stroke-linejoin:round;">
<polyline fill="none;"
points="71350,33550
71350,33550
" /> 
<polyline fill="none;"
points="71200,33500
71200,33500
" /> 
<polyline fill="none;"
points="71200,33500
71200,33500
" /> 
<polyline fill="none;"
points="71200,33500
71200,33500
" /> 
<polyline fill="none;"
points="71300,33750
71300,33800
71300,33800
" /> 
<polyline fill="none;"
points="71300,33750
71250,33750
71250,33750
" /> 
<polyline fill="none;"
points="71300,33650
71250,33650
71250,33650
" /> 
<polyline fill="none;"
points="71300,33600
71250,33600
71250,33600
" /> 
<polyline fill="none;"
points="71050,33550
71050,33500
71050,33500
" /> 
<polyline fill="none;"
points="71100,33550
71100,33500
71100,33500
" /> 
<polyline fill="none;"
points="71150,33550
71150,33500
71150,33500
" /> 
<polyline fill="none;"
points="71200,33550
71200,33500
71200,33500
" /> 
<polyline fill="none;"
points="71250,33550
71000,33550
71000,33550
" /> 
<polyline fill="none;"
points="71300,33550
71300,33750
71300,33750
" /> 
<polyline fill="none;"
points="71300,33550
71250,33550
71250,33550
" /> 
<polyline fill="none;"
points="71300,33550
71300,33500
71300,33500
" /> 
<polyline fill="none;"
points="71350,33550
71350,33500
71350,33500
" /> 
<polyline fill="none;"
points="71350,33500
71350,33550
71350,33550
" /> 
<polyline fill="none;"
points="71500,33500
71500,33550
71500,33550
" /> 
<polyline fill="none;"
points="71500,33500
71550,33500
71550,33500
" /> 
<polyline fill="none;"
points="71250,33450
71250,33450
71250,33450
" /> 
<polyline fill="none;"
points="71250,33450
71250,33450
71250,33450
" /> 
<polyline fill="none;"
points="71300,33450
71250,33450
71250,33450
" /> 
<polyline fill="none;"
points="71300,33400
71250,33400
71250,33400
" /> 
<polyline fill="none;"
points="71300,33350
71250,33350
71250,33350
" /> 
<polyline fill="none;"
points="71300,33300
71250,33300
71250,33300
" /> 
<polyline fill="none;"
points="71250,33700
71250,33700
71300,33700
71300,33700
" /> 
<polyline fill="none;"
points="71350,33550
71350,33500
71350,33500
71350,33500
" /> 
<polyline fill="none;"
points="71400,33550
71400,33500
71400,33500
71400,33500
" /> 
<polyline fill="none;"
points="71450,33550
71450,33500
71450,33500
71450,33500
" /> 
<polyline fill="none;"
points="71300,33500
71000,33500
71000,33550
71000,33550
" /> 
<polyline fill="none;"
points="71550,33500
71550,33550
71300,33550
71300,33550
" /> 
<polyline fill="none;"
points="71300,33800
71250,33800
71250,33250
71300,33250
71300,33250
" /> 
<polyline fill="none;"
points="71300,33250
71300,33500
71500,33500
71500,33500
71500,33500
71500,33500
" /> 
<path d="M70500 33000
L70500 34500
" />
<path d="M70500 32000
L70500 30500
" />
</g>
<g style="fill:#9F0000; fill-opacity:1.0; 
stroke:#9F0000; stroke-width:60; stroke-opacity:1; 
stroke-linecap:round; stroke-linejoin:round;">
<polyline style="fill-rule:evenodd;"
points="70500,33000
70500,32750
70500,32750
" /> 
<polyline style="fill-rule:evenodd;"
points="71500,32750
69500,32750
69500,32750
" /> 
<polyline style="fill-rule:evenodd;"
points="69500,32250
69750,32250
69750,32250
" /> 
<polyline style="fill-rule:evenodd;"
points="69750,32250
69750,32250
69750,32250
" /> 
<polyline style="fill-rule:evenodd;"
points="71500,32250
69750,32250
69750,32250
" /> 
<polyline style="fill-rule:evenodd;"
points="70500,32000
70500,32250
70500,32250
" /> 
</g>
<g style="fill:#009F9F; fill-opacity:0.0; 
stroke:#009F9F; stroke-width:50; stroke-opacity:1; 
stroke-linecap:round; stroke-linejoin:round;">
<path d="M72110 32540
L72130 32550
L72140 32590
L72140 32620
L72130 32670
L72100 32690
L72070 32710
L72010 32720
L71970 32720
L71910 32710
L71880 32690
L71860 32670
L71840 32620
L71840 32590
L71860 32550
L71870 32540
" />
<path d="M71940 32280
L72140 32280
" />
<path d="M71830 32350
L72040 32420
L72040 32240
" />
<path d="M69110 37370
L69130 37380
L69140 37420
L69140 37450
L69130 37500
L69100 37520
L69070 37540
L69010 37550
L68970 37550
L68910 37540
L68880 37520
L68860 37500
L68840 37450
L68840 37420
L68860 37380
L68870 37370
" />
<path d="M69060 37250
L69060 37110
" />
<path d="M69140 37280
L68840 37180
L69140 37080
" />
<path d="M69140 36980
L68840 36980
L68840 36860
L68860 36840
L68870 36820
L68900 36810
L68940 36810
L68970 36820
L68980 36840
L69000 36860
L69000 36980
" />
<path d="M69060 36690
L69060 36550
" />
<path d="M69140 36720
L68840 36620
L69140 36520
" />
<path d="M69110 36250
L69130 36260
L69140 36300
L69140 36330
L69130 36380
L69100 36400
L69070 36420
L69010 36430
L68970 36430
L68910 36420
L68880 36400
L68860 36380
L68840 36330
L68840 36300
L68860 36260
L68870 36250
" />
<path d="M69140 36120
L68840 36120
" />
<path d="M68840 36020
L68840 35850
" />
<path d="M69140 35940
L68840 35940
" />
<path d="M68840 35690
L68840 35630
L68860 35610
L68880 35580
L68940 35560
L69040 35560
L69100 35580
L69130 35610
L69140 35630
L69140 35690
L69130 35720
L69100 35750
L69040 35760
L68940 35760
L68880 35750
L68860 35720
L68840 35690
" />
<path d="M69140 35270
L69000 35370
" />
<path d="M69140 35440
L68840 35440
L68840 35320
L68860 35300
L68870 35280
L68900 35270
L68940 35270
L68970 35280
L68980 35300
L69000 35320
L69000 35440
" />
<path d="M69170 35210
L69170 34980
" />
<path d="M69140 34910
L68840 34910
L68840 34790
L68860 34770
L68870 34750
L68900 34740
L68940 34740
L68970 34750
L68980 34770
L69000 34790
L69000 34910
" />
<path d="M68840 34550
L68840 34490
L68860 34470
L68880 34440
L68940 34420
L69040 34420
L69100 34440
L69130 34470
L69140 34490
L69140 34550
L69130 34580
L69100 34610
L69040 34620
L68940 34620
L68880 34610
L68860 34580
L68840 34550
" />
<path d="M69140 34160
L69140 34300
L68840 34300
" />
<path d="M69060 34070
L69060 33930
" />
<path d="M69140 34100
L68840 34000
L69140 33900
" />
<path d="M69140 33630
L69000 33730
" />
<path d="M69140 33800
L68840 33800
L68840 33680
L68860 33660
L68870 33640
L68900 33630
L68940 33630
L68970 33640
L68980 33660
L69000 33680
L69000 33800
" />
<path d="M69140 33500
L68840 33500
" />
<path d="M69130 33370
L69140 33330
L69140 33260
L69130 33230
L69110 33220
L69080 33200
L69060 33200
L69030 33220
L69010 33230
L69000 33260
L68980 33320
L68970 33340
L68960 33360
L68930 33370
L68900 33370
L68870 33360
L68860 33340
L68840 33320
L68840 33240
L68860 33200
" />
<path d="M68980 33070
L68980 32970
" />
<path d="M69140 32930
L69140 33070
L68840 33070
L68840 32930
" />
<path d="M69140 32800
L68840 32800
L68840 32730
L68860 32680
L68880 32660
L68910 32640
L68970 32630
L69010 32630
L69070 32640
L69100 32660
L69130 32680
L69140 32730
L69140 32800
" />
<path d="M69170 32570
L69170 32340
" />
<path d="M69140 32100
L69000 32200
" />
<path d="M69140 32270
L68840 32270
L68840 32150
L68860 32130
L68870 32110
L68900 32100
L68940 32100
L68970 32110
L68980 32130
L69000 32150
L69000 32270
" />
<path d="M68980 31970
L68980 31870
" />
<path d="M69140 31830
L69140 31970
L68840 31970
L68840 31830
" />
<path d="M68840 31740
L69140 31640
L68840 31540
" />
<path d="M68980 31440
L68980 31340
" />
<path d="M69140 31300
L69140 31440
L68840 31440
L68840 31300
" />
<path d="M69170 31240
L69170 31010
" />
<path d="M69140 30940
L68840 30940
L68840 30870
L68860 30820
L68880 30800
L68910 30780
L68970 30770
L69010 30770
L69070 30780
L69100 30800
L69130 30820
L69140 30870
L69140 30940
" />
<path d="M69060 30650
L69060 30510
" />
<path d="M69140 30680
L68840 30580
L69140 30480
" />
<path d="M68840 30420
L68840 30250
" />
<path d="M69140 30340
L68840 30340
" />
<path d="M68980 30150
L68980 30050
" />
<path d="M69140 30010
L69140 30150
L68840 30150
L68840 30010
" />
<path d="M69140 29720
L69140 29890
" />
<path d="M69140 29810
L68840 29810
L68880 29840
L68910 29860
L68930 29890
" />
<path d="M68840 29450
L68840 29590
L68980 29600
L68970 29590
L68960 29560
L68960 29490
L68970 29460
L68980 29450
L69010 29430
L69080 29430
L69110 29450
L69130 29460
L69140 29490
L69140 29560
L69130 29590
L69110 29600
" />
<path d="M68840 29210
L69060 29210
L69100 29230
L69130 29260
L69140 29300
L69140 29330
" />
<path d="M68840 29070
L69080 29070
L69110 29050
L69130 29040
L69140 29010
L69140 28950
L69130 28930
L69110 28910
L69080 28900
L68840 28900
" />
<path d="M69140 28760
L68840 28760
L69140 28590
L68840 28590
" />
<path d="M68870 28460
L68860 28450
L68840 28420
L68840 28350
L68860 28320
L68870 28310
L68900 28290
L68930 28290
L68970 28310
L69140 28480
L69140 28290
" />
<path d="M68840 28100
L68840 28070
L68860 28040
L68870 28030
L68900 28020
L68960 28000
L69030 28000
L69080 28020
L69110 28030
L69130 28040
L69140 28070
L69140 28100
L69130 28130
L69110 28140
L69080 28160
L69030 28170
L68960 28170
L68900 28160
L68870 28140
L68860 28130
L68840 28100
" />
<path d="M69140 27710
L69140 27880
" />
<path d="M69140 27800
L68840 27800
L68880 27830
L68910 27850
L68930 27880
" />
<path d="M68840 27520
L68840 27490
L68860 27460
L68870 27450
L68900 27440
L68960 27420
L69030 27420
L69080 27440
L69110 27450
L69130 27460
L69140 27490
L69140 27520
L69130 27550
L69110 27560
L69080 27580
L69030 27590
L68960 27590
L68900 27580
L68870 27560
L68860 27550
L68840 27520
" />
</g>
<g style="fill:#009F9F; fill-opacity:0.0; 
stroke:#009F9F; stroke-width:0; stroke-opacity:1; 
stroke-linecap:round; stroke-linejoin:round;">
</g>
<g style="fill:#9F0000; fill-opacity:1.0; 
stroke:#9F0000; stroke-width:60; stroke-opacity:1; 
stroke-linecap:round; stroke-linejoin:round;">
<polyline style="fill-rule:evenodd;"
points="65500,32000
65500,32250
65500,32250
" /> 
<polyline style="fill-rule:evenodd;"
points="66500,32250
64500,32250
64500,32250
" /> 
<polyline style="fill-rule:evenodd;"
points="66500,32750
64500,32750
64500,32750
" /> 
<polyline style="fill-rule:evenodd;"
points="65500,33000
65500,32750
65500,32750
" /> 
<path d="M65500 32000
L65500 30500
" />
<path d="M65500 33000
L65500 34500
" />
</g>
<g style="fill:#009F9F; fill-opacity:0.0; 
stroke:#009F9F; stroke-width:50; stroke-opacity:1; 
stroke-linecap:round; stroke-linejoin:round;">
<path d="M67110 32550
L67130 32560
L67140 32600
L67140 32630
L67130 32680
L67100 32700
L67070 32720
L67010 32730
L66970 32730
L66910 32720
L66880 32700
L66860 32680
L66840 32630
L66840 32600
L66860 32560
L66870 32550
" />
<path d="M66840 32450
L66840 32260
L66960 32360
L66960 32320
L66970 32290
L66980 32280
L67010 32260
L67080 32260
L67110 32280
L67130 32290
L67140 32320
L67140 32400
L67130 32430
L67110 32450
" />
<path d="M64110 36060
L64130 36070
L64140 36110
L64140 36140
L64130 36190
L64100 36210
L64070 36230
L64010 36240
L63970 36240
L63910 36230
L63880 36210
L63860 36190
L63840 36140
L63840 36110
L63860 36070
L63870 36060
" />
<path d="M64060 35940
L64060 35800
" />
<path d="M64140 35970
L63840 35870
L64140 35770
" />
<path d="M64140 35670
L63840 35670
L63840 35550
L63860 35530
L63870 35510
L63900 35500
L63940 35500
L63970 35510
L63980 35530
L64000 35550
L64000 35670
" />
<path d="M64060 35380
L64060 35240
" />
<path d="M64140 35410
L63840 35310
L64140 35210
" />
<path d="M64110 34940
L64130 34950
L64140 34990
L64140 35020
L64130 35070
L64100 35090
L64070 35110
L64010 35120
L63970 35120
L63910 35110
L63880 35090
L63860 35070
L63840 35020
L63840 34990
L63860 34950
L63870 34940
" />
<path d="M64140 34810
L63840 34810
" />
<path d="M63840 34710
L63840 34540
" />
<path d="M64140 34630
L63840 34630
" />
<path d="M63840 34380
L63840 34320
L63860 34300
L63880 34270
L63940 34250
L64040 34250
L64100 34270
L64130 34300
L64140 34320
L64140 34380
L64130 34410
L64100 34440
L64040 34450
L63940 34450
L63880 34440
L63860 34410
L63840 34380
" />
<path d="M64140 33960
L64000 34060
" />
<path d="M64140 34130
L63840 34130
L63840 34010
L63860 33990
L63870 33970
L63900 33960
L63940 33960
L63970 33970
L63980 33990
L64000 34010
L64000 34130
" />
<path d="M64170 33900
L64170 33670
" />
<path d="M64140 33430
L64000 33530
" />
<path d="M64140 33600
L63840 33600
L63840 33480
L63860 33460
L63870 33440
L63900 33430
L63940 33430
L63970 33440
L63980 33460
L64000 33480
L64000 33600
" />
<path d="M63980 33300
L63980 33200
" />
<path d="M64140 33160
L64140 33300
L63840 33300
L63840 33160
" />
<path d="M63840 33070
L64140 32970
L63840 32870
" />
<path d="M63980 32770
L63980 32670
" />
<path d="M64140 32630
L64140 32770
L63840 32770
L63840 32630
" />
<path d="M64170 32570
L64170 32340
" />
<path d="M64140 32270
L63840 32270
L63840 32200
L63860 32150
L63880 32130
L63910 32110
L63970 32100
L64010 32100
L64070 32110
L64100 32130
L64130 32150
L64140 32200
L64140 32270
" />
<path d="M64060 31980
L64060 31840
" />
<path d="M64140 32010
L63840 31910
L64140 31810
" />
<path d="M63840 31750
L63840 31580
" />
<path d="M64140 31670
L63840 31670
" />
<path d="M63980 31480
L63980 31380
" />
<path d="M64140 31340
L64140 31480
L63840 31480
L63840 31340
" />
<path d="M64140 31050
L64140 31220
" />
<path d="M64140 31140
L63840 31140
L63880 31170
L63910 31190
L63930 31220
" />
<path d="M63840 30780
L63840 30920
L63980 30930
L63970 30920
L63960 30890
L63960 30820
L63970 30790
L63980 30780
L64010 30760
L64080 30760
L64110 30780
L64130 30790
L64140 30820
L64140 30890
L64130 30920
L64110 30930
" />
<path d="M63840 30540
L64060 30540
L64100 30560
L64130 30590
L64140 30630
L64140 30660
" />
<path d="M63840 30400
L64080 30400
L64110 30380
L64130 30370
L64140 30340
L64140 30280
L64130 30260
L64110 30240
L64080 30230
L63840 30230
" />
<path d="M64140 30090
L63840 30090
L64140 29920
L63840 29920
" />
<path d="M63870 29790
L63860 29780
L63840 29750
L63840 29680
L63860 29650
L63870 29640
L63900 29620
L63930 29620
L63970 29640
L64140 29810
L64140 29620
" />
<path d="M63840 29430
L63840 29400
L63860 29370
L63870 29360
L63900 29350
L63960 29330
L64030 29330
L64080 29350
L64110 29360
L64130 29370
L64140 29400
L64140 29430
L64130 29460
L64110 29470
L64080 29490
L64030 29500
L63960 29500
L63900 29490
L63870 29470
L63860 29460
L63840 29430
" />
<path d="M64140 29040
L64140 29210
" />
<path d="M64140 29130
L63840 29130
L63880 29160
L63910 29180
L63930 29210
" />
<path d="M63840 28850
L63840 28820
L63860 28790
L63870 28780
L63900 28770
L63960 28750
L64030 28750
L64080 28770
L64110 28780
L64130 28790
L64140 28820
L64140 28850
L64130 28880
L64110 28890
L64080 28910
L64030 28920
L63960 28920
L63900 28910
L63870 28890
L63860 28880
L63840 28850
" />
</g>
<g style="fill:#009F9F; fill-opacity:0.0; 
stroke:#009F9F; stroke-width:0; stroke-opacity:1; 
stroke-linecap:round; stroke-linejoin:round;">
</g>
<g style="fill:#9F0000; fill-opacity:1.0; 
stroke:#9F0000; stroke-width:60; stroke-opacity:1; 
stroke-linecap:round; stroke-linejoin:round;">
<polyline style="fill-rule:evenodd;"
points="47000,32000
47000,32250
47000,32250
" /> 
<polyline style="fill-rule:evenodd;"
points="48000,32250
46000,32250
46000,32250
" /> 
<polyline style="fill-rule:evenodd;"
points="48000,32750
46000,32750
46000,32750
" /> 
<polyline style="fill-rule:evenodd;"
points="47000,33000
47000,32750
47000,32750
" /> 
<path d="M47000 32000
L47000 30500
" />
<path d="M47000 33000
L47000 34500
" />
</g>
<g style="fill:#009F9F; fill-opacity:0.0; 
stroke:#009F9F; stroke-width:50; stroke-opacity:1; 
stroke-linecap:round; stroke-linejoin:round;">
<path d="M48610 32550
L48630 32560
L48640 32600
L48640 32630
L48630 32680
L48600 32700
L48570 32720
L48510 32730
L48470 32730
L48410 32720
L48380 32700
L48360 32680
L48340 32630
L48340 32600
L48360 32560
L48370 32550
" />
<path d="M48370 32430
L48360 32420
L48340 32390
L48340 32320
L48360 32290
L48370 32280
L48400 32260
L48430 32260
L48470 32280
L48640 32450
L48640 32260
" />
<path d="M45610 36060
L45630 36070
L45640 36110
L45640 36140
L45630 36190
L45600 36210
L45570 36230
L45510 36240
L45470 36240
L45410 36230
L45380 36210
L45360 36190
L45340 36140
L45340 36110
L45360 36070
L45370 36060
" />
<path d="M45560 35940
L45560 35800
" />
<path d="M45640 35970
L45340 35870
L45640 35770
" />
<path d="M45640 35670
L45340 35670
L45340 35550
L45360 35530
L45370 35510
L45400 35500
L45440 35500
L45470 35510
L45480 35530
L45500 35550
L45500 35670
" />
<path d="M45560 35380
L45560 35240
" />
<path d="M45640 35410
L45340 35310
L45640 35210
" />
<path d="M45610 34940
L45630 34950
L45640 34990
L45640 35020
L45630 35070
L45600 35090
L45570 35110
L45510 35120
L45470 35120
L45410 35110
L45380 35090
L45360 35070
L45340 35020
L45340 34990
L45360 34950
L45370 34940
" />
<path d="M45640 34810
L45340 34810
" />
<path d="M45340 34710
L45340 34540
" />
<path d="M45640 34630
L45340 34630
" />
<path d="M45340 34380
L45340 34320
L45360 34300
L45380 34270
L45440 34250
L45540 34250
L45600 34270
L45630 34300
L45640 34320
L45640 34380
L45630 34410
L45600 34440
L45540 34450
L45440 34450
L45380 34440
L45360 34410
L45340 34380
" />
<path d="M45640 33960
L45500 34060
" />
<path d="M45640 34130
L45340 34130
L45340 34010
L45360 33990
L45370 33970
L45400 33960
L45440 33960
L45470 33970
L45480 33990
L45500 34010
L45500 34130
" />
<path d="M45670 33900
L45670 33670
" />
<path d="M45640 33430
L45500 33530
" />
<path d="M45640 33600
L45340 33600
L45340 33480
L45360 33460
L45370 33440
L45400 33430
L45440 33430
L45470 33440
L45480 33460
L45500 33480
L45500 33600
" />
<path d="M45480 33300
L45480 33200
" />
<path d="M45640 33160
L45640 33300
L45340 33300
L45340 33160
" />
<path d="M45340 33070
L45640 32970
L45340 32870
" />
<path d="M45480 32770
L45480 32670
" />
<path d="M45640 32630
L45640 32770
L45340 32770
L45340 32630
" />
<path d="M45670 32570
L45670 32340
" />
<path d="M45640 32270
L45340 32270
L45340 32200
L45360 32150
L45380 32130
L45410 32110
L45470 32100
L45510 32100
L45570 32110
L45600 32130
L45630 32150
L45640 32200
L45640 32270
" />
<path d="M45560 31980
L45560 31840
" />
<path d="M45640 32010
L45340 31910
L45640 31810
" />
<path d="M45340 31750
L45340 31580
" />
<path d="M45640 31670
L45340 31670
" />
<path d="M45480 31480
L45480 31380
" />
<path d="M45640 31340
L45640 31480
L45340 31480
L45340 31340
" />
<path d="M45640 31050
L45640 31220
" />
<path d="M45640 31140
L45340 31140
L45380 31170
L45410 31190
L45430 31220
" />
<path d="M45340 30780
L45340 30920
L45480 30930
L45470 30920
L45460 30890
L45460 30820
L45470 30790
L45480 30780
L45510 30760
L45580 30760
L45610 30780
L45630 30790
L45640 30820
L45640 30890
L45630 30920
L45610 30930
" />
<path d="M45340 30540
L45560 30540
L45600 30560
L45630 30590
L45640 30630
L45640 30660
" />
<path d="M45340 30400
L45580 30400
L45610 30380
L45630 30370
L45640 30340
L45640 30280
L45630 30260
L45610 30240
L45580 30230
L45340 30230
" />
<path d="M45640 30090
L45340 30090
L45640 29920
L45340 29920
" />
<path d="M45370 29790
L45360 29780
L45340 29750
L45340 29680
L45360 29650
L45370 29640
L45400 29620
L45430 29620
L45470 29640
L45640 29810
L45640 29620
" />
<path d="M45340 29430
L45340 29400
L45360 29370
L45370 29360
L45400 29350
L45460 29330
L45530 29330
L45580 29350
L45610 29360
L45630 29370
L45640 29400
L45640 29430
L45630 29460
L45610 29470
L45580 29490
L45530 29500
L45460 29500
L45400 29490
L45370 29470
L45360 29460
L45340 29430
" />
<path d="M45640 29040
L45640 29210
" />
<path d="M45640 29130
L45340 29130
L45380 29160
L45410 29180
L45430 29210
" />
<path d="M45340 28850
L45340 28820
L45360 28790
L45370 28780
L45400 28770
L45460 28750
L45530 28750
L45580 28770
L45610 28780
L45630 28790
L45640 28820
L45640 28850
L45630 28880
L45610 28890
L45580 28910
L45530 28920
L45460 28920
L45400 28910
L45370 28890
L45360 28880
L45340 28850
" />
</g> 
</svg>
