<?xml version="1.0" standalone="no"?>
 <!DOCTYPE svg PUBLIC "-//W3C//DTD SVG 1.1//EN" 
 "http://www.w3.org/Graphics/SVG/1.1/DTD/svg11.dtd"> 
<svg xmlns="http://www.w3.org/2000/svg" version="1.1" 
    width="29.7002cm" height="21.0007cm" viewBox="0 0 116929 82679 ">
<title>SVG Picture created as 78xx-Regler-BuildingBlock_ModB_RevA.svg date 2013/04/21 22:52:34 </title>
  <desc>Picture generated by Eeschema-SVG </desc>
<g style="fill:#000000; fill-opacity:1;stroke:#000000; stroke-opacity:1;
stroke-linecap:round; stroke-linejoin:round; "
 transform="translate(0 0) scale(1 1)">
</g>
<g style="fill:#9F0000; fill-opacity:0.0; 
stroke:#9F0000; stroke-width:100; stroke-opacity:1; 
stroke-linecap:round; stroke-linejoin:round;">
<path d="M4000 4000
L112930 4000
L112930 78680
L4000 78680
L4000 4000
" />
<path d="M4700 4700
L112230 4700
L112230 77980
L4700 77980
L4700 4700
" />
<path d="M25780 4000
L25780 4700
" />
<path d="M15030 4550
L14750 4550
" />
<path d="M14890 4550
L14890 4050
L14840 4120
L14790 4170
L14750 4200
" />
<path d="M25780 78680
L25780 77980
" />
<path d="M15030 78530
L14750 78530
" />
<path d="M14890 78530
L14890 78030
L14840 78100
L14790 78150
L14750 78180
" />
<path d="M47560 4000
L47560 4700
" />
<path d="M36530 4100
L36550 4080
L36600 4050
L36720 4050
L36760 4080
L36790 4100
L36810 4150
L36810 4200
L36790 4270
L36500 4550
L36810 4550
" />
<path d="M47560 78680
L47560 77980
" />
<path d="M36530 78080
L36550 78060
L36600 78030
L36720 78030
L36760 78060
L36790 78080
L36810 78130
L36810 78180
L36790 78250
L36500 78530
L36810 78530
" />
<path d="M69340 4000
L69340 4700
" />
<path d="M58280 4050
L58590 4050
L58420 4240
L58500 4240
L58540 4270
L58570 4290
L58590 4340
L58590 4460
L58570 4500
L58540 4530
L58500 4550
L58350 4550
L58310 4530
L58280 4500
" />
<path d="M69340 78680
L69340 77980
" />
<path d="M58280 78030
L58590 78030
L58420 78220
L58500 78220
L58540 78250
L58570 78270
L58590 78320
L58590 78440
L58570 78480
L58540 78510
L58500 78530
L58350 78530
L58310 78510
L58280 78480
" />
<path d="M91120 4000
L91120 4700
" />
<path d="M80320 4220
L80320 4550
" />
<path d="M80200 4030
L80090 4390
L80390 4390
" />
<path d="M91120 78680
L91120 77980
" />
<path d="M80320 78200
L80320 78530
" />
<path d="M80200 78010
L80090 78370
L80390 78370
" />
<path d="M102130 4050
L101890 4050
L101870 4290
L101890 4270
L101940 4240
L102060 4240
L102100 4270
L102130 4290
L102150 4340
L102150 4460
L102130 4500
L102100 4530
L102060 4550
L101940 4550
L101890 4530
L101870 4500
" />
<path d="M102130 78030
L101890 78030
L101870 78270
L101890 78250
L101940 78220
L102060 78220
L102100 78250
L102130 78270
L102150 78320
L102150 78440
L102130 78480
L102100 78510
L102060 78530
L101940 78530
L101890 78510
L101870 78480
" />
<path d="M4000 28890
L4700 28890
" />
<path d="M4240 16510
L4470 16510
" />
<path d="M4190 16650
L4350 16150
L4520 16650
" />
<path d="M112930 28890
L112230 28890
" />
<path d="M112470 16510
L112700 16510
" />
<path d="M112420 16650
L112580 16150
L112750 16650
" />
<path d="M4000 53780
L4700 53780
" />
<path d="M4390 41280
L4460 41300
L4480 41330
L4500 41380
L4500 41450
L4480 41490
L4460 41520
L4410 41540
L4220 41540
L4220 41040
L4390 41040
L4430 41070
L4460 41090
L4480 41140
L4480 41190
L4460 41230
L4430 41260
L4390 41280
L4220 41280
" />
<path d="M112930 53780
L112230 53780
" />
<path d="M112620 41280
L112690 41300
L112710 41330
L112730 41380
L112730 41450
L112710 41490
L112690 41520
L112640 41540
L112450 41540
L112450 41040
L112620 41040
L112660 41070
L112690 41090
L112710 41140
L112710 41190
L112690 41230
L112660 41260
L112620 41280
L112450 41280
" />
<path d="M4500 66380
L4480 66410
L4410 66430
L4360 66430
L4290 66410
L4240 66360
L4220 66310
L4200 66220
L4200 66150
L4220 66050
L4240 66000
L4290 65960
L4360 65930
L4410 65930
L4480 65960
L4500 65980
" />
<path d="M112730 66380
L112710 66410
L112640 66430
L112590 66430
L112520 66410
L112470 66360
L112450 66310
L112430 66220
L112430 66150
L112450 66050
L112470 66000
L112520 65960
L112590 65930
L112640 65930
L112710 65960
L112730 65980
" />
<path d="M79380 76420
L79450 75820
L79600 75820
L79680 75850
L79730 75910
L79750 75970
L79770 76080
L79760 76170
L79720 76280
L79680 76340
L79610 76390
L79530 76420
L79380 76420
" />
<path d="M80240 76420
L80280 76110
L80250 76050
L80200 76020
L80090 76020
L80020 76050
" />
<path d="M80240 76390
L80180 76420
L80040 76420
L79980 76390
L79960 76340
L79970 76280
L80000 76220
L80070 76190
L80210 76190
L80270 76170
" />
<path d="M80490 76020
L80720 76020
" />
<path d="M80590 75820
L80530 76340
L80550 76390
L80610 76420
L80670 76420
" />
<path d="M81090 76390
L81030 76420
L80920 76420
L80860 76390
L80840 76340
L80870 76110
L80900 76050
L80970 76020
L81080 76020
L81130 76050
L81160 76110
L81150 76170
L80850 76220
" />
<path d="M81370 76370
L81400 76390
L81370 76420
L81340 76390
L81370 76370
L81370 76420
" />
<path d="M81410 76050
L81440 76080
L81410 76110
L81380 76080
L81410 76050
L81410 76110
" />
<path d="M82440 76420
L82090 76420
" />
<path d="M82270 76420
L82340 75820
L82270 75910
L82200 75970
L82140 75990
" />
<path d="M82720 76420
L82840 76420
L82890 76390
L82920 76370
L83000 76280
L83040 76170
L83070 75940
L83050 75880
L83020 75850
L82960 75820
L82850 75820
L82790 75850
L82760 75880
L82720 75940
L82700 76080
L82720 76140
L82750 76170
L82810 76190
L82920 76190
L82980 76170
L83010 76140
L83050 76080
" />
<path d="M83980 76420
L84020 76110
L83990 76050
L83940 76020
L83830 76020
L83760 76050
" />
<path d="M83980 76390
L83920 76420
L83780 76420
L83720 76390
L83700 76340
L83710 76280
L83740 76220
L83810 76190
L83950 76190
L84010 76170
" />
<path d="M84310 76020
L84230 76620
" />
<path d="M84300 76050
L84370 76020
L84480 76020
L84530 76050
L84560 76080
L84580 76140
L84560 76310
L84520 76370
L84490 76390
L84430 76420
L84320 76420
L84260 76390
" />
<path d="M84800 76420
L84850 76020
" />
<path d="M84830 76140
L84870 76080
L84900 76050
L84970 76020
L85020 76020
" />
<path d="M85670 75880
L85700 75850
L85760 75820
L85900 75820
L85960 75850
L85990 75880
L86010 75940
L86000 75990
L85960 76080
L85580 76420
L85950 76420
" />
<path d="M86390 75820
L86440 75820
L86500 75850
L86530 75880
L86550 75940
L86560 76050
L86550 76190
L86500 76310
L86460 76370
L86430 76390
L86370 76420
L86320 76420
L86260 76390
L86230 76370
L86210 76310
L86200 76190
L86210 76050
L86260 75940
L86300 75880
L86330 75850
L86390 75820
" />
<path d="M87090 76420
L86740 76420
" />
<path d="M86920 76420
L86990 75820
L86920 75910
L86850 75970
L86790 75990
" />
<path d="M87660 76420
L87310 76420
" />
<path d="M87490 76420
L87560 75820
L87490 75910
L87420 75970
L87360 75990
" />
<path d="M70970 77620
L70970 77020
" />
<path d="M71320 77620
L71060 77280
" />
<path d="M71320 77020
L70970 77370
" />
<path d="M71570 77620
L71570 77220
" />
<path d="M71570 77020
L71540 77050
L71570 77080
L71600 77050
L71570 77020
L71570 77080
" />
<path d="M72210 77570
L72180 77590
L72090 77620
L72030 77620
L71950 77590
L71890 77540
L71860 77480
L71830 77370
L71830 77280
L71860 77170
L71890 77110
L71950 77050
L72030 77020
L72090 77020
L72180 77050
L72210 77080
" />
<path d="M72720 77620
L72720 77310
L72690 77250
L72630 77220
L72520 77220
L72460 77250
" />
<path d="M72720 77590
L72660 77620
L72520 77620
L72460 77590
L72430 77540
L72430 77480
L72460 77420
L72520 77390
L72660 77390
L72720 77370
" />
<path d="M73260 77620
L73260 77020
" />
<path d="M73260 77590
L73200 77620
L73090 77620
L73030 77590
L73000 77570
L72970 77510
L72970 77340
L73000 77280
L73030 77250
L73090 77220
L73200 77220
L73260 77250
" />
<path d="M74000 77310
L74200 77310
" />
<path d="M74290 77620
L74000 77620
L74000 77020
L74290 77020
" />
<path d="M74540 77570
L74570 77590
L74540 77620
L74510 77590
L74540 77570
L74540 77620
" />
<path d="M74830 77620
L74830 77020
L74980 77020
L75060 77050
L75120 77110
L75150 77170
L75180 77280
L75180 77370
L75150 77480
L75120 77540
L75060 77590
L74980 77620
L74830 77620
" />
<path d="M75430 77570
L75460 77590
L75430 77620
L75400 77590
L75430 77570
L75430 77620
" />
<path d="M75690 77450
L75980 77450
" />
<path d="M75640 77620
L75840 77020
L76040 77620
" />
<path d="M76230 77570
L76260 77590
L76230 77620
L76200 77590
L76230 77570
L76230 77620
" />
<path d="M104530 76420
L104360 76140
" />
<path d="M104180 76420
L104250 75820
L104480 75820
L104540 75850
L104570 75880
L104590 75940
L104580 76020
L104540 76080
L104510 76110
L104440 76140
L104210 76140
" />
<path d="M105010 76390
L104950 76420
L104840 76420
L104780 76390
L104760 76340
L104790 76110
L104820 76050
L104890 76020
L105000 76020
L105050 76050
L105080 76110
L105070 76170
L104770 76220
" />
<path d="M105290 76020
L105380 76420
L105570 76020
" />
<path d="M105750 76370
L105780 76390
L105750 76420
L105720 76390
L105750 76370
L105750 76420
" />
<path d="M105790 76050
L105820 76080
L105790 76110
L105760 76080
L105790 76050
L105790 76110
" />
<path d="M70940 76390
L71030 76420
L71170 76420
L71230 76390
L71260 76370
L71290 76310
L71290 76250
L71260 76190
L71230 76170
L71170 76140
L71060 76110
L71000 76080
L70970 76050
L70940 75990
L70940 75940
L70970 75880
L71000 75850
L71060 75820
L71200 75820
L71290 75850
" />
<path d="M71540 76420
L71540 76020
" />
<path d="M71540 75820
L71510 75850
L71540 75880
L71570 75850
L71540 75820
L71540 75880
" />
<path d="M71780 76020
L72090 76020
L71780 76420
L72090 76420
" />
<path d="M72550 76390
L72490 76420
L72380 76420
L72320 76390
L72290 76340
L72290 76110
L72320 76050
L72380 76020
L72490 76020
L72550 76050
L72580 76110
L72580 76170
L72290 76220
" />
<path d="M72830 76370
L72860 76390
L72830 76420
L72800 76390
L72830 76370
L72830 76420
" />
<path d="M72830 76050
L72860 76080
L72830 76110
L72800 76080
L72830 76050
L72830 76110
" />
<path d="M73550 76250
L73840 76250
" />
<path d="M73500 76420
L73700 75820
L73900 76420
" />
<path d="M74350 76020
L74350 76420
" />
<path d="M74210 75790
L74060 76220
L74440 76220
" />
<path d="M104170 77620
L104170 77020
" />
<path d="M104720 77620
L104720 77020
" />
<path d="M104720 77590
L104660 77620
L104550 77620
L104490 77590
L104460 77570
L104430 77510
L104430 77340
L104460 77280
L104490 77250
L104550 77220
L104660 77220
L104720 77250
" />
<path d="M105000 77570
L105030 77590
L105000 77620
L104970 77590
L105000 77570
L105000 77620
" />
<path d="M105000 77250
L105030 77280
L105000 77310
L104970 77280
L105000 77250
L105000 77310
" />
<path d="M106070 77620
L105720 77620
" />
<path d="M105900 77620
L105900 77020
L105840 77110
L105780 77170
L105720 77190
" />
<path d="M106750 76990
L106240 77770
" />
<path d="M107270 77620
L106920 77620
" />
<path d="M107100 77620
L107100 77020
L107040 77110
L106980 77170
L106920 77190
" />
<path d="M70970 74620
L71310 74620
" />
<path d="M71070 75220
L71140 74620
" />
<path d="M71440 75220
L71490 74820
" />
<path d="M71510 74620
L71480 74650
L71510 74680
L71540 74650
L71510 74620
L71510 74680
" />
<path d="M71700 74820
L71930 74820
" />
<path d="M71800 74620
L71740 75140
L71760 75190
L71820 75220
L71880 75220
" />
<path d="M72160 75220
L72100 75190
L72080 75140
L72140 74620
" />
<path d="M72610 75190
L72550 75220
L72440 75220
L72380 75190
L72360 75140
L72390 74910
L72420 74850
L72490 74820
L72600 74820
L72650 74850
L72680 74910
L72670 74970
L72370 75020
" />
<path d="M72890 75170
L72920 75190
L72890 75220
L72860 75190
L72890 75170
L72890 75220
" />
<path d="M72930 74850
L72960 74880
L72930 74910
L72900 74880
L72930 74850
L72930 74910
" />
<path d="M71170 72510
L70970 72510
" />
<path d="M70970 72820
L70970 72220
L71260 72220
" />
<path d="M71480 72820
L71480 72420
" />
<path d="M71480 72220
L71450 72250
L71480 72280
L71510 72250
L71480 72220
L71480 72280
" />
<path d="M71860 72820
L71800 72790
L71770 72740
L71770 72220
" />
<path d="M72310 72790
L72250 72820
L72140 72820
L72080 72790
L72050 72740
L72050 72510
L72080 72450
L72140 72420
L72250 72420
L72310 72450
L72340 72510
L72340 72570
L72050 72620
" />
<path d="M72590 72770
L72620 72790
L72590 72820
L72560 72790
L72590 72770
L72590 72820
" />
<path d="M72590 72450
L72620 72480
L72590 72510
L72560 72480
L72590 72450
L72590 72510
" />
<path d="M73290 72220
L73690 72220
L73430 72820
" />
<path d="M74000 72480
L73940 72450
L73910 72420
L73880 72370
L73880 72340
L73910 72280
L73940 72250
L74000 72220
L74110 72220
L74170 72250
L74200 72280
L74230 72340
L74230 72370
L74200 72420
L74170 72450
L74110 72480
L74000 72480
L73940 72510
L73910 72540
L73880 72590
L73880 72710
L73910 72770
L73940 72790
L74000 72820
L74110 72820
L74170 72790
L74200 72770
L74230 72710
L74230 72590
L74200 72540
L74170 72510
L74110 72480
" />
<path d="M74430 72820
L74740 72420
" />
<path d="M74430 72420
L74740 72820
" />
<path d="M74920 72820
L75230 72420
" />
<path d="M74920 72420
L75230 72820
" />
<path d="M75460 72590
L75920 72590
" />
<path d="M76550 72820
L76350 72540
" />
<path d="M76200 72820
L76200 72220
L76430 72220
L76490 72250
L76520 72280
L76550 72340
L76550 72420
L76520 72480
L76490 72510
L76430 72540
L76200 72540
" />
<path d="M77030 72790
L76970 72820
L76860 72820
L76800 72790
L76770 72740
L76770 72510
L76800 72450
L76860 72420
L76970 72420
L77030 72450
L77060 72510
L77060 72570
L76770 72620
" />
<path d="M77570 72420
L77570 72910
L77540 72970
L77510 72990
L77460 73020
L77370 73020
L77310 72990
" />
<path d="M77570 72790
L77510 72820
L77400 72820
L77340 72790
L77310 72770
L77280 72710
L77280 72540
L77310 72480
L77340 72450
L77400 72420
L77510 72420
L77570 72450
" />
<path d="M77940 72820
L77880 72790
L77850 72740
L77850 72220
" />
<path d="M78390 72790
L78330 72820
L78220 72820
L78160 72790
L78130 72740
L78130 72510
L78160 72450
L78220 72420
L78330 72420
L78390 72450
L78420 72510
L78420 72570
L78130 72620
" />
<path d="M78670 72820
L78670 72420
" />
<path d="M78670 72540
L78700 72480
L78730 72450
L78790 72420
L78840 72420
" />
<path d="M79040 72590
L79500 72590
" />
<path d="M79980 72510
L80070 72540
L80100 72570
L80130 72620
L80130 72710
L80100 72770
L80070 72790
L80010 72820
L79780 72820
L79780 72220
L79980 72220
L80040 72250
L80070 72280
L80100 72340
L80100 72390
L80070 72450
L80040 72480
L79980 72510
L79780 72510
" />
<path d="M80640 72420
L80640 72820
" />
<path d="M80380 72420
L80380 72740
L80410 72790
L80470 72820
L80550 72820
L80610 72790
L80640 72770
" />
<path d="M80920 72820
L80920 72420
" />
<path d="M80920 72220
L80890 72250
L80920 72280
L80950 72250
L80920 72220
L80920 72280
" />
<path d="M81300 72820
L81240 72790
L81210 72740
L81210 72220
" />
<path d="M81780 72820
L81780 72220
" />
<path d="M81780 72790
L81720 72820
L81610 72820
L81550 72790
L81520 72770
L81490 72710
L81490 72540
L81520 72480
L81550 72450
L81610 72420
L81720 72420
L81780 72450
" />
<path d="M82060 72820
L82060 72420
" />
<path d="M82060 72220
L82030 72250
L82060 72280
L82090 72250
L82060 72220
L82060 72280
" />
<path d="M82350 72420
L82350 72820
" />
<path d="M82350 72480
L82380 72450
L82440 72420
L82520 72420
L82580 72450
L82610 72510
L82610 72820
" />
<path d="M83150 72420
L83150 72910
L83120 72970
L83090 72990
L83040 73020
L82950 73020
L82890 72990
" />
<path d="M83150 72790
L83090 72820
L82980 72820
L82920 72790
L82890 72770
L82860 72710
L82860 72540
L82890 72480
L82920 72450
L82980 72420
L83090 72420
L83150 72450
" />
<path d="M83630 72510
L83720 72540
L83750 72570
L83780 72620
L83780 72710
L83750 72770
L83720 72790
L83660 72820
L83430 72820
L83430 72220
L83630 72220
L83690 72250
L83720 72280
L83750 72340
L83750 72390
L83720 72450
L83690 72480
L83630 72510
L83430 72510
" />
<path d="M84120 72820
L84060 72790
L84030 72740
L84030 72220
" />
<path d="M84430 72820
L84370 72790
L84340 72770
L84310 72710
L84310 72540
L84340 72480
L84370 72450
L84430 72420
L84510 72420
L84570 72450
L84600 72480
L84630 72540
L84630 72710
L84600 72770
L84570 72790
L84510 72820
L84430 72820
" />
<path d="M85140 72790
L85080 72820
L84970 72820
L84910 72790
L84880 72770
L84850 72710
L84850 72540
L84880 72480
L84910 72450
L84970 72420
L85080 72420
L85140 72450
" />
<path d="M85390 72820
L85390 72220
" />
<path d="M85450 72590
L85620 72820
" />
<path d="M85620 72420
L85390 72650
" />
<path d="M85740 72880
L86200 72880
" />
<path d="M86340 72820
L86340 72220
L86540 72650
L86740 72220
L86740 72820
" />
<path d="M87120 72820
L87060 72790
L87030 72770
L87000 72710
L87000 72540
L87030 72480
L87060 72450
L87120 72420
L87200 72420
L87260 72450
L87290 72480
L87320 72540
L87320 72710
L87290 72770
L87260 72790
L87200 72820
L87120 72820
" />
<path d="M87830 72820
L87830 72220
" />
<path d="M87830 72790
L87770 72820
L87660 72820
L87600 72790
L87570 72770
L87540 72710
L87540 72540
L87570 72480
L87600 72450
L87660 72420
L87770 72420
L87830 72450
" />
<path d="M88310 72510
L88400 72540
L88430 72570
L88460 72620
L88460 72710
L88430 72770
L88400 72790
L88340 72820
L88110 72820
L88110 72220
L88310 72220
L88370 72250
L88400 72280
L88430 72340
L88430 72390
L88400 72450
L88370 72480
L88310 72510
L88110 72510
" />
<path d="M88570 72880
L89030 72880
" />
<path d="M89520 72820
L89320 72540
" />
<path d="M89170 72820
L89170 72220
L89400 72220
L89460 72250
L89490 72280
L89520 72340
L89520 72420
L89490 72480
L89460 72510
L89400 72540
L89170 72540
" />
<path d="M90000 72790
L89940 72820
L89830 72820
L89770 72790
L89740 72740
L89740 72510
L89770 72450
L89830 72420
L89940 72420
L90000 72450
L90030 72510
L90030 72570
L89740 72620
" />
<path d="M90230 72420
L90370 72820
L90510 72420
" />
<path d="M90710 72650
L91000 72650
" />
<path d="M90660 72820
L90860 72220
L91060 72820
" />
<path d="M91250 72770
L91280 72790
L91250 72820
L91220 72790
L91250 72770
L91250 72820
" />
<path d="M91510 72790
L91570 72820
L91690 72820
L91740 72790
L91770 72740
L91770 72710
L91740 72650
L91690 72620
L91600 72620
L91540 72590
L91510 72540
L91510 72510
L91540 72450
L91600 72420
L91690 72420
L91740 72450
" />
<path d="M92290 72790
L92230 72820
L92120 72820
L92060 72790
L92030 72770
L92000 72710
L92000 72540
L92030 72480
L92060 72450
L92120 72420
L92230 72420
L92290 72450
" />
<path d="M92540 72820
L92540 72220
" />
<path d="M92800 72820
L92800 72510
L92770 72450
L92710 72420
L92630 72420
L92570 72450
L92540 72480
" />
<path d="M70940 73990
L71030 74020
L71170 74020
L71230 73990
L71260 73970
L71290 73910
L71290 73850
L71260 73790
L71230 73770
L71170 73740
L71060 73710
L71000 73680
L70970 73650
L70940 73590
L70940 73540
L70970 73480
L71000 73450
L71060 73420
L71200 73420
L71290 73450
" />
<path d="M71540 74020
L71540 73420
" />
<path d="M71800 74020
L71800 73710
L71770 73650
L71710 73620
L71630 73620
L71570 73650
L71540 73680
" />
<path d="M72310 73990
L72250 74020
L72140 74020
L72080 73990
L72050 73940
L72050 73710
L72080 73650
L72140 73620
L72250 73620
L72310 73650
L72340 73710
L72340 73770
L72050 73820
" />
<path d="M72820 73990
L72760 74020
L72650 74020
L72590 73990
L72560 73940
L72560 73710
L72590 73650
L72650 73620
L72760 73620
L72820 73650
L72850 73710
L72850 73770
L72560 73820
" />
<path d="M73020 73620
L73250 73620
" />
<path d="M73100 73420
L73100 73940
L73130 73990
L73190 74020
L73250 74020
" />
<path d="M73440 73970
L73470 73990
L73440 74020
L73410 73990
L73440 73970
L73440 74020
" />
<path d="M73440 73650
L73470 73680
L73440 73710
L73410 73680
L73440 73650
L73440 73710
" />
<path d="M74620 73390
L74110 74170
" />
<path d="M70230 71980
L70230 77980
" />
<path d="M70230 71980
L112230 71980
" />
<path d="M70230 71980
L112230 71980
" />
<path d="M70230 74380
L112230 74380
" />
<path d="M103430 75580
L103430 77980
" />
<path d="M70230 76780
L112230 76780
" />
<path d="M70230 75580
L112230 75580
" />
<path d="M76830 75580
L76830 76780
" />
</g>
<g style="fill:#9F0000; fill-opacity:0.0; 
stroke:#9F0000; stroke-width:0; stroke-opacity:1; 
stroke-linecap:round; stroke-linejoin:round;">
</g>
<g style="fill:#009F00; fill-opacity:1.0; 
stroke:#009F00; stroke-width:100; stroke-opacity:1; 
stroke-linecap:round; stroke-linejoin:round;">
<circle cx="49000" cy="26500" r="160" /> 
</g>
<g style="fill:#009F00; fill-opacity:1.0; 
stroke:#009F00; stroke-width:60; stroke-opacity:1; 
stroke-linecap:round; stroke-linejoin:round;">
<path d="M49000 26500
L49000 21000
" />
<path d="M49000 21000
L55000 21000
" />
</g>
<g style="fill:#009F00; fill-opacity:1.0; 
stroke:#009F00; stroke-width:0; stroke-opacity:1; 
stroke-linecap:round; stroke-linejoin:round;">
</g>
<g style="fill:#009F00; fill-opacity:1.0; 
stroke:#009F00; stroke-width:100; stroke-opacity:1; 
stroke-linecap:round; stroke-linejoin:round;">
<circle cx="63500" cy="26500" r="160" /> 
</g>
<g style="fill:#009F00; fill-opacity:1.0; 
stroke:#009F00; stroke-width:60; stroke-opacity:1; 
stroke-linecap:round; stroke-linejoin:round;">
<path d="M63500 26500
L63500 21000
" />
<path d="M63500 21000
L59000 21000
" />
</g>
<g style="fill:#009F00; fill-opacity:1.0; 
stroke:#009F00; stroke-width:0; stroke-opacity:1; 
stroke-linecap:round; stroke-linejoin:round;">
</g>
<g style="fill:#009F00; fill-opacity:1.0; 
stroke:#009F00; stroke-width:100; stroke-opacity:1; 
stroke-linecap:round; stroke-linejoin:round;">
<circle cx="70500" cy="38500" r="160" /> 
</g>
<g style="fill:#009F00; fill-opacity:1.0; 
stroke:#009F00; stroke-width:60; stroke-opacity:1; 
stroke-linecap:round; stroke-linejoin:round;">
<path d="M76000 38500
L39000 38500
" />
</g>
<g style="fill:#009F00; fill-opacity:1.0; 
stroke:#009F00; stroke-width:0; stroke-opacity:1; 
stroke-linecap:round; stroke-linejoin:round;">
</g>
<g style="fill:#009F00; fill-opacity:1.0; 
stroke:#009F00; stroke-width:100; stroke-opacity:1; 
stroke-linecap:round; stroke-linejoin:round;">
<circle cx="43000" cy="38500" r="160" /> 
</g>
<g style="fill:#009F00; fill-opacity:1.0; 
stroke:#009F00; stroke-width:0; stroke-opacity:1; 
stroke-linecap:round; stroke-linejoin:round;">
</g>
<g style="fill:#009F00; fill-opacity:1.0; 
stroke:#009F00; stroke-width:100; stroke-opacity:1; 
stroke-linecap:round; stroke-linejoin:round;">
<circle cx="56500" cy="38500" r="160" /> 
</g>
<g style="fill:#009F00; fill-opacity:1.0; 
stroke:#009F00; stroke-width:60; stroke-opacity:1; 
stroke-linecap:round; stroke-linejoin:round;">
<path d="M56500 31000
L56500 38500
" />
</g>
<g style="fill:#009F00; fill-opacity:1.0; 
stroke:#009F00; stroke-width:0; stroke-opacity:1; 
stroke-linecap:round; stroke-linejoin:round;">
</g>
<g style="fill:#009F00; fill-opacity:1.0; 
stroke:#009F00; stroke-width:100; stroke-opacity:1; 
stroke-linecap:round; stroke-linejoin:round;">
<circle cx="65500" cy="38500" r="160" /> 
</g>
<g style="fill:#009F00; fill-opacity:1.0; 
stroke:#009F00; stroke-width:60; stroke-opacity:1; 
stroke-linecap:round; stroke-linejoin:round;">
<path d="M43000 38500
L43000 34500
" />
<path d="M70500 38500
L70500 34500
" />
</g>
<g style="fill:#009F00; fill-opacity:1.0; 
stroke:#009F00; stroke-width:0; stroke-opacity:1; 
stroke-linecap:round; stroke-linejoin:round;">
</g>
<g style="fill:#009F00; fill-opacity:1.0; 
stroke:#009F00; stroke-width:100; stroke-opacity:1; 
stroke-linecap:round; stroke-linejoin:round;">
<circle cx="47000" cy="26500" r="160" /> 
</g>
<g style="fill:#009F00; fill-opacity:1.0; 
stroke:#009F00; stroke-width:60; stroke-opacity:1; 
stroke-linecap:round; stroke-linejoin:round;">
<path d="M47000 30500
L47000 26500
" />
<path d="M43000 26500
L43000 30500
" />
<path d="M70500 26500
L70500 30500
" />
<path d="M65500 30500
L65500 26500
" />
</g>
<g style="fill:#009F00; fill-opacity:1.0; 
stroke:#009F00; stroke-width:0; stroke-opacity:1; 
stroke-linecap:round; stroke-linejoin:round;">
</g>
<g style="fill:#009F00; fill-opacity:1.0; 
stroke:#009F00; stroke-width:100; stroke-opacity:1; 
stroke-linecap:round; stroke-linejoin:round;">
<circle cx="65500" cy="26500" r="160" /> 
</g>
<g style="fill:#009F00; fill-opacity:1.0; 
stroke:#009F00; stroke-width:60; stroke-opacity:1; 
stroke-linecap:round; stroke-linejoin:round;">
<path d="M65500 38500
L65500 34500
" />
<path d="M47000 34500
L47000 38500
" />
</g>
<g style="fill:#009F00; fill-opacity:1.0; 
stroke:#009F00; stroke-width:0; stroke-opacity:1; 
stroke-linecap:round; stroke-linejoin:round;">
</g>
<g style="fill:#009F00; fill-opacity:1.0; 
stroke:#009F00; stroke-width:100; stroke-opacity:1; 
stroke-linecap:round; stroke-linejoin:round;">
<circle cx="47000" cy="38500" r="160" /> 
</g>
<g style="fill:#009F00; fill-opacity:1.0; 
stroke:#009F00; stroke-width:60; stroke-opacity:1; 
stroke-linecap:round; stroke-linejoin:round;">
<path d="M39000 26500
L50500 26500
" />
</g>
<g style="fill:#009F00; fill-opacity:1.0; 
stroke:#009F00; stroke-width:0; stroke-opacity:1; 
stroke-linecap:round; stroke-linejoin:round;">
</g>
<g style="fill:#009F00; fill-opacity:1.0; 
stroke:#009F00; stroke-width:100; stroke-opacity:1; 
stroke-linecap:round; stroke-linejoin:round;">
<circle cx="43000" cy="26500" r="160" /> 
</g>
<g style="fill:#009F00; fill-opacity:1.0; 
stroke:#009F00; stroke-width:0; stroke-opacity:1; 
stroke-linecap:round; stroke-linejoin:round;">
</g>
<g style="fill:#009F00; fill-opacity:1.0; 
stroke:#009F00; stroke-width:100; stroke-opacity:1; 
stroke-linecap:round; stroke-linejoin:round;">
<circle cx="70500" cy="26500" r="160" /> 
</g>
<g style="fill:#009F00; fill-opacity:1.0; 
stroke:#009F00; stroke-width:60; stroke-opacity:1; 
stroke-linecap:round; stroke-linejoin:round;">
<path d="M62500 26500
L76000 26500
" />
</g>
<g style="fill:#009F00; fill-opacity:1.0; 
stroke:#009F00; stroke-width:0; stroke-opacity:1; 
stroke-linecap:round; stroke-linejoin:round;">
</g>
<g style="fill:#9F0000; fill-opacity:0.0; 
stroke:#9F0000; stroke-width:60; stroke-opacity:1; 
stroke-linecap:round; stroke-linejoin:round;">
<polyline fill="none;"
points="57500,21000
56500,21000
56500,21000
" /> 
<polyline fill="none;"
points="56500,20000
56500,22000
56500,22000
" /> 
<polyline fill="none;"
points="56500,21000
57500,20000
57500,22000
56500,21000
56500,21000
" /> 
<path d="M57500 21000
L59000 21000
" />
<path d="M56500 21000
L55000 21000
" />
</g>
<g style="fill:#009F9F; fill-opacity:0.0; 
stroke:#009F9F; stroke-width:50; stroke-opacity:1; 
stroke-linecap:round; stroke-linejoin:round;">
<path d="M56770 19600
L56770 19300
L56840 19300
L56890 19320
L56910 19340
L56930 19370
L56940 19430
L56940 19470
L56930 19530
L56910 19560
L56890 19590
L56840 19600
L56770 19600
" />
<path d="M57230 19600
L57060 19600
" />
<path d="M57140 19600
L57140 19300
L57110 19340
L57090 19370
L57060 19390
" />
<path d="M52490 22600
L52490 22300
L52560 22300
L52610 22320
L52630 22340
L52650 22370
L52660 22430
L52660 22470
L52650 22530
L52630 22560
L52610 22590
L52560 22600
L52490 22600
" />
<path d="M52790 22600
L52790 22300
" />
<path d="M52990 22300
L53050 22300
L53070 22320
L53100 22340
L53120 22400
L53120 22500
L53100 22560
L53070 22590
L53050 22600
L52990 22600
L52960 22590
L52930 22560
L52920 22500
L52920 22400
L52930 22340
L52960 22320
L52990 22300
" />
<path d="M53240 22600
L53240 22300
L53310 22300
L53360 22320
L53380 22340
L53400 22370
L53410 22430
L53410 22470
L53400 22530
L53380 22560
L53360 22590
L53310 22600
L53240 22600
" />
<path d="M53540 22440
L53640 22440
" />
<path d="M53680 22600
L53540 22600
L53540 22300
L53680 22300
" />
<path d="M53810 22490
L54040 22490
" />
<path d="M54170 22590
L54210 22600
L54280 22600
L54310 22590
L54320 22570
L54340 22540
L54340 22520
L54320 22490
L54310 22470
L54280 22460
L54220 22440
L54200 22430
L54180 22420
L54170 22390
L54170 22360
L54180 22330
L54200 22320
L54220 22300
L54300 22300
L54340 22320
" />
<path d="M54430 22300
L54600 22300
" />
<path d="M54510 22600
L54510 22300
" />
<path d="M54690 22520
L54830 22520
" />
<path d="M54660 22600
L54760 22300
L54860 22600
" />
<path d="M54960 22600
L54960 22300
L55130 22600
L55130 22300
" />
<path d="M55270 22600
L55270 22300
L55340 22300
L55390 22320
L55410 22340
L55430 22370
L55440 22430
L55440 22470
L55430 22530
L55410 22560
L55390 22590
L55340 22600
L55270 22600
" />
<path d="M55560 22520
L55700 22520
" />
<path d="M55530 22600
L55630 22300
L55730 22600
" />
<path d="M56000 22600
L55900 22460
" />
<path d="M55830 22600
L55830 22300
L55950 22300
L55970 22320
L55990 22330
L56000 22360
L56000 22400
L55990 22430
L55970 22440
L55950 22460
L55830 22460
" />
<path d="M56130 22600
L56130 22300
L56200 22300
L56250 22320
L56270 22340
L56290 22370
L56300 22430
L56300 22470
L56290 22530
L56270 22560
L56250 22590
L56200 22600
L56130 22600
" />
<path d="M56360 22630
L56590 22630
" />
<path d="M56830 22600
L56730 22460
" />
<path d="M56660 22600
L56660 22300
L56780 22300
L56800 22320
L56820 22330
L56830 22360
L56830 22400
L56820 22430
L56800 22440
L56780 22460
L56660 22460
" />
<path d="M56960 22440
L57060 22440
" />
<path d="M57100 22600
L56960 22600
L56960 22300
L57100 22300
" />
<path d="M57190 22300
L57290 22600
L57390 22300
" />
<path d="M57490 22440
L57590 22440
" />
<path d="M57630 22600
L57490 22600
L57490 22300
L57630 22300
" />
<path d="M57690 22630
L57920 22630
" />
<path d="M57990 22600
L57990 22300
L58060 22300
L58110 22320
L58130 22340
L58150 22370
L58160 22430
L58160 22470
L58150 22530
L58130 22560
L58110 22590
L58060 22600
L57990 22600
" />
<path d="M58280 22520
L58420 22520
" />
<path d="M58250 22600
L58350 22300
L58450 22600
" />
<path d="M58510 22300
L58680 22300
" />
<path d="M58590 22600
L58590 22300
" />
<path d="M58780 22440
L58880 22440
" />
<path d="M58920 22600
L58780 22600
L58780 22300
L58920 22300
" />
<path d="M59210 22600
L59040 22600
" />
<path d="M59120 22600
L59120 22300
L59090 22340
L59070 22370
L59040 22390
" />
<path d="M59480 22300
L59340 22300
L59330 22440
L59340 22430
L59370 22420
L59440 22420
L59470 22430
L59480 22440
L59500 22470
L59500 22540
L59480 22570
L59470 22590
L59440 22600
L59370 22600
L59340 22590
L59330 22570
" />
<path d="M59720 22300
L59720 22520
L59700 22560
L59670 22590
L59630 22600
L59600 22600
" />
<path d="M59860 22300
L59860 22540
L59880 22570
L59890 22590
L59920 22600
L59980 22600
L60000 22590
L60020 22570
L60030 22540
L60030 22300
" />
<path d="M60170 22600
L60170 22300
L60340 22600
L60340 22300
" />
<path d="M60470 22330
L60480 22320
L60510 22300
L60580 22300
L60610 22320
L60620 22330
L60640 22360
L60640 22390
L60620 22430
L60450 22600
L60640 22600
" />
<path d="M60830 22300
L60860 22300
L60890 22320
L60900 22330
L60910 22360
L60930 22420
L60930 22490
L60910 22540
L60900 22570
L60890 22590
L60860 22600
L60830 22600
L60800 22590
L60790 22570
L60770 22540
L60760 22490
L60760 22420
L60770 22360
L60790 22330
L60800 22320
L60830 22300
" />
<path d="M61220 22600
L61050 22600
" />
<path d="M61130 22600
L61130 22300
L61100 22340
L61080 22370
L61050 22390
" />
<path d="M61410 22300
L61440 22300
L61470 22320
L61480 22330
L61490 22360
L61510 22420
L61510 22490
L61490 22540
L61480 22570
L61470 22590
L61440 22600
L61410 22600
L61380 22590
L61370 22570
L61350 22540
L61340 22490
L61340 22420
L61350 22360
L61370 22330
L61380 22320
L61410 22300
" />
</g>
<g style="fill:#009F9F; fill-opacity:0.0; 
stroke:#009F9F; stroke-width:0; stroke-opacity:1; 
stroke-linecap:round; stroke-linejoin:round;">
</g>
<g style="fill:#9F0000; fill-opacity:0.0; 
stroke:#9F0000; stroke-width:60; stroke-opacity:1; 
stroke-linecap:round; stroke-linejoin:round;">
<path d="M48030 71170
L47970 71140
L47880 71140
L47800 71170
L47740 71230
L47710 71290
L47680 71400
L47680 71490
L47710 71600
L47740 71660
L47800 71710
L47880 71740
L47940 71740
L48030 71710
L48060 71690
L48060 71490
L47940 71490
" />
<path d="M48310 71740
L48310 71140
L48660 71740
L48660 71140
" />
<path d="M48940 71140
L48940 71630
L48970 71690
L49000 71710
L49060 71740
L49170 71740
L49230 71710
L49260 71690
L49290 71630
L49290 71140
" />
<path d="M52620 71170
L52560 71140
L52470 71140
L52390 71170
L52330 71230
L52300 71290
L52270 71400
L52270 71490
L52300 71600
L52330 71660
L52390 71710
L52470 71740
L52530 71740
L52620 71710
L52650 71690
L52650 71490
L52530 71490
" />
<path d="M52900 71740
L52900 71140
L53130 71140
L53190 71170
L53220 71200
L53250 71260
L53250 71340
L53220 71400
L53190 71430
L53130 71460
L52900 71460
" />
<path d="M53790 71740
L53500 71740
L53500 71140
" />
</g>
<g style="fill:#9F0000; fill-opacity:1.0; 
stroke:#9F0000; stroke-width:10; stroke-opacity:1; 
stroke-linecap:round; stroke-linejoin:round;">
<polyline style="fill-rule:evenodd;"
points="50490,71700
50510,71680
50490,71660
50470,71680
50490,71700
" /> 
<polyline style="fill-rule:evenodd;"
points="50690,71600
50710,71580
50690,71560
50670,71580
50690,71600
" /> 
<polyline style="fill-rule:evenodd;"
points="50920,70860
50940,70850
50920,70830
50910,70850
50920,70860
" /> 
<polyline style="fill-rule:evenodd;"
points="51500,71750
51530,71750
51560,71710
51530,71710
51500,71750
" /> 
<polyline style="fill-rule:evenodd;"
points="51980,70830
52000,70810
51980,70800
51960,70810
51980,70830
" /> 
<polyline style="fill-rule:evenodd;"
points="52210,70410
52230,70390
52210,70370
52200,70390
52210,70410
" /> 
<polyline style="fill-rule:evenodd;"
points="49360,69490
49360,69450
49360,69450
49340,69470
49340,69470
49360,69490
" /> 
<polyline style="fill-rule:evenodd;"
points="50060,70950
50060,70910
50060,70910
50040,70930
50040,70930
50060,70950
" /> 
<polyline style="fill-rule:evenodd;"
points="50090,71180
50090,71140
50090,71140
50070,71160
50070,71160
50090,71180
" /> 
<polyline style="fill-rule:evenodd;"
points="50590,70240
50590,70180
50590,70180
50570,70220
50580,70240
50590,70240
" /> 
<polyline style="fill-rule:evenodd;"
points="50720,69100
50750,69050
50750,69040
50740,69020
50710,69070
50720,69100
" /> 
<polyline style="fill-rule:evenodd;"
points="50760,71480
50760,71440
50760,71440
50740,71460
50740,71460
50760,71480
" /> 
<polyline style="fill-rule:evenodd;"
points="51480,71230
51500,71220
51500,71210
51440,71210
51430,71210
51480,71230
" /> 
<polyline style="fill-rule:evenodd;"
points="51580,71650
51580,71610
51580,71610
51560,71630
51560,71630
51580,71650
" /> 
<polyline style="fill-rule:evenodd;"
points="51990,70700
51970,70620
51950,70610
51950,70660
51960,70690
51990,70700
" /> 
<polyline style="fill-rule:evenodd;"
points="52150,68940
52170,68930
52170,68920
52100,68920
52100,68920
52150,68940
" /> 
<polyline style="fill-rule:evenodd;"
points="52720,69340
52720,69280
52710,69280
52700,69320
52700,69340
52720,69340
" /> 
<polyline style="fill-rule:evenodd;"
points="52750,69540
52750,69480
52740,69480
52730,69520
52730,69540
52750,69540
" /> 
<polyline style="fill-rule:evenodd;"
points="51910,69160
52010,69160
52000,69150
51980,69140
51840,69150
51820,69160
51910,69160
" /> 
<polyline style="fill-rule:evenodd;"
points="52300,70510
52330,70480
52280,70450
52280,70450
52250,70490
52250,70490
52300,70510
" /> 
<polyline style="fill-rule:evenodd;"
points="52390,70200
52440,70170
52450,70170
52410,70160
52410,70160
52360,70190
52390,70200
" /> 
<polyline style="fill-rule:evenodd;"
points="49390,69400
49440,69310
49460,69240
49420,69290
49410,69310
49370,69380
49370,69380
49390,69400
" /> 
<polyline style="fill-rule:evenodd;"
points="49430,70080
49460,70090
49420,69990
49380,69920
49350,69890
49350,69910
49390,70000
49430,70080
" /> 
<polyline style="fill-rule:evenodd;"
points="49800,70860
49850,70830
49860,70820
49810,70820
49790,70820
49740,70850
49740,70850
49800,70860
" /> 
<polyline style="fill-rule:evenodd;"
points="51720,69140
51700,69090
51690,69090
51680,69030
51670,69010
51630,69030
51670,69100
51720,69140
" /> 
<polyline style="fill-rule:evenodd;"
points="50370,69510
50390,69500
50410,69480
50540,69390
50570,69370
50580,69340
50530,69360
50430,69450
50370,69510
" /> 
<polyline style="fill-rule:evenodd;"
points="50420,71760
50430,71740
50400,71660
50350,71590
50340,71580
50310,71570
50350,71650
50380,71710
50420,71760
" /> 
<polyline style="fill-rule:evenodd;"
points="51610,70730
51610,70700
51600,70680
51520,70630
51510,70620
51470,70610
51520,70660
51530,70670
51610,70730
" /> 
<polyline style="fill-rule:evenodd;"
points="52500,70140
52510,70140
52560,70090
52570,70080
52590,70040
52580,70040
52530,70090
52520,70100
52500,70140
" /> 
<polyline style="fill-rule:evenodd;"
points="50310,70700
50360,70640
50370,70610
50420,70520
50420,70510
50350,70570
50290,70620
50240,70650
50230,70650
50270,70690
50310,70700
" /> 
<polyline style="fill-rule:evenodd;"
points="52180,70340
52170,70290
52170,70270
52250,70230
52260,70230
52300,70220
52220,70210
52190,70210
52110,70220
52130,70270
52140,70290
52180,70340
" /> 
<polyline style="fill-rule:evenodd;"
points="52680,69230
52690,69210
52650,69110
52610,69060
52470,68950
52310,68910
52300,68920
52370,68950
52540,69040
52650,69180
52650,69190
52680,69230
" /> 
<polyline style="fill-rule:evenodd;"
points="49890,70540
49920,70520
49940,70500
49980,70390
49990,70340
49980,70330
49970,70350
49860,70360
49760,70340
49850,70380
49930,70440
49910,70520
49890,70540
" /> 
<polyline style="fill-rule:evenodd;"
points="51020,69420
51060,69410
51020,69360
50900,69320
50750,69310
50690,69320
50670,69330
50780,69330
50790,69330
50910,69350
50940,69400
50940,69410
50960,69410
50970,69390
51010,69410
51020,69420
" /> 
</g>
<g style="fill:#9F0000; fill-opacity:0.0; 
stroke:#9F0000; stroke-width:60; stroke-opacity:1; 
stroke-linecap:round; stroke-linejoin:round;">
<polyline fill="none;"
points="50800,70240
50800,70240
" /> 
<polyline fill="none;"
points="50800,70220
50800,70220
" /> 
<polyline fill="none;"
points="51060,71900
51060,71900
" /> 
<polyline fill="none;"
points="51080,71840
51080,71840
" /> 
<polyline fill="none;"
points="51140,71380
51140,71380
" /> 
<polyline fill="none;"
points="51660,70300
51660,70300
" /> 
<polyline fill="none;"
points="50980,71380
50880,71680
50880,71680
" /> 
<polyline fill="none;"
points="51020,71520
51040,71780
51040,71780
" /> 
<polyline fill="none;"
points="51080,71400
51080,71840
51080,71840
" /> 
<polyline fill="none;"
points="51100,70960
51100,70980
51100,70980
" /> 
<polyline fill="none;"
points="51200,70160
51140,70080
51140,70080
" /> 
<polyline fill="none;"
points="51280,70820
51300,70840
51300,70840
" /> 
<polyline fill="none;"
points="51320,70840
51280,70880
51280,70880
" /> 
<polyline fill="none;"
points="51360,71400
50980,71340
50980,71340
" /> 
<polyline fill="none;"
points="51360,71220
51800,71260
51800,71260
" /> 
<polyline fill="none;"
points="51580,71500
51140,71380
51140,71380
" /> 
<polyline fill="none;"
points="51620,71420
51360,71400
51360,71400
" /> 
<polyline fill="none;"
points="51620,71180
51840,71100
51840,71100
" /> 
<polyline fill="none;"
points="51800,71260
51840,71160
51840,71160
" /> 
<polyline fill="none;"
points="51160,70080
51140,70160
51140,70200
51140,70200
" /> 
<polyline fill="none;"
points="51300,71500
51360,71700
51320,71820
51320,71800
" /> 
<polyline fill="none;"
points="51460,71500
51480,71740
51480,71760
51480,71760
" /> 
<polyline fill="none;"
points="51620,70320
51540,70240
51460,70020
51460,70020
" /> 
<polyline fill="none;"
points="51140,71420
51240,71640
51160,71720
51220,71880
51220,71880
" /> 
<polyline fill="none;"
points="51300,70140
51560,70740
51560,70740
51580,70680
51580,70680
" /> 
<polyline fill="none;"
points="51540,70100
51760,70100
51840,70220
51720,70320
51720,70320
" /> 
<polyline fill="none;"
points="51580,70720
51380,70580
51180,70540
51120,70640
51080,70940
51080,70940
" /> 
<polyline fill="none;"
points="51600,71200
51360,71220
51060,71060
50900,70840
50580,70460
50580,70460
" /> 
<polyline fill="none;"
points="50940,70080
51220,70060
51240,70180
50960,70300
50720,70260
50820,70120
50820,70120
" /> 
<polyline fill="none;"
points="51460,70800
51280,70700
51220,70800
51220,70940
51360,70920
51440,70820
51440,70820
" /> 
<polyline fill="none;"
points="50040,70780
50080,71220
50420,71720
50780,71540
50780,71460
50420,71020
50340,70620
50040,70780
50040,70780
" /> 
<polyline fill="none;"
points="50980,70260
51080,70220
51080,70140
51040,70100
50920,70100
50840,70160
50860,70240
50940,70260
50940,70260
" /> 
<polyline fill="none;"
points="51580,70260
51720,70260
51740,70180
51700,70140
51580,70140
51540,70220
51580,70260
51580,70260
51600,70260
51600,70260
" /> 
<polyline fill="none;"
points="51920,70820
51760,70800
51700,70900
51700,70980
51760,71000
51820,70900
51860,70820
51800,70840
51740,70940
51740,70940
" /> 
<polyline fill="none;"
points="49960,70440
49760,70840
50060,70760
50340,70620
50540,70380
50620,70140
50680,69940
50900,69760
50300,69880
50100,70100
50000,70240
49940,70440
49940,70440
" /> 
<polyline fill="none;"
points="52160,70280
52260,70440
52340,70520
52040,70520
51720,70380
51600,70320
51680,70520
51760,70640
51940,70620
52000,70800
51840,71000
51880,71120
51760,71400
51580,71480
51580,71720
51320,71840
51080,71960
50780,71600
50800,71480
50620,71280
50420,71020
50360,70780
50340,70640
50520,70420
50660,70060
50900,69740
51020,69700
51120,69780
51360,69840
51540,69760
51800,69820
52040,70040
52180,70280
52180,70280
" /> 
<polyline fill="none;"
points="50640,69080
50520,69020
50440,69100
50380,68960
50280,69080
50180,68980
50120,69120
49980,68940
49960,69180
49780,69000
49800,69300
49540,69220
49740,69480
49400,69380
49720,69640
49340,69580
49780,69780
49340,69820
49840,69880
49420,70040
49900,69980
49580,70200
49980,70020
49900,70360
49760,70320
49920,70000
49520,70120
49780,69820
49420,69960
49740,69680
49320,69740
49740,69560
49340,69480
49760,69380
49420,69280
49880,69240
49620,69120
50060,69180
49860,68960
50200,69100
50120,68960
50300,69000
50560,69060
50560,69120
50560,69120
" /> 
<polyline fill="none;"
points="50740,69020
50660,69120
50500,69140
50320,69080
50220,69140
50040,69160
49800,69300
49740,69520
49780,69760
49880,69940
49980,69980
50280,69580
50560,69380
50940,69340
51100,69460
51400,69340
51720,69480
52000,69820
52040,69880
52200,69840
52360,69720
52360,69560
52280,69240
52140,69160
51920,69140
51780,69180
51680,69140
51640,69040
51820,69060
51920,69020
52040,68940
52260,68920
52620,69040
52740,69400
52740,69760
52620,70060
52180,70260
51980,69980
51820,69840
51540,69760
51320,69840
51120,69800
51040,69700
50720,69780
50340,69860
50120,70060
49980,70300
49940,70440
49700,70320
49500,70160
49340,69900
49300,69620
49400,69300
49660,69020
49880,68920
50120,68960
50260,68960
50360,68940
50480,68960
50620,69040
50700,69060
50720,69060
50720,69060
" /> 
<polyline fill="none;"
points="50020,69960
50040,70120
50100,69840
50160,69980
50200,69720
50240,69900
50260,69640
50360,69840
50340,69580
50460,69820
50480,69460
50540,69780
50620,69420
50640,69780
50760,69360
50760,69780
50880,69360
50900,69720
50980,69400
51040,69660
51140,69480
51140,69760
51240,69440
51260,69800
51380,69380
51400,69800
51480,69380
51500,69760
51600,69440
51640,69760
51740,69540
51740,69780
51840,69640
51840,69840
51940,69760
51940,69900
52040,69880
52040,70000
52180,69860
52180,70220
52080,70020
52280,70200
52220,69860
52380,70160
52300,69800
52460,70100
52380,69740
52600,70060
52380,69680
52640,69940
52400,69680
52700,69860
52400,69640
52740,69740
52380,69600
52720,69640
52380,69520
52720,69520
52360,69460
52720,69400
52340,69380
52700,69280
52300,69300
52660,69140
52300,69220
52540,69040
52220,69180
52400,68980
52120,69120
52260,68940
52040,69120
52060,68960
51940,69120
51940,69040
51820,69140
51700,69080
51700,69080
" /> 
</g>
<g style="fill:#9F0000; fill-opacity:0.0; 
stroke:#9F0000; stroke-width:120; stroke-opacity:1; 
stroke-linecap:round; stroke-linejoin:round;">
</g>
<g style="fill:#0000FF; fill-opacity:0.0; 
stroke:#0000FF; stroke-width:120; stroke-opacity:1; 
stroke-linecap:round; stroke-linejoin:round;">
<path d="M76670 74740
L77070 74740
L76740 75340
" />
<path d="M77350 75000
L77290 74970
L77270 74940
L77240 74890
L77250 74860
L77290 74800
L77320 74770
L77380 74740
L77490 74740
L77550 74770
L77580 74800
L77600 74860
L77590 74890
L77560 74940
L77520 74970
L77460 75000
L77350 75000
L77290 75030
L77250 75060
L77220 75110
L77200 75230
L77220 75290
L77250 75310
L77310 75340
L77420 75340
L77480 75310
L77510 75290
L77550 75230
L77570 75110
L77540 75060
L77520 75030
L77460 75000
" />
<path d="M77740 75340
L78100 74940
" />
<path d="M77790 74940
L78050 75340
" />
<path d="M78230 75340
L78590 74940
" />
<path d="M78280 74940
L78540 75340
" />
<path d="M79680 74740
L80020 74740
" />
<path d="M79780 75340
L79850 74740
" />
<path d="M80150 74940
L80240 75340
" />
<path d="M80430 74940
L80240 75340
L80160 75490
L80130 75510
L80070 75540
" />
<path d="M80660 74940
L80580 75540
" />
<path d="M80650 74970
L80720 74940
L80830 74940
L80880 74970
L80910 75000
L80930 75060
L80910 75230
L80870 75290
L80840 75310
L80780 75340
L80670 75340
L80610 75310
" />
<path d="M81380 75310
L81320 75340
L81210 75340
L81150 75310
L81130 75260
L81160 75030
L81190 74970
L81260 74940
L81370 74940
L81420 74970
L81450 75030
L81440 75090
L81140 75140
" />
<path d="M82470 75340
L82300 75060
" />
<path d="M82120 75340
L82190 74740
L82420 74740
L82480 74770
L82510 74800
L82530 74860
L82520 74940
L82480 75000
L82450 75030
L82380 75060
L82150 75060
" />
<path d="M82950 75310
L82890 75340
L82780 75340
L82720 75310
L82700 75260
L82730 75030
L82760 74970
L82830 74940
L82940 74940
L82990 74970
L83020 75030
L83010 75090
L82710 75140
" />
<path d="M83540 74940
L83480 75430
L83440 75490
L83410 75510
L83350 75540
L83260 75540
L83210 75510
" />
<path d="M83490 75310
L83430 75340
L83320 75340
L83260 75310
L83230 75290
L83210 75230
L83230 75060
L83270 75000
L83300 74970
L83370 74940
L83480 74940
L83530 74970
" />
<path d="M84080 74940
L84030 75340
" />
<path d="M83820 74940
L83780 75260
L83800 75310
L83860 75340
L83940 75340
L84000 75310
L84030 75290
" />
<path d="M84400 75340
L84340 75310
L84320 75260
L84380 74740
" />
<path d="M84880 75340
L84920 75030
L84890 74970
L84840 74940
L84730 74940
L84660 74970
" />
<path d="M84880 75310
L84820 75340
L84680 75340
L84620 75310
L84600 75260
L84610 75200
L84640 75140
L84710 75110
L84850 75110
L84910 75090
" />
<path d="M85130 74940
L85360 74940
" />
<path d="M85230 74740
L85170 75260
L85190 75310
L85250 75340
L85310 75340
" />
<path d="M85590 75340
L85530 75310
L85500 75290
L85480 75230
L85500 75060
L85540 75000
L85570 74970
L85640 74940
L85720 74940
L85770 74970
L85800 75000
L85820 75060
L85800 75230
L85760 75290
L85730 75310
L85670 75340
L85590 75340
" />
<path d="M86040 75340
L86090 74940
" />
<path d="M86070 75060
L86110 75000
L86140 74970
L86210 74940
L86260 74940
" />
<path d="M86410 75290
L86440 75310
L86410 75340
L86380 75310
L86410 75290
L86410 75340
" />
<path d="M87160 75340
L87230 74740
L87380 75170
L87630 74740
L87560 75340
" />
<path d="M87940 75340
L87880 75310
L87850 75290
L87830 75230
L87850 75060
L87890 75000
L87920 74970
L87990 74940
L88070 74940
L88120 74970
L88150 75000
L88170 75060
L88150 75230
L88110 75290
L88080 75310
L88020 75340
L87940 75340
" />
<path d="M88650 75340
L88720 74740
" />
<path d="M88650 75310
L88590 75340
L88480 75340
L88420 75310
L88390 75290
L88370 75230
L88390 75060
L88430 75000
L88460 74970
L88530 74940
L88640 74940
L88690 74970
" />
<path d="M88930 75290
L88960 75310
L88930 75340
L88900 75310
L88930 75290
L88930 75340
" />
<path d="M89460 75030
L89540 75060
L89570 75090
L89590 75140
L89580 75230
L89540 75290
L89510 75310
L89450 75340
L89220 75340
L89290 74740
L89490 74740
L89550 74770
L89580 74800
L89600 74860
L89590 74910
L89550 74970
L89520 75000
L89460 75030
L89260 75030
" />
<path d="M89850 75310
L89850 75340
L89810 75400
L89780 75430
" />
<path d="M90920 75340
L90750 75060
" />
<path d="M90570 75340
L90640 74740
L90870 74740
L90930 74770
L90960 74800
L90980 74860
L90970 74940
L90930 75000
L90900 75030
L90830 75060
L90600 75060
" />
<path d="M91400 75310
L91340 75340
L91230 75340
L91170 75310
L91150 75260
L91180 75030
L91210 74970
L91280 74940
L91390 74940
L91440 74970
L91470 75030
L91460 75090
L91160 75140
" />
<path d="M91680 74940
L91770 75340
L91960 74940
" />
<path d="M92140 75290
L92170 75310
L92140 75340
L92110 75310
L92140 75290
L92140 75340
" />
<path d="M92420 75170
L92710 75170
" />
<path d="M92350 75340
L92620 74740
L92750 75340
" />
<path d="M93720 75340
L93370 75340
" />
<path d="M93550 75340
L93620 74740
L93550 74830
L93480 74890
L93420 74910
" />
<path d="M94000 75340
L94120 75340
L94170 75310
L94200 75290
L94280 75200
L94320 75090
L94350 74860
L94330 74800
L94300 74770
L94240 74740
L94130 74740
L94070 74770
L94040 74800
L94000 74860
L93980 75000
L94000 75060
L94030 75090
L94090 75110
L94200 75110
L94260 75090
L94290 75060
L94330 75000
" />
<path d="M94530 75170
L94820 75170
" />
<path d="M94460 75340
L94730 74740
L94860 75340
" />
<path d="M95100 74940
L95020 75540
" />
<path d="M95090 74970
L95160 74940
L95270 74940
L95320 74970
L95350 75000
L95370 75060
L95350 75230
L95310 75290
L95280 75310
L95220 75340
L95110 75340
L95050 75310
" />
<path d="M95590 75340
L95640 74940
" />
<path d="M95620 75060
L95660 75000
L95690 74970
L95760 74940
L95810 74940
" />
<path d="M96000 74800
L96030 74770
L96090 74740
L96230 74740
L96290 74770
L96320 74800
L96340 74860
L96330 74910
L96290 75000
L95910 75340
L96280 75340
" />
<path d="M96720 74740
L96770 74740
L96830 74770
L96860 74800
L96880 74860
L96890 74970
L96880 75110
L96830 75230
L96790 75290
L96760 75310
L96700 75340
L96650 75340
L96590 75310
L96560 75290
L96540 75230
L96530 75110
L96540 74970
L96590 74860
L96630 74800
L96660 74770
L96720 74740
" />
<path d="M97420 75340
L97070 75340
" />
<path d="M97250 75340
L97320 74740
L97250 74830
L97180 74890
L97120 74910
" />
<path d="M97990 75340
L97640 75340
" />
<path d="M97820 75340
L97890 74740
L97820 74830
L97750 74890
L97690 74910
" />
<path d="M14140 72670
L14430 72670
" />
<path d="M14070 72840
L14340 72240
L14470 72840
" />
<path d="M14970 72440
L14920 72840
" />
<path d="M14710 72440
L14670 72760
L14690 72810
L14750 72840
L14830 72840
L14890 72810
L14920 72790
" />
<path d="M15170 72440
L15400 72440
" />
<path d="M15270 72240
L15210 72760
L15230 72810
L15290 72840
L15350 72840
" />
<path d="M15540 72840
L15610 72240
" />
<path d="M15800 72840
L15840 72530
L15810 72470
L15760 72440
L15680 72440
L15610 72470
L15580 72500
" />
<path d="M16170 72840
L16110 72810
L16080 72790
L16060 72730
L16080 72560
L16120 72500
L16150 72470
L16220 72440
L16300 72440
L16350 72470
L16380 72500
L16400 72560
L16380 72730
L16340 72790
L16310 72810
L16250 72840
L16170 72840
" />
<path d="M16620 72840
L16670 72440
" />
<path d="M16650 72560
L16690 72500
L16720 72470
L16790 72440
L16840 72440
" />
<path d="M16990 72790
L17020 72810
L16990 72840
L16960 72810
L16990 72790
L16990 72840
" />
<path d="M17030 72470
L17060 72500
L17030 72530
L17000 72500
L17030 72470
L17030 72530
" />
<path d="M17980 72530
L18060 72560
L18090 72590
L18110 72640
L18100 72730
L18060 72790
L18030 72810
L17970 72840
L17740 72840
L17810 72240
L18010 72240
L18070 72270
L18100 72300
L18120 72360
L18110 72410
L18070 72470
L18040 72500
L17980 72530
L17780 72530
" />
<path d="M18570 72810
L18510 72840
L18400 72840
L18340 72810
L18320 72760
L18350 72530
L18380 72470
L18450 72440
L18560 72440
L18610 72470
L18640 72530
L18630 72590
L18330 72640
" />
<path d="M18850 72840
L18900 72440
" />
<path d="M18880 72560
L18920 72500
L18950 72470
L19020 72440
L19070 72440
" />
<path d="M19270 72440
L19220 72840
" />
<path d="M19260 72500
L19290 72470
L19360 72440
L19440 72440
L19490 72470
L19520 72530
L19480 72840
" />
<path d="M20020 72840
L20090 72240
" />
<path d="M20020 72810
L19960 72840
L19850 72840
L19790 72810
L19760 72790
L19740 72730
L19760 72560
L19800 72500
L19830 72470
L19900 72440
L20010 72440
L20060 72470
" />
<path d="M20780 72240
L20850 72840
L21010 72410
L21080 72840
L21290 72240
" />
<path d="M21450 72840
L21500 72440
" />
<path d="M21520 72240
L21490 72270
L21520 72300
L21550 72270
L21520 72240
L21520 72300
" />
<path d="M21970 72810
L21910 72840
L21800 72840
L21740 72810
L21720 72760
L21750 72530
L21780 72470
L21850 72440
L21960 72440
L22010 72470
L22040 72530
L22030 72590
L21730 72640
" />
<path d="M22250 72840
L22320 72240
" />
<path d="M22290 72470
L22360 72440
L22470 72440
L22520 72470
L22550 72500
L22570 72560
L22550 72730
L22510 72790
L22480 72810
L22420 72840
L22310 72840
L22250 72810
" />
<path d="M23100 72440
L23050 72840
" />
<path d="M22840 72440
L22800 72760
L22820 72810
L22880 72840
L22960 72840
L23020 72810
L23050 72790
" />
<path d="M23300 72810
L23360 72840
L23480 72840
L23530 72810
L23570 72760
L23570 72730
L23550 72670
L23500 72640
L23410 72640
L23360 72610
L23330 72560
L23340 72530
L23370 72470
L23440 72440
L23530 72440
L23570 72470
" />
<path d="M23850 72810
L23850 72840
L23810 72900
L23780 72930
" />
<path d="M24640 72240
L24580 72730
L24600 72790
L24630 72810
L24690 72840
L24800 72840
L24860 72810
L24890 72790
L24930 72730
L24990 72240
" />
<path d="M25430 72810
L25370 72840
L25260 72840
L25200 72810
L25180 72760
L25210 72530
L25240 72470
L25310 72440
L25420 72440
L25470 72470
L25500 72530
L25490 72590
L25190 72640
" />
<path d="M25970 72840
L26040 72240
" />
<path d="M25970 72810
L25910 72840
L25800 72840
L25740 72810
L25710 72790
L25690 72730
L25710 72560
L25750 72500
L25780 72470
L25850 72440
L25960 72440
L26010 72470
" />
<path d="M26480 72810
L26420 72840
L26310 72840
L26250 72810
L26230 72760
L26260 72530
L26290 72470
L26360 72440
L26470 72440
L26520 72470
L26550 72530
L26540 72590
L26240 72640
" />
<path d="M26760 72840
L26810 72440
" />
<path d="M26800 72500
L26830 72470
L26900 72440
L26980 72440
L27030 72470
L27060 72530
L27020 72840
" />
<path d="M27060 72530
L27090 72470
L27160 72440
L27240 72440
L27290 72470
L27320 72530
L27280 72840
" />
<path d="M28530 72210
L27920 72990
" />
<path d="M29500 72270
L29440 72240
L29350 72240
L29270 72270
L29200 72330
L29160 72390
L29120 72500
L29110 72590
L29130 72700
L29150 72760
L29200 72810
L29280 72840
L29340 72840
L29430 72810
L29460 72790
L29490 72590
L29370 72590
" />
<path d="M29940 72810
L29880 72840
L29770 72840
L29710 72810
L29690 72760
L29720 72530
L29750 72470
L29820 72440
L29930 72440
L29980 72470
L30010 72530
L30000 72590
L29700 72640
" />
<path d="M30220 72840
L30270 72440
" />
<path d="M30250 72560
L30290 72500
L30320 72470
L30390 72440
L30440 72440
" />
<path d="M30590 72840
L30640 72440
" />
<path d="M30630 72500
L30660 72470
L30730 72440
L30810 72440
L30860 72470
L30890 72530
L30850 72840
" />
<path d="M30890 72530
L30920 72470
L30990 72440
L31070 72440
L31120 72470
L31150 72530
L31110 72840
" />
<path d="M31650 72840
L31690 72530
L31660 72470
L31610 72440
L31500 72440
L31430 72470
" />
<path d="M31650 72810
L31590 72840
L31450 72840
L31390 72810
L31370 72760
L31380 72700
L31410 72640
L31480 72610
L31620 72610
L31680 72590
" />
<path d="M31980 72440
L31930 72840
" />
<path d="M31970 72500
L32000 72470
L32070 72440
L32150 72440
L32200 72470
L32230 72530
L32190 72840
" />
<path d="M32470 72440
L32560 72840
" />
<path d="M32750 72440
L32560 72840
L32480 72990
L32450 73010
L32390 73040
" />
<path d="M32960 72810
L32960 72840
L32920 72900
L32890 72930
" />
<path d="M34000 72840
L33650 72840
" />
<path d="M33830 72840
L33900 72240
L33830 72330
L33760 72390
L33700 72410
" />
<path d="M34280 72840
L34400 72840
L34450 72810
L34480 72790
L34560 72700
L34600 72590
L34630 72360
L34610 72300
L34580 72270
L34520 72240
L34410 72240
L34350 72270
L34320 72300
L34280 72360
L34260 72500
L34280 72560
L34310 72590
L34370 72610
L34480 72610
L34540 72590
L34570 72560
L34610 72500
" />
<path d="M35270 72670
L35560 72670
" />
<path d="M35200 72840
L35470 72240
L35600 72840
" />
<path d="M35840 72440
L35760 73040
" />
<path d="M35830 72470
L35900 72440
L36010 72440
L36060 72470
L36090 72500
L36110 72560
L36090 72730
L36050 72790
L36020 72810
L35960 72840
L35850 72840
L35790 72810
" />
<path d="M36330 72840
L36380 72440
" />
<path d="M36360 72560
L36400 72500
L36430 72470
L36500 72440
L36550 72440
" />
<path d="M36700 72840
L36750 72440
" />
<path d="M36770 72240
L36740 72270
L36770 72300
L36800 72270
L36770 72240
L36770 72300
" />
<path d="M37080 72840
L37020 72810
L37000 72760
L37060 72240
" />
<path d="M37800 72300
L37830 72270
L37890 72240
L38030 72240
L38090 72270
L38120 72300
L38140 72360
L38130 72410
L38090 72500
L37710 72840
L38080 72840
" />
<path d="M38520 72240
L38570 72240
L38630 72270
L38660 72300
L38680 72360
L38690 72470
L38680 72610
L38630 72730
L38590 72790
L38560 72810
L38500 72840
L38450 72840
L38390 72810
L38360 72790
L38340 72730
L38330 72610
L38340 72470
L38390 72360
L38430 72300
L38460 72270
L38520 72240
" />
<path d="M39220 72840
L38870 72840
" />
<path d="M39050 72840
L39120 72240
L39050 72330
L38980 72390
L38920 72410
" />
<path d="M39790 72840
L39440 72840
" />
<path d="M39620 72840
L39690 72240
L39620 72330
L39550 72390
L39490 72410
" />
</g>
<g style="fill:#0000FF; fill-opacity:0.0; 
stroke:#0000FF; stroke-width:0; stroke-opacity:1; 
stroke-linecap:round; stroke-linejoin:round;">
</g>
<g style="fill:#9F0000; fill-opacity:0.0; 
stroke:#9F0000; stroke-width:60; stroke-opacity:1; 
stroke-linecap:round; stroke-linejoin:round;">
<rect x="53500" y="25000" width="6000" height="3000" rx="0" />
<path d="M53500 26500
L50500 26500
" />
</g>
<g style="fill:#009F9F; fill-opacity:0.0; 
stroke:#009F9F; stroke-width:60; stroke-opacity:1; 
stroke-linecap:round; stroke-linejoin:round;">
<path d="M51520 25850
L51520 26260
L51540 26300
L51570 26330
L51610 26350
L51710 26350
L51760 26330
L51780 26300
L51800 26260
L51800 25850
" />
<path d="M52040 26350
L52040 26020
" />
<path d="M52040 25850
L52020 25880
L52040 25900
L52060 25880
L52040 25850
L52040 25900
" />
<path d="M52280 26020
L52280 26350
" />
<path d="M52280 26070
L52300 26040
L52350 26020
L52420 26020
L52470 26040
L52490 26090
L52490 26350
" />
</g>
<g style="fill:#9F0000; fill-opacity:0.0; 
stroke:#9F0000; stroke-width:60; stroke-opacity:1; 
stroke-linecap:round; stroke-linejoin:round;">
<path d="M52140 27050
L51860 27050
" />
<path d="M52000 27050
L52000 26550
L51950 26620
L51900 26670
L51860 26700
" />
<path d="M56500 28000
L56500 31000
" />
</g>
<g style="fill:#009F9F; fill-opacity:0.0; 
stroke:#009F9F; stroke-width:60; stroke-opacity:1; 
stroke-linecap:round; stroke-linejoin:round;">
<path d="M55880 29880
L55850 29930
L55850 30000
L55880 30070
L55920 30120
L55970 30140
L56070 30160
L56140 30160
L56230 30140
L56280 30120
L56330 30070
L56350 30000
L56350 29950
L56330 29880
L56300 29860
L56140 29860
L56140 29950
" />
<path d="M56350 29640
L55850 29640
L56350 29360
L55850 29360
" />
<path d="M56350 29120
L55850 29120
L55850 29000
L55880 28930
L55920 28880
L55970 28860
L56070 28840
L56140 28840
L56230 28860
L56280 28880
L56330 28930
L56350 29000
L56350 29120
" />
</g>
<g style="fill:#9F0000; fill-opacity:0.0; 
stroke:#9F0000; stroke-width:60; stroke-opacity:1; 
stroke-linecap:round; stroke-linejoin:round;">
<path d="M56600 29640
L56580 29620
L56550 29570
L56550 29450
L56580 29410
L56600 29380
L56650 29360
L56700 29360
L56770 29380
L57050 29670
L57050 29360
" />
<path d="M59500 26500
L62500 26500
" />
</g>
<g style="fill:#009F9F; fill-opacity:0.0; 
stroke:#009F9F; stroke-width:60; stroke-opacity:1; 
stroke-linecap:round; stroke-linejoin:round;">
<path d="M60270 25850
L60270 26260
L60290 26300
L60320 26330
L60360 26350
L60460 26350
L60510 26330
L60530 26300
L60550 26260
L60550 25850
" />
<path d="M60860 26350
L60810 26330
L60790 26300
L60770 26260
L60770 26110
L60790 26070
L60810 26040
L60860 26020
L60930 26020
L60980 26040
L61000 26070
L61030 26110
L61030 26260
L61000 26300
L60980 26330
L60930 26350
L60860 26350
" />
<path d="M61450 26020
L61450 26350
" />
<path d="M61240 26020
L61240 26280
L61260 26330
L61310 26350
L61380 26350
L61430 26330
L61450 26300
" />
<path d="M61620 26020
L61810 26020
" />
<path d="M61690 25850
L61690 26280
L61710 26330
L61760 26350
L61810 26350
" />
</g>
<g style="fill:#9F0000; fill-opacity:0.0; 
stroke:#9F0000; stroke-width:60; stroke-opacity:1; 
stroke-linecap:round; stroke-linejoin:round;">
<path d="M60830 26550
L61140 26550
L60970 26740
L61050 26740
L61090 26770
L61120 26790
L61140 26840
L61140 26960
L61120 27000
L61090 27030
L61050 27050
L60900 27050
L60860 27030
L60830 27000
" />
</g>
<g style="fill:#009F9F; fill-opacity:0.0; 
stroke:#009F9F; stroke-width:50; stroke-opacity:1; 
stroke-linecap:round; stroke-linejoin:round;">
<path d="M59210 29600
L59210 29300
" />
<path d="M59520 29570
L59510 29590
L59470 29600
L59440 29600
L59390 29590
L59370 29560
L59350 29530
L59340 29470
L59340 29430
L59350 29370
L59370 29340
L59390 29320
L59440 29300
L59470 29300
L59510 29320
L59520 29330
" />
<path d="M59810 29600
L59640 29600
" />
<path d="M59720 29600
L59720 29300
L59690 29340
L59670 29370
L59640 29390
" />
<path d="M55810 24100
L55670 24100
L55670 23800
" />
<path d="M55910 24100
L55910 23800
L56010 24020
L56110 23800
L56110 24100
" />
<path d="M56220 23800
L56420 23800
L56290 24100
" />
<path d="M56580 23930
L56560 23920
L56540 23900
L56530 23870
L56530 23860
L56540 23830
L56560 23820
L56580 23800
L56640 23800
L56670 23820
L56680 23830
L56700 23860
L56700 23870
L56680 23900
L56670 23920
L56640 23930
L56580 23930
L56560 23940
L56540 23960
L56530 23990
L56530 24040
L56540 24070
L56560 24090
L56580 24100
L56640 24100
L56670 24090
L56680 24070
L56700 24040
L56700 23990
L56680 23960
L56670 23940
L56640 23930
" />
<path d="M56800 23800
L57000 24100
" />
<path d="M57000 23800
L56800 24100
" />
<path d="M57090 23800
L57290 24100
" />
<path d="M57290 23800
L57090 24100
" />
<path d="M57370 23800
L57540 23800
" />
<path d="M57450 24100
L57450 23800
" />
<path d="M57700 23960
L57700 24100
" />
<path d="M57600 23800
L57700 23960
L57800 23800
" />
<path d="M57900 24100
L57900 23800
L58020 23800
L58040 23820
L58060 23830
L58070 23860
L58070 23900
L58060 23930
L58040 23940
L58020 23960
L57900 23960
" />
<path d="M58200 23940
L58300 23940
" />
<path d="M58340 24100
L58200 24100
L58200 23800
L58340 23800
" />
</g>
<g style="fill:#009F9F; fill-opacity:0.0; 
stroke:#009F9F; stroke-width:60; stroke-opacity:1; 
stroke-linecap:round; stroke-linejoin:round;">
</g>
<g style="fill:#7F7F00; fill-opacity:0.0; 
stroke:#7F7F00; stroke-width:60; stroke-opacity:1; 
stroke-linecap:round; stroke-linejoin:round;">
<path d="M77220 38170
L77160 38140
L77070 38140
L76990 38170
L76930 38230
L76900 38290
L76870 38400
L76870 38490
L76900 38600
L76930 38660
L76990 38710
L77070 38740
L77130 38740
L77220 38710
L77250 38690
L77250 38490
L77130 38490
" />
<path d="M77500 38740
L77500 38140
L77850 38740
L77850 38140
" />
<path d="M78130 38740
L78130 38140
L78280 38140
L78360 38170
L78420 38230
L78450 38290
L78480 38400
L78480 38490
L78450 38600
L78420 38660
L78360 38710
L78280 38740
L78130 38740
" />
</g>
<g style="fill:#7F7F00; fill-opacity:0.0; 
stroke:#7F7F00; stroke-width:100; stroke-opacity:1; 
stroke-linecap:round; stroke-linejoin:round;">
<polyline fill="none;"
points="76600,38500
76300,38200
76000,38200
76000,38800
76300,38800
76600,38500
" /> 
</g>
<g style="fill:#7F7F00; fill-opacity:0.0; 
stroke:#7F7F00; stroke-width:60; stroke-opacity:1; 
stroke-linecap:round; stroke-linejoin:round;">
<path d="M76870 26710
L76960 26740
L77100 26740
L77160 26710
L77190 26690
L77220 26630
L77220 26570
L77190 26510
L77160 26490
L77100 26460
L76990 26430
L76930 26400
L76900 26370
L76870 26310
L76870 26260
L76900 26200
L76930 26170
L76990 26140
L77130 26140
L77220 26170
" />
<path d="M77390 26340
L77620 26340
" />
<path d="M77470 26140
L77470 26660
L77500 26710
L77560 26740
L77620 26740
" />
<path d="M78070 26740
L78070 26430
L78040 26370
L77980 26340
L77870 26340
L77810 26370
" />
<path d="M78070 26710
L78010 26740
L77870 26740
L77810 26710
L77780 26660
L77780 26600
L77810 26540
L77870 26510
L78010 26510
L78070 26490
" />
<path d="M78350 26740
L78350 26140
" />
<path d="M78350 26370
L78410 26340
L78520 26340
L78580 26370
L78610 26400
L78640 26460
L78640 26630
L78610 26690
L78580 26710
L78520 26740
L78410 26740
L78350 26710
" />
</g>
<g style="fill:#7F7F00; fill-opacity:0.0; 
stroke:#7F7F00; stroke-width:100; stroke-opacity:1; 
stroke-linecap:round; stroke-linejoin:round;">
<polyline fill="none;"
points="76600,26500
76300,26200
76000,26200
76000,26800
76300,26800
76600,26500
" /> 
</g>
<g style="fill:#7F7F00; fill-opacity:0.0; 
stroke:#7F7F00; stroke-width:60; stroke-opacity:1; 
stroke-linecap:round; stroke-linejoin:round;">
<path d="M35610 38740
L35610 38140
L35760 38140
L35840 38170
L35900 38230
L35930 38290
L35960 38400
L35960 38490
L35930 38600
L35900 38660
L35840 38710
L35760 38740
L35610 38740
" />
<path d="M36560 38690
L36530 38710
L36440 38740
L36380 38740
L36300 38710
L36240 38660
L36210 38600
L36180 38490
L36180 38400
L36210 38290
L36240 38230
L36300 38170
L36380 38140
L36440 38140
L36530 38170
L36560 38200
" />
<path d="M36810 38740
L36810 38340
" />
<path d="M36810 38140
L36780 38170
L36810 38200
L36840 38170
L36810 38140
L36810 38200
" />
<path d="M37100 38340
L37100 38740
" />
<path d="M37100 38400
L37130 38370
L37190 38340
L37270 38340
L37330 38370
L37360 38430
L37360 38740
" />
<path d="M37640 38510
L38100 38510
" />
</g>
<g style="fill:#7F7F00; fill-opacity:0.0; 
stroke:#7F7F00; stroke-width:100; stroke-opacity:1; 
stroke-linecap:round; stroke-linejoin:round;">
<polyline fill="none;"
points="39000,38500
38700,38200
38400,38200
38400,38800
38700,38800
39000,38500
" /> 
</g>
<g style="fill:#7F7F00; fill-opacity:0.0; 
stroke:#7F7F00; stroke-width:60; stroke-opacity:1; 
stroke-linecap:round; stroke-linejoin:round;">
<path d="M35610 26740
L35610 26140
L35760 26140
L35840 26170
L35900 26230
L35930 26290
L35960 26400
L35960 26490
L35930 26600
L35900 26660
L35840 26710
L35760 26740
L35610 26740
" />
<path d="M36560 26690
L36530 26710
L36440 26740
L36380 26740
L36300 26710
L36240 26660
L36210 26600
L36180 26490
L36180 26400
L36210 26290
L36240 26230
L36300 26170
L36380 26140
L36440 26140
L36530 26170
L36560 26200
" />
<path d="M36810 26740
L36810 26340
" />
<path d="M36810 26140
L36780 26170
L36810 26200
L36840 26170
L36810 26140
L36810 26200
" />
<path d="M37100 26340
L37100 26740
" />
<path d="M37100 26400
L37130 26370
L37190 26340
L37270 26340
L37330 26370
L37360 26430
L37360 26740
" />
<path d="M37640 26510
L38100 26510
" />
<path d="M37870 26740
L37870 26290
" />
</g>
<g style="fill:#7F7F00; fill-opacity:0.0; 
stroke:#7F7F00; stroke-width:100; stroke-opacity:1; 
stroke-linecap:round; stroke-linejoin:round;">
<polyline fill="none;"
points="39000,26500
38700,26200
38400,26200
38400,26800
38700,26800
39000,26500
" /> 
</g>
<g style="fill:#7F7F00; fill-opacity:0.0; 
stroke:#7F7F00; stroke-width:0; stroke-opacity:1; 
stroke-linecap:round; stroke-linejoin:round;">
</g>
<g style="fill:#9F0000; fill-opacity:0.0; 
stroke:#9F0000; stroke-width:60; stroke-opacity:1; 
stroke-linecap:round; stroke-linejoin:round;">
<polyline fill="none;"
points="43850,31450
43850,31450
" /> 
<polyline fill="none;"
points="43700,31500
43700,31500
" /> 
<polyline fill="none;"
points="43700,31500
43700,31500
" /> 
<polyline fill="none;"
points="43700,31500
43700,31500
" /> 
<polyline fill="none;"
points="43800,31250
43800,31200
43800,31200
" /> 
<polyline fill="none;"
points="43800,31250
43750,31250
43750,31250
" /> 
<polyline fill="none;"
points="43800,31350
43750,31350
43750,31350
" /> 
<polyline fill="none;"
points="43800,31400
43750,31400
43750,31400
" /> 
<polyline fill="none;"
points="43550,31450
43550,31500
43550,31500
" /> 
<polyline fill="none;"
points="43600,31450
43600,31500
43600,31500
" /> 
<polyline fill="none;"
points="43650,31450
43650,31500
43650,31500
" /> 
<polyline fill="none;"
points="43700,31450
43700,31500
43700,31500
" /> 
<polyline fill="none;"
points="43750,31450
43500,31450
43500,31450
" /> 
<polyline fill="none;"
points="43800,31450
43800,31250
43800,31250
" /> 
<polyline fill="none;"
points="43800,31450
43750,31450
43750,31450
" /> 
<polyline fill="none;"
points="43800,31450
43800,31500
43800,31500
" /> 
<polyline fill="none;"
points="43850,31450
43850,31500
43850,31500
" /> 
<polyline fill="none;"
points="43850,31500
43850,31450
43850,31450
" /> 
<polyline fill="none;"
points="44000,31500
44000,31450
44000,31450
" /> 
<polyline fill="none;"
points="44000,31500
44050,31500
44050,31500
" /> 
<polyline fill="none;"
points="43750,31550
43750,31550
43750,31550
" /> 
<polyline fill="none;"
points="43750,31550
43750,31550
43750,31550
" /> 
<polyline fill="none;"
points="43800,31550
43750,31550
43750,31550
" /> 
<polyline fill="none;"
points="43800,31600
43750,31600
43750,31600
" /> 
<polyline fill="none;"
points="43800,31650
43750,31650
43750,31650
" /> 
<polyline fill="none;"
points="43800,31700
43750,31700
43750,31700
" /> 
<polyline fill="none;"
points="43750,31300
43750,31300
43800,31300
43800,31300
" /> 
<polyline fill="none;"
points="43850,31450
43850,31500
43850,31500
43850,31500
" /> 
<polyline fill="none;"
points="43900,31450
43900,31500
43900,31500
43900,31500
" /> 
<polyline fill="none;"
points="43950,31450
43950,31500
43950,31500
43950,31500
" /> 
<polyline fill="none;"
points="43800,31500
43500,31500
43500,31450
43500,31450
" /> 
<polyline fill="none;"
points="44050,31500
44050,31450
43800,31450
43800,31450
" /> 
<polyline fill="none;"
points="43800,31200
43750,31200
43750,31750
43800,31750
43800,31750
" /> 
<polyline fill="none;"
points="43800,31750
43800,31500
44000,31500
44000,31500
44000,31500
44000,31500
" /> 
<path d="M43000 32000
L43000 30500
" />
<path d="M43000 33000
L43000 34500
" />
</g>
<g style="fill:#9F0000; fill-opacity:1.0; 
stroke:#9F0000; stroke-width:60; stroke-opacity:1; 
stroke-linecap:round; stroke-linejoin:round;">
<polyline style="fill-rule:evenodd;"
points="43000,32000
43000,32250
43000,32250
" /> 
<polyline style="fill-rule:evenodd;"
points="44000,32250
42000,32250
42000,32250
" /> 
<polyline style="fill-rule:evenodd;"
points="42000,32750
42250,32750
42250,32750
" /> 
<polyline style="fill-rule:evenodd;"
points="42250,32750
42250,32750
42250,32750
" /> 
<polyline style="fill-rule:evenodd;"
points="44000,32750
42250,32750
42250,32750
" /> 
<polyline style="fill-rule:evenodd;"
points="43000,33000
43000,32750
43000,32750
" /> 
</g>
<g style="fill:#009F9F; fill-opacity:0.0; 
stroke:#009F9F; stroke-width:50; stroke-opacity:1; 
stroke-linecap:round; stroke-linejoin:round;">
<path d="M44610 32550
L44630 32560
L44640 32600
L44640 32630
L44630 32680
L44600 32700
L44570 32720
L44510 32730
L44470 32730
L44410 32720
L44380 32700
L44360 32680
L44340 32630
L44340 32600
L44360 32560
L44370 32550
" />
<path d="M44640 32260
L44640 32430
" />
<path d="M44640 32350
L44340 32350
L44380 32380
L44410 32400
L44430 32430
" />
<path d="M41610 37380
L41630 37390
L41640 37430
L41640 37460
L41630 37510
L41600 37530
L41570 37550
L41510 37560
L41470 37560
L41410 37550
L41380 37530
L41360 37510
L41340 37460
L41340 37430
L41360 37390
L41370 37380
" />
<path d="M41560 37260
L41560 37120
" />
<path d="M41640 37290
L41340 37190
L41640 37090
" />
<path d="M41640 36990
L41340 36990
L41340 36870
L41360 36850
L41370 36830
L41400 36820
L41440 36820
L41470 36830
L41480 36850
L41500 36870
L41500 36990
" />
<path d="M41560 36700
L41560 36560
" />
<path d="M41640 36730
L41340 36630
L41640 36530
" />
<path d="M41610 36260
L41630 36270
L41640 36310
L41640 36340
L41630 36390
L41600 36410
L41570 36430
L41510 36440
L41470 36440
L41410 36430
L41380 36410
L41360 36390
L41340 36340
L41340 36310
L41360 36270
L41370 36260
" />
<path d="M41640 36130
L41340 36130
" />
<path d="M41340 36030
L41340 35860
" />
<path d="M41640 35950
L41340 35950
" />
<path d="M41340 35700
L41340 35640
L41360 35620
L41380 35590
L41440 35570
L41540 35570
L41600 35590
L41630 35620
L41640 35640
L41640 35700
L41630 35730
L41600 35760
L41540 35770
L41440 35770
L41380 35760
L41360 35730
L41340 35700
" />
<path d="M41640 35280
L41500 35380
" />
<path d="M41640 35450
L41340 35450
L41340 35330
L41360 35310
L41370 35290
L41400 35280
L41440 35280
L41470 35290
L41480 35310
L41500 35330
L41500 35450
" />
<path d="M41670 35220
L41670 34990
" />
<path d="M41640 34920
L41340 34920
L41340 34800
L41360 34780
L41370 34760
L41400 34750
L41440 34750
L41470 34760
L41480 34780
L41500 34800
L41500 34920
" />
<path d="M41340 34560
L41340 34500
L41360 34480
L41380 34450
L41440 34430
L41540 34430
L41600 34450
L41630 34480
L41640 34500
L41640 34560
L41630 34590
L41600 34620
L41540 34630
L41440 34630
L41380 34620
L41360 34590
L41340 34560
" />
<path d="M41640 34170
L41640 34310
L41340 34310
" />
<path d="M41560 34080
L41560 33940
" />
<path d="M41640 34110
L41340 34010
L41640 33910
" />
<path d="M41640 33640
L41500 33740
" />
<path d="M41640 33810
L41340 33810
L41340 33690
L41360 33670
L41370 33650
L41400 33640
L41440 33640
L41470 33650
L41480 33670
L41500 33690
L41500 33810
" />
<path d="M41640 33510
L41340 33510
" />
<path d="M41630 33380
L41640 33340
L41640 33270
L41630 33240
L41610 33230
L41580 33210
L41560 33210
L41530 33230
L41510 33240
L41500 33270
L41480 33330
L41470 33350
L41460 33370
L41430 33380
L41400 33380
L41370 33370
L41360 33350
L41340 33330
L41340 33250
L41360 33210
" />
<path d="M41480 33080
L41480 32980
" />
<path d="M41640 32940
L41640 33080
L41340 33080
L41340 32940
" />
<path d="M41640 32810
L41340 32810
L41340 32740
L41360 32690
L41380 32670
L41410 32650
L41470 32640
L41510 32640
L41570 32650
L41600 32670
L41630 32690
L41640 32740
L41640 32810
" />
<path d="M41670 32580
L41670 32350
" />
<path d="M41640 32110
L41500 32210
" />
<path d="M41640 32280
L41340 32280
L41340 32160
L41360 32140
L41370 32120
L41400 32110
L41440 32110
L41470 32120
L41480 32140
L41500 32160
L41500 32280
" />
<path d="M41480 31980
L41480 31880
" />
<path d="M41640 31840
L41640 31980
L41340 31980
L41340 31840
" />
<path d="M41340 31750
L41640 31650
L41340 31550
" />
<path d="M41480 31450
L41480 31350
" />
<path d="M41640 31310
L41640 31450
L41340 31450
L41340 31310
" />
<path d="M41670 31250
L41670 31020
" />
<path d="M41640 30950
L41340 30950
L41340 30880
L41360 30830
L41380 30810
L41410 30790
L41470 30780
L41510 30780
L41570 30790
L41600 30810
L41630 30830
L41640 30880
L41640 30950
" />
<path d="M41560 30660
L41560 30520
" />
<path d="M41640 30690
L41340 30590
L41640 30490
" />
<path d="M41340 30430
L41340 30260
" />
<path d="M41640 30350
L41340 30350
" />
<path d="M41480 30160
L41480 30060
" />
<path d="M41640 30020
L41640 30160
L41340 30160
L41340 30020
" />
<path d="M41640 29730
L41640 29900
" />
<path d="M41640 29820
L41340 29820
L41380 29850
L41410 29870
L41430 29900
" />
<path d="M41340 29460
L41340 29600
L41480 29610
L41470 29600
L41460 29570
L41460 29500
L41470 29470
L41480 29460
L41510 29440
L41580 29440
L41610 29460
L41630 29470
L41640 29500
L41640 29570
L41630 29600
L41610 29610
" />
<path d="M41340 29220
L41560 29220
L41600 29240
L41630 29270
L41640 29310
L41640 29340
" />
<path d="M41340 29080
L41580 29080
L41610 29060
L41630 29050
L41640 29020
L41640 28960
L41630 28940
L41610 28920
L41580 28910
L41340 28910
" />
<path d="M41640 28770
L41340 28770
L41640 28600
L41340 28600
" />
<path d="M41370 28470
L41360 28460
L41340 28430
L41340 28360
L41360 28330
L41370 28320
L41400 28300
L41430 28300
L41470 28320
L41640 28490
L41640 28300
" />
<path d="M41340 28110
L41340 28080
L41360 28050
L41370 28040
L41400 28030
L41460 28010
L41530 28010
L41580 28030
L41610 28040
L41630 28050
L41640 28080
L41640 28110
L41630 28140
L41610 28150
L41580 28170
L41530 28180
L41460 28180
L41400 28170
L41370 28150
L41360 28140
L41340 28110
" />
<path d="M41640 27720
L41640 27890
" />
<path d="M41640 27810
L41340 27810
L41380 27840
L41410 27860
L41430 27890
" />
<path d="M41340 27530
L41340 27500
L41360 27470
L41370 27460
L41400 27450
L41460 27430
L41530 27430
L41580 27450
L41610 27460
L41630 27470
L41640 27500
L41640 27530
L41630 27560
L41610 27570
L41580 27590
L41530 27600
L41460 27600
L41400 27590
L41370 27570
L41360 27560
L41340 27530
" />
</g>
<g style="fill:#009F9F; fill-opacity:0.0; 
stroke:#009F9F; stroke-width:0; stroke-opacity:1; 
stroke-linecap:round; stroke-linejoin:round;">
</g>
<g style="fill:#9F0000; fill-opacity:0.0; 
stroke:#9F0000; stroke-width:60; stroke-opacity:1; 
stroke-linecap:round; stroke-linejoin:round;">
<polyline fill="none;"
points="71350,31450
71350,31450
" /> 
<polyline fill="none;"
points="71200,31500
71200,31500
" /> 
<polyline fill="none;"
points="71200,31500
71200,31500
" /> 
<polyline fill="none;"
points="71200,31500
71200,31500
" /> 
<polyline fill="none;"
points="71300,31250
71300,31200
71300,31200
" /> 
<polyline fill="none;"
points="71300,31250
71250,31250
71250,31250
" /> 
<polyline fill="none;"
points="71300,31350
71250,31350
71250,31350
" /> 
<polyline fill="none;"
points="71300,31400
71250,31400
71250,31400
" /> 
<polyline fill="none;"
points="71050,31450
71050,31500
71050,31500
" /> 
<polyline fill="none;"
points="71100,31450
71100,31500
71100,31500
" /> 
<polyline fill="none;"
points="71150,31450
71150,31500
71150,31500
" /> 
<polyline fill="none;"
points="71200,31450
71200,31500
71200,31500
" /> 
<polyline fill="none;"
points="71250,31450
71000,31450
71000,31450
" /> 
<polyline fill="none;"
points="71300,31450
71300,31250
71300,31250
" /> 
<polyline fill="none;"
points="71300,31450
71250,31450
71250,31450
" /> 
<polyline fill="none;"
points="71300,31450
71300,31500
71300,31500
" /> 
<polyline fill="none;"
points="71350,31450
71350,31500
71350,31500
" /> 
<polyline fill="none;"
points="71350,31500
71350,31450
71350,31450
" /> 
<polyline fill="none;"
points="71500,31500
71500,31450
71500,31450
" /> 
<polyline fill="none;"
points="71500,31500
71550,31500
71550,31500
" /> 
<polyline fill="none;"
points="71250,31550
71250,31550
71250,31550
" /> 
<polyline fill="none;"
points="71250,31550
71250,31550
71250,31550
" /> 
<polyline fill="none;"
points="71300,31550
71250,31550
71250,31550
" /> 
<polyline fill="none;"
points="71300,31600
71250,31600
71250,31600
" /> 
<polyline fill="none;"
points="71300,31650
71250,31650
71250,31650
" /> 
<polyline fill="none;"
points="71300,31700
71250,31700
71250,31700
" /> 
<polyline fill="none;"
points="71250,31300
71250,31300
71300,31300
71300,31300
" /> 
<polyline fill="none;"
points="71350,31450
71350,31500
71350,31500
71350,31500
" /> 
<polyline fill="none;"
points="71400,31450
71400,31500
71400,31500
71400,31500
" /> 
<polyline fill="none;"
points="71450,31450
71450,31500
71450,31500
71450,31500
" /> 
<polyline fill="none;"
points="71300,31500
71000,31500
71000,31450
71000,31450
" /> 
<polyline fill="none;"
points="71550,31500
71550,31450
71300,31450
71300,31450
" /> 
<polyline fill="none;"
points="71300,31200
71250,31200
71250,31750
71300,31750
71300,31750
" /> 
<polyline fill="none;"
points="71300,31750
71300,31500
71500,31500
71500,31500
71500,31500
71500,31500
" /> 
<path d="M70500 32000
L70500 30500
" />
<path d="M70500 33000
L70500 34500
" />
</g>
<g style="fill:#9F0000; fill-opacity:1.0; 
stroke:#9F0000; stroke-width:60; stroke-opacity:1; 
stroke-linecap:round; stroke-linejoin:round;">
<polyline style="fill-rule:evenodd;"
points="70500,32000
70500,32250
70500,32250
" /> 
<polyline style="fill-rule:evenodd;"
points="71500,32250
69500,32250
69500,32250
" /> 
<polyline style="fill-rule:evenodd;"
points="69500,32750
69750,32750
69750,32750
" /> 
<polyline style="fill-rule:evenodd;"
points="69750,32750
69750,32750
69750,32750
" /> 
<polyline style="fill-rule:evenodd;"
points="71500,32750
69750,32750
69750,32750
" /> 
<polyline style="fill-rule:evenodd;"
points="70500,33000
70500,32750
70500,32750
" /> 
</g>
<g style="fill:#009F9F; fill-opacity:0.0; 
stroke:#009F9F; stroke-width:50; stroke-opacity:1; 
stroke-linecap:round; stroke-linejoin:round;">
<path d="M72110 32550
L72130 32560
L72140 32600
L72140 32630
L72130 32680
L72100 32700
L72070 32720
L72010 32730
L71970 32730
L71910 32720
L71880 32700
L71860 32680
L71840 32630
L71840 32600
L71860 32560
L71870 32550
" />
<path d="M71940 32290
L72140 32290
" />
<path d="M71830 32360
L72040 32430
L72040 32250
" />
<path d="M69110 37380
L69130 37390
L69140 37430
L69140 37460
L69130 37510
L69100 37530
L69070 37550
L69010 37560
L68970 37560
L68910 37550
L68880 37530
L68860 37510
L68840 37460
L68840 37430
L68860 37390
L68870 37380
" />
<path d="M69060 37260
L69060 37120
" />
<path d="M69140 37290
L68840 37190
L69140 37090
" />
<path d="M69140 36990
L68840 36990
L68840 36870
L68860 36850
L68870 36830
L68900 36820
L68940 36820
L68970 36830
L68980 36850
L69000 36870
L69000 36990
" />
<path d="M69060 36700
L69060 36560
" />
<path d="M69140 36730
L68840 36630
L69140 36530
" />
<path d="M69110 36260
L69130 36270
L69140 36310
L69140 36340
L69130 36390
L69100 36410
L69070 36430
L69010 36440
L68970 36440
L68910 36430
L68880 36410
L68860 36390
L68840 36340
L68840 36310
L68860 36270
L68870 36260
" />
<path d="M69140 36130
L68840 36130
" />
<path d="M68840 36030
L68840 35860
" />
<path d="M69140 35950
L68840 35950
" />
<path d="M68840 35700
L68840 35640
L68860 35620
L68880 35590
L68940 35570
L69040 35570
L69100 35590
L69130 35620
L69140 35640
L69140 35700
L69130 35730
L69100 35760
L69040 35770
L68940 35770
L68880 35760
L68860 35730
L68840 35700
" />
<path d="M69140 35280
L69000 35380
" />
<path d="M69140 35450
L68840 35450
L68840 35330
L68860 35310
L68870 35290
L68900 35280
L68940 35280
L68970 35290
L68980 35310
L69000 35330
L69000 35450
" />
<path d="M69170 35220
L69170 34990
" />
<path d="M69140 34920
L68840 34920
L68840 34800
L68860 34780
L68870 34760
L68900 34750
L68940 34750
L68970 34760
L68980 34780
L69000 34800
L69000 34920
" />
<path d="M68840 34560
L68840 34500
L68860 34480
L68880 34450
L68940 34430
L69040 34430
L69100 34450
L69130 34480
L69140 34500
L69140 34560
L69130 34590
L69100 34620
L69040 34630
L68940 34630
L68880 34620
L68860 34590
L68840 34560
" />
<path d="M69140 34170
L69140 34310
L68840 34310
" />
<path d="M69060 34080
L69060 33940
" />
<path d="M69140 34110
L68840 34010
L69140 33910
" />
<path d="M69140 33640
L69000 33740
" />
<path d="M69140 33810
L68840 33810
L68840 33690
L68860 33670
L68870 33650
L68900 33640
L68940 33640
L68970 33650
L68980 33670
L69000 33690
L69000 33810
" />
<path d="M69140 33510
L68840 33510
" />
<path d="M69130 33380
L69140 33340
L69140 33270
L69130 33240
L69110 33230
L69080 33210
L69060 33210
L69030 33230
L69010 33240
L69000 33270
L68980 33330
L68970 33350
L68960 33370
L68930 33380
L68900 33380
L68870 33370
L68860 33350
L68840 33330
L68840 33250
L68860 33210
" />
<path d="M68980 33080
L68980 32980
" />
<path d="M69140 32940
L69140 33080
L68840 33080
L68840 32940
" />
<path d="M69140 32810
L68840 32810
L68840 32740
L68860 32690
L68880 32670
L68910 32650
L68970 32640
L69010 32640
L69070 32650
L69100 32670
L69130 32690
L69140 32740
L69140 32810
" />
<path d="M69170 32580
L69170 32350
" />
<path d="M69140 32110
L69000 32210
" />
<path d="M69140 32280
L68840 32280
L68840 32160
L68860 32140
L68870 32120
L68900 32110
L68940 32110
L68970 32120
L68980 32140
L69000 32160
L69000 32280
" />
<path d="M68980 31980
L68980 31880
" />
<path d="M69140 31840
L69140 31980
L68840 31980
L68840 31840
" />
<path d="M68840 31750
L69140 31650
L68840 31550
" />
<path d="M68980 31450
L68980 31350
" />
<path d="M69140 31310
L69140 31450
L68840 31450
L68840 31310
" />
<path d="M69170 31250
L69170 31020
" />
<path d="M69140 30950
L68840 30950
L68840 30880
L68860 30830
L68880 30810
L68910 30790
L68970 30780
L69010 30780
L69070 30790
L69100 30810
L69130 30830
L69140 30880
L69140 30950
" />
<path d="M69060 30660
L69060 30520
" />
<path d="M69140 30690
L68840 30590
L69140 30490
" />
<path d="M68840 30430
L68840 30260
" />
<path d="M69140 30350
L68840 30350
" />
<path d="M68980 30160
L68980 30060
" />
<path d="M69140 30020
L69140 30160
L68840 30160
L68840 30020
" />
<path d="M69140 29730
L69140 29900
" />
<path d="M69140 29820
L68840 29820
L68880 29850
L68910 29870
L68930 29900
" />
<path d="M68840 29460
L68840 29600
L68980 29610
L68970 29600
L68960 29570
L68960 29500
L68970 29470
L68980 29460
L69010 29440
L69080 29440
L69110 29460
L69130 29470
L69140 29500
L69140 29570
L69130 29600
L69110 29610
" />
<path d="M68840 29220
L69060 29220
L69100 29240
L69130 29270
L69140 29310
L69140 29340
" />
<path d="M68840 29080
L69080 29080
L69110 29060
L69130 29050
L69140 29020
L69140 28960
L69130 28940
L69110 28920
L69080 28910
L68840 28910
" />
<path d="M69140 28770
L68840 28770
L69140 28600
L68840 28600
" />
<path d="M68870 28470
L68860 28460
L68840 28430
L68840 28360
L68860 28330
L68870 28320
L68900 28300
L68930 28300
L68970 28320
L69140 28490
L69140 28300
" />
<path d="M68840 28110
L68840 28080
L68860 28050
L68870 28040
L68900 28030
L68960 28010
L69030 28010
L69080 28030
L69110 28040
L69130 28050
L69140 28080
L69140 28110
L69130 28140
L69110 28150
L69080 28170
L69030 28180
L68960 28180
L68900 28170
L68870 28150
L68860 28140
L68840 28110
" />
<path d="M69140 27720
L69140 27890
" />
<path d="M69140 27810
L68840 27810
L68880 27840
L68910 27860
L68930 27890
" />
<path d="M68840 27530
L68840 27500
L68860 27470
L68870 27460
L68900 27450
L68960 27430
L69030 27430
L69080 27450
L69110 27460
L69130 27470
L69140 27500
L69140 27530
L69130 27560
L69110 27570
L69080 27590
L69030 27600
L68960 27600
L68900 27590
L68870 27570
L68860 27560
L68840 27530
" />
</g>
<g style="fill:#009F9F; fill-opacity:0.0; 
stroke:#009F9F; stroke-width:0; stroke-opacity:1; 
stroke-linecap:round; stroke-linejoin:round;">
</g>
<g style="fill:#9F0000; fill-opacity:1.0; 
stroke:#9F0000; stroke-width:60; stroke-opacity:1; 
stroke-linecap:round; stroke-linejoin:round;">
<polyline style="fill-rule:evenodd;"
points="65500,32000
65500,32250
65500,32250
" /> 
<polyline style="fill-rule:evenodd;"
points="66500,32250
64500,32250
64500,32250
" /> 
<polyline style="fill-rule:evenodd;"
points="66500,32750
64500,32750
64500,32750
" /> 
<polyline style="fill-rule:evenodd;"
points="65500,33000
65500,32750
65500,32750
" /> 
<path d="M65500 32000
L65500 30500
" />
<path d="M65500 33000
L65500 34500
" />
</g>
<g style="fill:#009F9F; fill-opacity:0.0; 
stroke:#009F9F; stroke-width:50; stroke-opacity:1; 
stroke-linecap:round; stroke-linejoin:round;">
<path d="M67110 32550
L67130 32560
L67140 32600
L67140 32630
L67130 32680
L67100 32700
L67070 32720
L67010 32730
L66970 32730
L66910 32720
L66880 32700
L66860 32680
L66840 32630
L66840 32600
L66860 32560
L66870 32550
" />
<path d="M66840 32450
L66840 32260
L66960 32360
L66960 32320
L66970 32290
L66980 32280
L67010 32260
L67080 32260
L67110 32280
L67130 32290
L67140 32320
L67140 32400
L67130 32430
L67110 32450
" />
<path d="M64110 36060
L64130 36070
L64140 36110
L64140 36140
L64130 36190
L64100 36210
L64070 36230
L64010 36240
L63970 36240
L63910 36230
L63880 36210
L63860 36190
L63840 36140
L63840 36110
L63860 36070
L63870 36060
" />
<path d="M64060 35940
L64060 35800
" />
<path d="M64140 35970
L63840 35870
L64140 35770
" />
<path d="M64140 35670
L63840 35670
L63840 35550
L63860 35530
L63870 35510
L63900 35500
L63940 35500
L63970 35510
L63980 35530
L64000 35550
L64000 35670
" />
<path d="M64060 35380
L64060 35240
" />
<path d="M64140 35410
L63840 35310
L64140 35210
" />
<path d="M64110 34940
L64130 34950
L64140 34990
L64140 35020
L64130 35070
L64100 35090
L64070 35110
L64010 35120
L63970 35120
L63910 35110
L63880 35090
L63860 35070
L63840 35020
L63840 34990
L63860 34950
L63870 34940
" />
<path d="M64140 34810
L63840 34810
" />
<path d="M63840 34710
L63840 34540
" />
<path d="M64140 34630
L63840 34630
" />
<path d="M63840 34380
L63840 34320
L63860 34300
L63880 34270
L63940 34250
L64040 34250
L64100 34270
L64130 34300
L64140 34320
L64140 34380
L64130 34410
L64100 34440
L64040 34450
L63940 34450
L63880 34440
L63860 34410
L63840 34380
" />
<path d="M64140 33960
L64000 34060
" />
<path d="M64140 34130
L63840 34130
L63840 34010
L63860 33990
L63870 33970
L63900 33960
L63940 33960
L63970 33970
L63980 33990
L64000 34010
L64000 34130
" />
<path d="M64170 33900
L64170 33670
" />
<path d="M64140 33430
L64000 33530
" />
<path d="M64140 33600
L63840 33600
L63840 33480
L63860 33460
L63870 33440
L63900 33430
L63940 33430
L63970 33440
L63980 33460
L64000 33480
L64000 33600
" />
<path d="M63980 33300
L63980 33200
" />
<path d="M64140 33160
L64140 33300
L63840 33300
L63840 33160
" />
<path d="M63840 33070
L64140 32970
L63840 32870
" />
<path d="M63980 32770
L63980 32670
" />
<path d="M64140 32630
L64140 32770
L63840 32770
L63840 32630
" />
<path d="M64170 32570
L64170 32340
" />
<path d="M64140 32270
L63840 32270
L63840 32200
L63860 32150
L63880 32130
L63910 32110
L63970 32100
L64010 32100
L64070 32110
L64100 32130
L64130 32150
L64140 32200
L64140 32270
" />
<path d="M64060 31980
L64060 31840
" />
<path d="M64140 32010
L63840 31910
L64140 31810
" />
<path d="M63840 31750
L63840 31580
" />
<path d="M64140 31670
L63840 31670
" />
<path d="M63980 31480
L63980 31380
" />
<path d="M64140 31340
L64140 31480
L63840 31480
L63840 31340
" />
<path d="M64140 31050
L64140 31220
" />
<path d="M64140 31140
L63840 31140
L63880 31170
L63910 31190
L63930 31220
" />
<path d="M63840 30780
L63840 30920
L63980 30930
L63970 30920
L63960 30890
L63960 30820
L63970 30790
L63980 30780
L64010 30760
L64080 30760
L64110 30780
L64130 30790
L64140 30820
L64140 30890
L64130 30920
L64110 30930
" />
<path d="M63840 30540
L64060 30540
L64100 30560
L64130 30590
L64140 30630
L64140 30660
" />
<path d="M63840 30400
L64080 30400
L64110 30380
L64130 30370
L64140 30340
L64140 30280
L64130 30260
L64110 30240
L64080 30230
L63840 30230
" />
<path d="M64140 30090
L63840 30090
L64140 29920
L63840 29920
" />
<path d="M63870 29790
L63860 29780
L63840 29750
L63840 29680
L63860 29650
L63870 29640
L63900 29620
L63930 29620
L63970 29640
L64140 29810
L64140 29620
" />
<path d="M63840 29430
L63840 29400
L63860 29370
L63870 29360
L63900 29350
L63960 29330
L64030 29330
L64080 29350
L64110 29360
L64130 29370
L64140 29400
L64140 29430
L64130 29460
L64110 29470
L64080 29490
L64030 29500
L63960 29500
L63900 29490
L63870 29470
L63860 29460
L63840 29430
" />
<path d="M64140 29040
L64140 29210
" />
<path d="M64140 29130
L63840 29130
L63880 29160
L63910 29180
L63930 29210
" />
<path d="M63840 28850
L63840 28820
L63860 28790
L63870 28780
L63900 28770
L63960 28750
L64030 28750
L64080 28770
L64110 28780
L64130 28790
L64140 28820
L64140 28850
L64130 28880
L64110 28890
L64080 28910
L64030 28920
L63960 28920
L63900 28910
L63870 28890
L63860 28880
L63840 28850
" />
</g>
<g style="fill:#009F9F; fill-opacity:0.0; 
stroke:#009F9F; stroke-width:0; stroke-opacity:1; 
stroke-linecap:round; stroke-linejoin:round;">
</g>
<g style="fill:#9F0000; fill-opacity:1.0; 
stroke:#9F0000; stroke-width:60; stroke-opacity:1; 
stroke-linecap:round; stroke-linejoin:round;">
<polyline style="fill-rule:evenodd;"
points="47000,32000
47000,32250
47000,32250
" /> 
<polyline style="fill-rule:evenodd;"
points="48000,32250
46000,32250
46000,32250
" /> 
<polyline style="fill-rule:evenodd;"
points="48000,32750
46000,32750
46000,32750
" /> 
<polyline style="fill-rule:evenodd;"
points="47000,33000
47000,32750
47000,32750
" /> 
<path d="M47000 32000
L47000 30500
" />
<path d="M47000 33000
L47000 34500
" />
</g>
<g style="fill:#009F9F; fill-opacity:0.0; 
stroke:#009F9F; stroke-width:50; stroke-opacity:1; 
stroke-linecap:round; stroke-linejoin:round;">
<path d="M48610 32550
L48630 32560
L48640 32600
L48640 32630
L48630 32680
L48600 32700
L48570 32720
L48510 32730
L48470 32730
L48410 32720
L48380 32700
L48360 32680
L48340 32630
L48340 32600
L48360 32560
L48370 32550
" />
<path d="M48370 32430
L48360 32420
L48340 32390
L48340 32320
L48360 32290
L48370 32280
L48400 32260
L48430 32260
L48470 32280
L48640 32450
L48640 32260
" />
<path d="M45610 36060
L45630 36070
L45640 36110
L45640 36140
L45630 36190
L45600 36210
L45570 36230
L45510 36240
L45470 36240
L45410 36230
L45380 36210
L45360 36190
L45340 36140
L45340 36110
L45360 36070
L45370 36060
" />
<path d="M45560 35940
L45560 35800
" />
<path d="M45640 35970
L45340 35870
L45640 35770
" />
<path d="M45640 35670
L45340 35670
L45340 35550
L45360 35530
L45370 35510
L45400 35500
L45440 35500
L45470 35510
L45480 35530
L45500 35550
L45500 35670
" />
<path d="M45560 35380
L45560 35240
" />
<path d="M45640 35410
L45340 35310
L45640 35210
" />
<path d="M45610 34940
L45630 34950
L45640 34990
L45640 35020
L45630 35070
L45600 35090
L45570 35110
L45510 35120
L45470 35120
L45410 35110
L45380 35090
L45360 35070
L45340 35020
L45340 34990
L45360 34950
L45370 34940
" />
<path d="M45640 34810
L45340 34810
" />
<path d="M45340 34710
L45340 34540
" />
<path d="M45640 34630
L45340 34630
" />
<path d="M45340 34380
L45340 34320
L45360 34300
L45380 34270
L45440 34250
L45540 34250
L45600 34270
L45630 34300
L45640 34320
L45640 34380
L45630 34410
L45600 34440
L45540 34450
L45440 34450
L45380 34440
L45360 34410
L45340 34380
" />
<path d="M45640 33960
L45500 34060
" />
<path d="M45640 34130
L45340 34130
L45340 34010
L45360 33990
L45370 33970
L45400 33960
L45440 33960
L45470 33970
L45480 33990
L45500 34010
L45500 34130
" />
<path d="M45670 33900
L45670 33670
" />
<path d="M45640 33430
L45500 33530
" />
<path d="M45640 33600
L45340 33600
L45340 33480
L45360 33460
L45370 33440
L45400 33430
L45440 33430
L45470 33440
L45480 33460
L45500 33480
L45500 33600
" />
<path d="M45480 33300
L45480 33200
" />
<path d="M45640 33160
L45640 33300
L45340 33300
L45340 33160
" />
<path d="M45340 33070
L45640 32970
L45340 32870
" />
<path d="M45480 32770
L45480 32670
" />
<path d="M45640 32630
L45640 32770
L45340 32770
L45340 32630
" />
<path d="M45670 32570
L45670 32340
" />
<path d="M45640 32270
L45340 32270
L45340 32200
L45360 32150
L45380 32130
L45410 32110
L45470 32100
L45510 32100
L45570 32110
L45600 32130
L45630 32150
L45640 32200
L45640 32270
" />
<path d="M45560 31980
L45560 31840
" />
<path d="M45640 32010
L45340 31910
L45640 31810
" />
<path d="M45340 31750
L45340 31580
" />
<path d="M45640 31670
L45340 31670
" />
<path d="M45480 31480
L45480 31380
" />
<path d="M45640 31340
L45640 31480
L45340 31480
L45340 31340
" />
<path d="M45640 31050
L45640 31220
" />
<path d="M45640 31140
L45340 31140
L45380 31170
L45410 31190
L45430 31220
" />
<path d="M45340 30780
L45340 30920
L45480 30930
L45470 30920
L45460 30890
L45460 30820
L45470 30790
L45480 30780
L45510 30760
L45580 30760
L45610 30780
L45630 30790
L45640 30820
L45640 30890
L45630 30920
L45610 30930
" />
<path d="M45340 30540
L45560 30540
L45600 30560
L45630 30590
L45640 30630
L45640 30660
" />
<path d="M45340 30400
L45580 30400
L45610 30380
L45630 30370
L45640 30340
L45640 30280
L45630 30260
L45610 30240
L45580 30230
L45340 30230
" />
<path d="M45640 30090
L45340 30090
L45640 29920
L45340 29920
" />
<path d="M45370 29790
L45360 29780
L45340 29750
L45340 29680
L45360 29650
L45370 29640
L45400 29620
L45430 29620
L45470 29640
L45640 29810
L45640 29620
" />
<path d="M45340 29430
L45340 29400
L45360 29370
L45370 29360
L45400 29350
L45460 29330
L45530 29330
L45580 29350
L45610 29360
L45630 29370
L45640 29400
L45640 29430
L45630 29460
L45610 29470
L45580 29490
L45530 29500
L45460 29500
L45400 29490
L45370 29470
L45360 29460
L45340 29430
" />
<path d="M45640 29040
L45640 29210
" />
<path d="M45640 29130
L45340 29130
L45380 29160
L45410 29180
L45430 29210
" />
<path d="M45340 28850
L45340 28820
L45360 28790
L45370 28780
L45400 28770
L45460 28750
L45530 28750
L45580 28770
L45610 28780
L45630 28790
L45640 28820
L45640 28850
L45630 28880
L45610 28890
L45580 28910
L45530 28920
L45460 28920
L45400 28910
L45370 28890
L45360 28880
L45340 28850
" />
</g> 
</svg>
